<svg width="30" height="30" viewBox="0 0 30 30" fill="none" xmlns="http://www.w3.org/2000/svg">
<path d="M23.5 24.9999L6.50003 24.9999C5.09991 24.9999 4.39985 24.9999 3.86507 24.7274C3.39466 24.4877 3.01221 24.1053 2.77253 23.6349C2.50004 23.1001 2.50004 22.4 2.50003 20.9999L2.50001 15.188C2.50001 14.2769 2.50001 13.8214 2.69006 13.5173C2.85651 13.2511 3.11707 13.0572 3.41994 12.9743C3.76577 12.8796 4.20208 13.0105 5.07471 13.2723L13.8506 15.9051C14.2779 16.0332 14.4915 16.0973 14.7092 16.1228C14.9024 16.1455 15.0976 16.1455 15.2908 16.1228C15.5085 16.0973 15.7221 16.0332 16.1494 15.9051L24.9253 13.2723C25.7979 13.0105 26.2342 12.8796 26.5801 12.9743C26.8829 13.0572 27.1435 13.2511 27.3099 13.5173C27.5 13.8214 27.5 14.2769 27.5 15.1879L27.5 20.9999C27.5 22.4 27.5 23.1001 27.2275 23.6349C26.9878 24.1053 26.6054 24.4877 26.135 24.7274C25.6002 24.9999 24.9001 24.9999 23.5 24.9999Z" fill="#F8F8F8"/>
<path d="M6.14426 4.99988L23.8557 4.99988C24.9214 4.99988 25.4542 4.99988 25.8794 5.15968C26.5542 5.41325 27.0866 5.94569 27.3402 6.6204C27.5 7.04562 27.5 7.57846 27.5 8.64415C27.5 9.05082 27.5 9.25415 27.4468 9.43061C27.3625 9.71019 27.183 9.95144 26.9394 10.1125C26.7857 10.2142 26.5909 10.2726 26.2014 10.3894L16.1494 13.4051C15.7221 13.5332 15.5085 13.5973 15.2908 13.6228C15.0976 13.6455 14.9024 13.6455 14.7092 13.6228C14.4915 13.5973 14.2779 13.5332 13.8506 13.4051L3.79854 10.3894C3.40904 10.2726 3.21429 10.2142 3.06055 10.1125C2.81698 9.95145 2.63748 9.71019 2.5532 9.43061C2.50001 9.25415 2.5 9.05083 2.5 8.64417C2.49999 7.57849 2.49998 7.04565 2.65978 6.62043C2.91334 5.9457 3.44579 5.41325 4.12052 5.15968C4.54573 4.99988 5.07858 4.99988 6.14426 4.99988Z" fill="#F8F8F8"/>
</svg>
