<svg width="17" height="17" viewBox="0 0 17 17" fill="none" xmlns="http://www.w3.org/2000/svg">
<path d="M8.29831 1.80322C8.28071 1.73306 8.28008 1.65971 8.29647 1.58926C8.31287 1.5188 8.34581 1.45327 8.39257 1.39808C8.43933 1.34289 8.49857 1.29964 8.56538 1.2719C8.63218 1.24416 8.70463 1.23274 8.77673 1.23858C12.5234 1.53972 15.4699 4.67501 15.4699 8.50001C15.4699 12.5241 12.2083 15.7857 8.18416 15.7857C6.90833 15.7862 5.65474 15.4516 4.54893 14.8152C3.44311 14.1789 2.52387 13.2632 1.88323 12.1599C1.84758 12.0987 1.82668 12.03 1.8222 11.9594C1.81772 11.8887 1.82978 11.818 1.85742 11.7528C1.88507 11.6876 1.92753 11.6298 1.98144 11.5839C2.03535 11.538 2.09922 11.5053 2.16798 11.4884C3.13881 11.2498 4.32334 10.8666 5.39798 10.2716C6.47445 9.67483 7.40763 8.88311 7.92856 7.84126C8.9692 5.76058 8.69416 3.38179 8.29831 1.80322Z" fill="#1E1E1E"/>
</svg>
