<svg width="93" height="93" viewBox="0 0 93 93" fill="none" xmlns="http://www.w3.org/2000/svg">
<path d="M43.7174 28.9313C55.4226 27.0774 66.3291 27.3719 74.4994 29.3445C78.5846 30.3308 81.9826 31.7359 84.4542 33.4991C86.9254 35.2622 88.4663 37.38 88.8484 39.7927C89.2306 42.2054 88.4196 44.6958 86.6141 47.1362C84.8084 49.5769 82.0109 51.9633 78.4303 54.1637C71.2695 58.5645 60.9878 62.2149 49.2827 64.0688C37.5775 65.9227 26.671 65.6282 18.5008 63.6557C14.4155 62.6693 11.0175 61.2642 8.54595 59.501C6.07469 57.738 4.53379 55.6201 4.15166 53.2074C3.76952 50.7947 4.58054 48.3043 6.38604 45.8639C8.19172 43.4232 10.9892 41.0368 14.5698 38.8364C21.7306 34.4356 32.0123 30.7852 43.7174 28.9313Z" stroke="url(#paint0_linear_26_1377)" stroke-width="0.125"/>
<path d="M44.0244 28.8853C55.7601 27.236 66.6598 27.7208 74.7944 29.8357C78.8619 30.8931 82.2349 32.3573 84.6752 34.1634C87.1153 35.9693 88.619 38.1138 88.959 40.5328C89.299 42.9518 88.4446 45.4276 86.5968 47.8362C84.7488 50.2449 81.9101 52.5821 78.2917 54.7198C71.0551 58.9949 60.7113 62.4653 48.9756 64.1147C37.2399 65.764 26.3401 65.2792 18.2056 63.1643C14.1381 62.1069 10.7651 60.6427 8.32478 58.8366C5.88466 57.0307 4.38096 54.8862 4.04099 52.4672C3.70102 50.0482 4.55539 47.5724 6.4032 45.1638C8.2512 42.7551 11.0899 40.4179 14.7083 38.2802C21.9449 34.0051 32.2887 30.5347 44.0244 28.8853Z" stroke="url(#paint1_linear_26_1377)" stroke-width="0.125"/>
<path d="M44.3322 28.8448C56.0949 27.4006 66.9845 28.0755 75.0809 30.332C79.1293 31.4603 82.4762 32.9832 84.8847 34.8316C87.2929 36.6798 88.7589 38.8501 89.0566 41.2747C89.3543 43.6993 88.4569 46.1598 86.5673 48.5357C84.6776 50.9119 81.7985 53.1992 78.1433 55.2734C70.8333 59.4216 60.4304 62.7109 48.6677 64.1552C36.905 65.5995 26.0154 64.9245 17.919 62.668C13.8706 61.5397 10.5237 60.0168 8.11525 58.1685C5.70702 56.3202 4.24098 54.1499 3.94328 51.7253C3.64557 49.3007 4.54301 46.8402 6.43258 44.4643C8.32234 42.0881 11.2014 39.8008 14.8566 37.7266C22.1666 33.5785 32.5695 30.2891 44.3322 28.8448Z" stroke="url(#paint2_linear_26_1377)" stroke-width="0.125"/>
<path d="M44.6405 28.8097C56.4266 27.571 67.3028 28.4359 75.3586 30.8333C79.3866 32.0321 82.7065 33.6131 85.0823 35.5033C87.4579 37.3932 88.8858 39.5889 89.1412 42.0183C89.3965 44.4477 88.4563 46.8922 86.5255 49.2347C84.5946 51.5776 81.676 53.8143 77.9852 55.8243C70.6039 59.8443 60.1452 62.9516 48.3591 64.1904C36.573 65.4291 25.6968 64.5642 17.641 62.1668C13.613 60.968 10.2931 59.387 7.91729 57.4968C5.54169 55.6068 4.11375 53.4112 3.85841 50.9818C3.60307 48.5524 4.54331 46.1079 6.47406 43.7653C8.405 41.4225 11.3236 39.1858 15.0144 37.1758C22.3957 33.1558 32.8544 30.0485 44.6405 28.8097Z" stroke="url(#paint3_linear_26_1377)" stroke-width="0.125"/>
<path d="M44.9496 28.78C56.7555 27.7471 67.6149 28.8017 75.6277 31.3394C79.6342 32.6083 82.926 34.247 85.2684 36.1784C87.6107 38.1095 89.0001 40.3297 89.213 42.7632C89.4259 45.1967 88.4431 47.6244 86.4718 49.9329C84.5003 52.2417 81.5431 54.4271 77.8178 56.3724C70.3674 60.263 59.8561 63.1873 48.0502 64.2202C36.2443 65.253 25.3848 64.1985 17.3721 61.6608C13.3656 60.3919 10.0738 58.7531 7.73135 56.8218C5.38909 54.8907 3.99969 52.6705 3.78678 50.237C3.57388 47.8035 4.55665 45.3758 6.52798 43.0672C8.49951 40.7585 11.4567 38.5731 15.182 36.6277C22.6323 32.7372 33.1436 29.8129 44.9496 28.78Z" stroke="url(#paint4_linear_26_1377)" stroke-width="0.125"/>
<path d="M45.2593 28.7556C57.0815 27.9289 67.9208 29.1729 75.8881 31.85C79.8719 33.1886 83.1345 34.8846 85.4429 36.8565C87.7511 38.8282 89.1016 41.0723 89.272 43.5091C89.4424 45.946 88.4174 48.3562 86.4061 50.6299C84.3945 52.9039 81.3997 55.0374 77.641 56.9175C70.1239 60.6774 59.5631 63.4178 47.7409 64.2445C35.9188 65.0711 25.0794 63.8272 17.1122 61.15C13.1284 59.8114 9.86578 58.1155 7.55735 56.1436C5.24916 54.1719 3.89871 51.9278 3.72831 49.4909C3.55791 47.0541 4.5829 44.6439 6.59422 42.3701C8.60574 40.0961 11.6006 37.9626 15.3593 36.0826C22.8764 32.3227 33.4372 29.5823 45.2593 28.7556Z" stroke="url(#paint5_linear_26_1377)" stroke-width="0.125"/>
<path d="M45.569 28.7366C57.4038 28.1164 68.2198 29.5493 76.1391 32.3651C80.0989 33.7731 83.3314 35.5257 85.6051 37.5376C87.8785 39.5493 89.1896 41.8166 89.3174 44.256C89.4453 46.6955 88.3784 49.0874 86.3277 51.3258C84.2768 53.5643 81.2451 55.6452 77.4542 57.4593C69.8726 61.0875 59.2656 63.6432 47.4309 64.2634C35.5961 64.8836 24.7801 63.4507 16.8608 60.6349C12.901 59.227 9.66842 57.4744 7.39476 55.4625C5.12133 53.4508 3.81025 51.1834 3.6824 48.744C3.55456 46.3046 4.62145 43.9126 6.67215 41.6743C8.72306 39.4357 11.7547 37.3548 15.5456 35.5407C23.1272 31.9125 33.7342 29.3569 45.569 28.7366Z" stroke="url(#paint6_linear_26_1377)" stroke-width="0.125"/>
<path d="M45.8793 28.723C57.7231 28.3094 68.5125 29.9309 76.3814 32.8845C80.3161 34.3613 83.5175 36.1701 85.7557 38.2214C87.9937 40.2724 89.265 42.5623 89.3502 45.0036C89.4355 47.4449 88.327 49.8179 86.2376 52.0201C84.1479 54.2225 81.0804 56.2501 77.2584 57.9978C69.6146 61.4931 58.9647 63.8633 47.1209 64.2769C35.2771 64.6905 24.4877 63.069 16.6188 60.1154C12.6841 58.6386 9.48269 56.8298 7.24448 54.7786C5.0065 52.7275 3.7352 50.4376 3.64995 47.9963C3.56469 45.555 4.67317 43.182 6.76262 40.9799C8.85228 38.7775 11.9198 36.7498 15.7418 35.0021C23.3855 31.5068 34.0355 29.1366 45.8793 28.723Z" stroke="url(#paint7_linear_26_1377)" stroke-width="0.125"/>
<path d="M46.1897 28.7149C58.0389 28.5081 68.7983 30.3176 76.6145 33.4081C80.5228 34.9534 83.6921 36.8177 85.8942 38.9078C88.0961 40.9976 89.3272 43.3093 89.3698 45.7517C89.4125 48.1941 88.2627 50.5474 86.1352 52.7128C84.0074 54.8784 80.905 56.8522 77.0531 58.5329C69.3495 61.8943 58.6598 64.0782 46.8105 64.285C34.9613 64.4919 24.2019 62.6823 16.3857 59.5919C12.4774 58.0466 9.30804 56.1823 7.10598 54.0922C4.90414 52.0024 3.67299 49.6907 3.63036 47.2483C3.58772 44.8059 4.73744 42.4526 6.86501 40.2872C8.99279 38.1216 12.0952 36.1478 15.9471 34.4671C23.6507 31.1057 34.3404 28.9218 46.1897 28.7149Z" stroke="url(#paint8_linear_26_1377)" stroke-width="0.125"/>
<path d="M46.4998 28.7123C58.3508 28.7123 69.077 30.7093 76.8381 33.9357C80.7188 35.5489 83.8552 37.4683 86.0204 39.5965C88.1855 41.7244 89.3761 44.0572 89.3761 46.5C89.3761 48.9428 88.1855 51.2756 86.0204 53.4036C83.8552 55.5317 80.7188 57.4511 76.8381 59.0643C69.077 62.2907 58.3508 64.2878 46.4998 64.2878C34.6488 64.2878 23.9226 62.2907 16.1615 59.0643C12.2808 57.4511 9.14444 55.5317 6.97919 53.4036C4.81415 51.2756 3.62354 48.9428 3.62354 46.5C3.62354 44.0572 4.81415 41.7244 6.97919 39.5965C9.14444 37.4683 12.2808 35.5489 16.1615 33.9357C23.9226 30.7093 34.6488 28.7123 46.4998 28.7123Z" stroke="url(#paint9_linear_26_1377)" stroke-width="0.125"/>
<path d="M46.8105 28.715C58.6598 28.9218 69.3495 31.1058 77.0531 34.4671C80.905 36.1478 84.0074 38.1217 86.1352 40.2873C88.2628 42.4527 89.4125 44.8059 89.3698 47.2483C89.3272 49.6908 88.0961 52.0025 85.8942 54.0923C83.6922 56.1823 80.5228 58.0467 76.6145 59.5919C68.7983 62.6824 58.0389 64.4919 46.1897 64.2851C34.3404 64.0783 23.6507 61.8943 15.9471 58.533C12.0952 56.8522 8.99281 54.8784 6.86503 52.7128C4.73746 50.5474 3.58774 48.1942 3.63037 45.7518C3.673 43.3093 4.90415 40.9976 7.10599 38.9078C9.30805 36.8178 12.4775 34.9534 16.3857 33.4082C24.2019 30.3177 34.9613 28.5082 46.8105 28.715Z" stroke="url(#paint10_linear_26_1377)" stroke-width="0.125"/>
<path d="M47.1207 28.723C58.9645 29.1366 69.6145 31.5068 77.2582 35.0021C81.0803 36.7498 84.1477 38.7775 86.2374 40.9799C88.3269 43.1821 89.4353 45.555 89.3501 47.9963C89.2648 50.4376 87.9935 52.7275 85.7555 54.7786C83.5173 56.8298 80.3159 58.6386 76.3813 60.1154C68.5123 63.069 57.723 64.6905 45.8792 64.2769C34.0353 63.8633 23.3854 61.4931 15.7416 57.9979C11.9196 56.2502 8.85212 54.2225 6.76246 52.0201C4.67301 49.8179 3.56453 47.4449 3.64978 45.0036C3.73503 42.5623 5.00634 40.2724 7.24432 38.2214C9.48252 36.1701 12.684 34.3613 16.6186 32.8845C24.4876 29.9309 35.2769 28.3095 47.1207 28.723Z" stroke="url(#paint11_linear_26_1377)" stroke-width="0.125"/>
<path d="M47.4311 28.7366C59.2659 29.3568 69.8729 31.9125 77.4545 35.5407C81.2454 37.3548 84.277 39.4357 86.3279 41.6743C88.3786 43.9126 89.4455 46.3045 89.3177 48.744C89.1898 51.1834 87.8788 53.4507 85.6053 55.4624C83.3317 57.4743 80.0991 59.2269 76.1393 60.6349C68.22 63.4507 57.404 64.8836 45.5692 64.2634C33.7344 63.6431 23.1275 61.0875 15.5459 57.4593C11.7549 55.6452 8.72331 53.5643 6.67241 51.3257C4.62171 49.0874 3.55481 46.6955 3.68266 44.256C3.81051 41.8166 5.12158 39.5493 7.39502 37.5376C9.66868 35.5257 12.9012 33.773 16.861 32.3651C24.7803 29.5493 35.5963 28.1164 47.4311 28.7366Z" stroke="url(#paint12_linear_26_1377)" stroke-width="0.125"/>
<path d="M47.7411 28.7555C59.5632 29.5822 70.124 32.3226 77.6411 36.0825C81.3998 37.9625 84.3946 40.096 86.4062 42.37C88.4175 44.6438 89.4425 47.054 89.2721 49.4908C89.1017 51.9277 87.7512 54.1718 85.443 56.1435C83.1346 58.1154 79.872 59.8113 75.8882 61.15C67.921 63.8271 57.0816 65.0711 45.2594 64.2444C33.4373 63.4177 22.8765 60.6773 15.3594 56.9174C11.6007 55.0373 8.60585 52.9038 6.59433 50.6299C4.583 48.3561 3.55802 45.9459 3.72842 43.509C3.89882 41.0722 5.24927 38.8281 7.55746 36.8564C9.86589 34.8845 13.1285 33.1885 17.1123 31.8499C25.0795 29.1728 35.9189 27.9288 47.7411 28.7555Z" stroke="url(#paint13_linear_26_1377)" stroke-width="0.125"/>
<path d="M48.0504 28.7799C59.8563 29.8128 70.3676 32.7371 77.818 36.6276C81.5433 38.573 84.5005 40.7584 86.472 43.0672C88.4433 45.3757 89.4261 47.8034 89.2132 50.2369C89.0003 52.6704 87.6109 54.8906 85.2686 56.8217C82.9261 58.7531 79.6344 60.3918 75.6279 61.6607C67.6151 64.1984 56.7557 65.253 44.9498 64.2201C33.1438 63.1872 22.6325 60.2629 15.1822 56.3724C11.4569 54.427 8.49969 52.2416 6.52816 49.9328C4.55682 47.6243 3.57406 45.1966 3.78696 42.7631C3.99986 40.3296 5.38927 38.1094 7.73153 36.1783C10.074 34.2469 13.3657 32.6082 17.3723 31.3393C25.385 28.8016 36.2444 27.747 48.0504 28.7799Z" stroke="url(#paint14_linear_26_1377)" stroke-width="0.125"/>
<path d="M48.3594 28.8097C60.1455 30.0485 70.6042 33.1558 77.9855 37.1758C81.6763 39.1858 84.5949 41.4226 86.5258 43.7654C88.4566 46.1079 89.3968 48.5525 89.1415 50.9819C88.8861 53.4113 87.4582 55.6069 85.0826 57.4968C82.7067 59.387 79.3869 60.968 75.3589 62.1668C67.303 64.5643 56.4269 65.4292 44.6407 64.1904C32.8546 62.9516 22.396 59.8443 15.0146 55.8244C11.3238 53.8143 8.40527 51.5776 6.47433 49.2348C4.54359 46.8922 3.60334 44.4477 3.85868 42.0183C4.11402 39.5889 5.54197 37.3933 7.91757 35.5033C10.2934 33.6132 13.6132 32.0321 17.6413 30.8334C25.6971 28.4359 36.5733 27.571 48.3594 28.8097Z" stroke="url(#paint15_linear_26_1377)" stroke-width="0.125"/>
<path d="M48.6679 28.8449C60.4307 30.2891 70.8335 33.5785 78.1435 37.7267C81.7987 39.8008 84.6778 42.0881 86.5675 44.4643C88.4571 46.8402 89.3545 49.3008 89.0568 51.7253C88.7591 54.1499 87.2931 56.3203 84.8849 58.1685C82.4764 60.0169 79.1295 61.5397 75.0811 62.668C66.9847 64.9245 56.0951 65.5995 44.3324 64.1552C32.5697 62.7109 22.1668 59.4216 14.8568 55.2734C11.2016 53.1992 8.32255 50.9119 6.4328 48.5358C4.54323 46.1599 3.64579 43.6993 3.94349 41.2747C4.24119 38.8501 5.70723 36.6798 8.11546 34.8316C10.5239 32.9832 13.8708 31.4603 17.9192 30.332C26.0156 28.0755 36.9052 27.4006 48.6679 28.8449Z" stroke="url(#paint16_linear_26_1377)" stroke-width="0.125"/>
<path d="M48.9759 28.8854C60.7116 30.5348 71.0554 34.0052 78.292 38.2803C81.9104 40.4179 84.7491 42.7551 86.5971 45.1639C88.4449 47.5724 89.2993 50.0483 88.9593 52.4673C88.6193 54.8863 87.1156 57.0307 84.6755 58.8366C82.2351 60.6427 78.8622 62.1069 74.7947 63.1644C66.6601 65.2793 55.7604 65.7641 44.0247 64.1147C32.289 62.4654 21.9451 58.995 14.7086 54.7198C11.0902 52.5822 8.25149 50.245 6.40349 47.8362C4.55568 45.4277 3.70132 42.9518 4.04129 40.5328C4.38126 38.1138 5.88496 35.9694 8.32507 34.1635C10.7654 32.3574 14.1384 30.8932 18.2059 29.8357C26.3404 27.7209 37.2402 27.2361 48.9759 28.8854Z" stroke="url(#paint17_linear_26_1377)" stroke-width="0.125"/>
<path d="M49.2825 28.9312C60.9876 30.7851 71.2693 34.4355 78.4302 38.8363C82.0107 41.0368 84.8082 43.4232 86.6139 45.8638C88.4194 48.3042 89.2304 50.7946 88.8483 53.2073C88.4661 55.62 86.9252 57.7379 84.454 59.5009C81.9825 61.2642 78.5845 62.6693 74.4992 63.6556C66.3289 65.6282 55.4224 65.9227 43.7173 64.0688C32.0121 62.2149 21.7304 58.5645 14.5696 54.1637C10.9891 51.9632 8.19155 49.5768 6.38587 47.1362C4.58038 44.6958 3.76935 42.2054 4.15149 39.7927C4.53363 37.38 6.07452 35.2621 8.54578 33.4991C11.0173 31.7358 14.4153 30.3307 18.5006 29.3444C26.6708 27.3718 37.5774 27.0773 49.2825 28.9312Z" stroke="url(#paint18_linear_26_1377)" stroke-width="0.125"/>
<path d="M49.5887 28.9825C61.2597 31.0404 71.4761 34.8697 78.559 39.3948C82.1006 41.6574 84.8561 44.0922 86.6189 46.564C88.3815 49.0356 89.1489 51.5397 88.7248 53.9454C88.3006 56.3511 86.7229 58.4417 84.2213 60.1614C81.7194 61.8812 78.2974 63.2268 74.1955 64.1417C65.9921 65.9713 55.0821 66.0755 43.4111 64.0176C31.7401 61.9596 21.5236 58.1304 14.4407 53.6053C10.8991 51.3427 8.14368 48.9078 6.38087 46.436C4.61824 43.9645 3.8508 41.4603 4.27499 39.0546C4.69917 36.649 6.27679 34.5583 8.77845 32.8387C11.2804 31.1189 14.7024 29.7733 18.8042 28.8584C27.0077 27.0287 37.9177 26.9246 49.5887 28.9825Z" stroke="url(#paint19_linear_26_1377)" stroke-width="0.125"/>
<path d="M49.8938 29.0391C61.5271 31.3004 71.6751 35.3074 78.678 39.9554C82.1796 42.2795 84.8921 44.7621 86.6115 47.2643C88.3307 49.7662 89.0543 52.2834 88.5882 54.6813C88.1221 57.0792 86.5082 59.142 83.977 60.8177C81.4454 62.4936 78.0004 63.7792 73.8832 64.6224C65.6491 66.3086 54.7389 66.2223 43.1056 63.961C31.4723 61.6998 21.3243 57.6928 14.3214 53.0448C10.8199 50.7207 8.10733 48.2381 6.38793 45.7359C4.6687 43.234 3.94509 40.7168 4.41119 38.3189C4.87729 35.921 6.49117 33.8582 9.02245 32.1825C11.554 30.5066 14.999 29.2209 19.1162 28.3778C27.3503 26.6915 38.2605 26.7778 49.8938 29.0391Z" stroke="url(#paint20_linear_26_1377)" stroke-width="0.125"/>
<path d="M50.1981 29.1009C61.7902 31.5649 71.8667 35.7484 78.7874 40.5179C82.2479 42.9028 84.9167 45.4323 86.5921 47.9641C88.2674 50.4957 88.947 53.0251 88.4391 55.4145C87.9313 57.8039 86.2816 59.8382 83.7215 61.4695C81.1611 63.1009 77.6942 64.3263 73.5629 65.0975C65.3006 66.6397 54.3936 66.363 42.8015 63.8991C31.2095 61.4351 21.1329 57.2516 14.2122 52.4821C10.7517 50.0972 8.08296 47.5677 6.40749 45.0359C4.73219 42.5043 4.05262 39.9749 4.5605 37.5855C5.06838 35.1961 6.71801 33.1618 9.27815 31.5305C11.8385 29.8991 15.3055 28.6737 19.4368 27.9025C27.699 26.3603 38.606 26.637 50.1981 29.1009Z" stroke="url(#paint21_linear_26_1377)" stroke-width="0.125"/>
<path d="M50.5011 29.1681C62.0484 31.834 72.0504 36.1928 78.8868 41.0823C82.3051 43.5272 84.9293 46.1029 86.5604 48.6636C88.1912 51.224 88.8265 53.7649 88.277 56.1451C87.7275 58.5252 86.0427 60.5305 83.4544 62.1168C80.8659 63.7033 77.3782 64.868 73.2341 65.5669C64.9461 66.9648 54.0456 66.4978 42.4983 63.8319C30.951 61.166 20.949 56.8072 14.1126 51.9177C10.6943 49.4728 8.07004 46.8971 6.43901 44.3364C4.80815 41.776 4.17282 39.2351 4.72233 36.8549C5.27184 34.4748 6.95671 32.4695 9.54494 30.8832C12.1334 29.2967 15.6212 28.132 19.7653 27.4331C28.0533 26.0352 38.9538 26.5022 50.5011 29.1681Z" stroke="url(#paint22_linear_26_1377)" stroke-width="0.125"/>
<path d="M50.8035 29.2406C62.3025 32.1076 72.2269 36.6402 78.9769 41.6484C82.3521 44.1525 84.9309 46.7737 86.517 49.3624C88.103 51.9509 88.6939 54.5025 88.1029 56.8727C87.5119 59.2429 85.7923 61.2184 83.1768 62.7594C80.561 64.3005 77.0535 65.4041 72.8978 66.0306C64.5867 67.2836 53.696 66.6264 42.197 63.7594C30.698 60.8923 20.7735 56.3597 14.0235 51.3516C10.6484 48.8474 8.06951 46.2263 6.48342 43.6376C4.89749 41.0491 4.3066 38.4975 4.89757 36.1273C5.48853 33.7571 7.20815 31.7815 9.82366 30.2406C12.4394 28.6995 15.947 27.5959 20.1027 26.9694C28.4138 25.7164 39.3045 26.3736 50.8035 29.2406Z" stroke="url(#paint23_linear_26_1377)" stroke-width="0.125"/>
<path d="M51.1038 29.3184C62.551 32.3857 72.3948 37.0908 79.0564 42.216C82.3873 44.7787 84.92 47.4444 86.4607 50.0604C88.0012 52.6762 88.5475 55.2377 87.9153 57.5973C87.283 59.9568 85.5292 61.902 82.8872 63.3971C80.2449 64.8923 76.7186 65.9345 72.5526 66.4884C64.2209 67.5961 53.3434 66.749 41.8961 63.6817C30.4489 60.6145 20.6051 55.9093 13.9435 50.7841C10.6126 48.2215 8.07986 45.5557 6.5392 42.9397C4.99868 40.3239 4.45242 37.7624 5.08466 35.4029C5.71689 33.0433 7.47073 31.0981 10.1127 29.6031C12.755 28.1078 16.2813 27.0656 20.4473 26.5117C28.779 25.404 39.6565 26.2511 51.1038 29.3184Z" stroke="url(#paint24_linear_26_1377)" stroke-width="0.125"/>
<path d="M51.4033 29.4013C62.7952 32.6679 72.5554 37.5441 79.1265 42.7848C82.4122 45.4052 84.898 48.1147 86.3928 50.7572C87.8874 53.3995 88.3889 55.9701 87.7156 58.3183C87.0423 60.6665 85.2548 62.5808 82.5871 64.0295C79.9191 65.4783 76.3752 66.4589 72.2001 66.94C63.8504 67.9021 52.9893 66.8653 41.5973 63.5987C30.2054 60.3321 20.4452 55.4559 13.874 50.2152C10.5884 47.5948 8.10253 44.8853 6.60775 42.2428C5.11312 39.6005 4.61164 37.0298 5.28497 34.6817C5.95829 32.3335 7.7458 30.4192 10.4135 28.9705C13.0815 27.5216 16.6254 26.5411 20.8004 26.06C29.1502 25.0979 40.0113 26.1347 51.4033 29.4013Z" stroke="url(#paint25_linear_26_1377)" stroke-width="0.125"/>
<path d="M51.7004 29.4895C63.0336 32.9544 72.7072 38.0002 79.1858 43.3548C82.4253 46.0321 84.8635 48.7846 86.3119 51.4528C87.7602 54.1208 88.2167 56.6998 87.5025 59.0358C86.7883 61.3719 84.9677 63.2547 82.2751 64.6566C79.5822 66.0587 76.0217 66.9773 71.8389 67.3854C63.4737 68.2017 52.6323 66.9755 41.2991 63.5105C29.9659 60.0456 20.2923 54.9998 13.8136 49.6453C10.5742 46.9679 8.136 44.2154 6.68756 41.5472C5.23928 38.8793 4.78274 36.3003 5.49694 33.9642C6.21114 31.6282 8.03179 29.7454 10.7244 28.3434C13.4172 26.9413 16.9777 26.0228 21.1605 25.6146C29.5258 24.7983 40.3672 26.0246 51.7004 29.4895Z" stroke="url(#paint26_linear_26_1377)" stroke-width="0.125"/>
<path d="M51.9964 29.5828C63.2674 33.245 72.8515 38.4588 79.2358 43.9256C82.428 46.6591 84.8177 49.4538 86.2194 52.1468C87.6209 54.8396 88.0323 57.4262 87.2775 59.7495C86.5226 62.0727 84.6694 63.9234 81.9527 65.2782C79.2358 66.6331 75.6598 67.4893 71.4706 67.8244C63.0923 68.4946 52.274 67.0793 41.003 63.4171C29.732 59.755 20.1479 54.5411 13.7637 49.0743C10.5715 46.3408 8.1817 43.5462 6.78006 40.8531C5.37855 38.1603 4.9671 35.5737 5.72196 33.2505C6.47682 30.9272 8.33005 29.0765 11.0467 27.7218C13.7636 26.3669 17.3396 25.5106 21.5289 25.1755C29.9071 24.5053 40.7254 25.9206 51.9964 29.5828Z" stroke="url(#paint27_linear_26_1377)" stroke-width="0.125"/>
<path d="M52.2909 29.6813C63.4963 33.5397 72.9879 38.92 79.2757 44.4974C82.4198 47.2862 84.7604 50.1221 86.1148 52.8392C87.4691 55.5561 87.8353 58.1495 87.0401 60.4591C86.2448 62.7688 84.3595 64.587 81.6196 65.8941C78.8795 67.2013 75.2891 67.9951 71.0946 68.257C62.706 68.7808 51.914 67.177 40.7086 63.3187C29.5032 59.4603 20.0116 54.08 13.7238 48.5026C10.5797 45.7138 8.23912 42.8779 6.88469 40.1608C5.5304 37.4439 5.16415 34.8505 5.95944 32.5408C6.75473 30.2312 8.63998 28.413 11.3798 27.1059C14.12 25.7986 17.7104 25.0049 21.9049 24.743C30.2935 24.2192 41.0855 25.823 52.2909 29.6813Z" stroke="url(#paint28_linear_26_1377)" stroke-width="0.125"/>
<path d="M52.5836 29.785C63.7199 33.8383 73.1162 39.3835 79.3057 45.0698C82.4006 47.913 84.6914 50.7893 85.9982 53.5297C87.3049 56.2698 87.6258 58.8691 86.7903 61.1646C85.9548 63.4601 84.0381 65.245 81.2759 66.5041C78.5133 67.7634 74.9096 68.4943 70.7112 68.683C62.3147 69.0603 51.5524 67.2684 40.416 63.2151C29.2797 59.1618 19.8834 53.6166 13.6939 47.9304C10.599 45.0871 8.30822 42.2108 7.00142 39.4704C5.69474 36.7303 5.37381 34.131 6.20929 31.8355C7.04477 29.54 8.96147 27.7551 11.7237 26.496C14.4863 25.2368 18.09 24.5058 22.2884 24.3171C30.6849 23.9398 41.4472 25.7317 52.5836 29.785Z" stroke="url(#paint29_linear_26_1377)" stroke-width="0.125"/>
<path d="M52.8744 29.8937C63.9383 34.1407 73.2364 39.8491 79.3258 45.6425C82.3706 48.5393 84.6108 51.4552 85.8696 54.2179C87.1282 56.9804 87.4037 59.585 86.5283 61.8655C85.6529 64.146 83.7053 65.8973 80.9215 67.108C78.1374 68.3188 74.5215 68.9867 70.3205 69.1021C61.9186 69.3329 51.1892 67.3534 40.1253 63.1063C29.0614 58.8593 19.7633 53.151 13.674 47.3576C10.6292 44.4607 8.38896 41.5449 7.13018 38.7821C5.87153 36.0196 5.59601 33.4151 6.47142 31.1345C7.34684 28.854 9.29439 27.1028 12.0782 25.8921C14.8623 24.6812 18.4782 24.0133 22.6793 23.8979C31.0811 23.6672 41.8105 25.6467 52.8744 29.8937Z" stroke="url(#paint30_linear_26_1377)" stroke-width="0.125"/>
<path d="M53.1633 30.0075C64.1514 34.447 73.3485 40.3167 79.3358 46.2155C82.3296 49.165 84.5186 52.1195 85.7289 54.9038C86.9392 57.6878 87.1692 60.2968 86.2541 62.5617C85.339 64.8266 83.3612 66.5436 80.5567 67.7055C77.7519 68.8676 74.1249 69.4723 69.9224 69.5144C61.5179 69.5985 50.8246 67.432 39.8365 62.9925C28.8484 58.5531 19.6514 52.6833 13.6641 46.7845C10.6703 43.835 8.48131 40.8805 7.27094 38.0962C6.06069 35.3122 5.83067 32.7032 6.74575 30.4383C7.66083 28.1734 9.63865 26.4564 12.4432 25.2945C15.248 24.1324 18.875 23.5277 23.0774 23.4856C31.482 23.4015 42.1753 25.568 53.1633 30.0075Z" stroke="url(#paint31_linear_26_1377)" stroke-width="0.125"/>
<path d="M53.4502 30.1263C64.3592 34.7569 73.4524 40.7862 79.3358 46.7886C82.2777 49.7899 84.4148 52.7822 85.5764 55.5872C86.7378 58.3919 86.9223 61.0045 85.9678 63.2531C85.0133 65.5017 83.0059 67.1839 80.1815 68.2967C77.3568 69.4096 73.7198 69.951 69.5173 69.9197C61.1125 69.8571 50.4587 67.5043 39.5498 62.8737C28.6408 58.2432 19.5476 52.2138 13.6642 46.2114C10.7223 43.2101 8.58524 40.2178 7.42365 37.4128C6.26217 34.6081 6.07771 31.9955 7.03218 29.7469C7.98666 27.4983 9.99414 25.8161 12.8185 24.7033C15.6432 23.5904 19.2802 23.0491 23.4827 23.0804C31.8875 23.1429 42.5413 25.4957 53.4502 30.1263Z" stroke="url(#paint32_linear_26_1377)" stroke-width="0.125"/>
<path d="M53.735 30.25C64.5615 35.0703 73.548 41.2574 79.3259 47.3616C82.2149 50.4138 84.2994 53.4429 85.4119 56.2677C86.5242 59.0923 86.663 61.7077 85.6695 63.9393C84.6759 66.1709 82.6394 67.8178 79.796 68.8812C76.9524 69.9446 73.3065 70.4224 69.1051 70.3178C60.7027 70.1085 50.0916 67.5702 39.2651 62.7499C28.4387 57.9296 19.4521 51.7425 13.6743 45.6384C10.7853 42.5862 8.70071 39.557 7.58825 36.7322C6.4759 33.9076 6.33707 31.2922 7.33064 29.0606C8.3242 26.829 10.3607 25.1821 13.2041 24.1188C16.0477 23.0553 19.6937 22.5776 23.895 22.6822C32.2974 22.8914 42.9085 25.4298 53.735 30.25Z" stroke="url(#paint33_linear_26_1377)" stroke-width="0.125"/>
<path d="M54.0176 30.3788C64.7582 35.3873 73.6355 41.7303 79.3059 47.9344C82.1412 51.0365 84.1725 54.1016 85.2355 56.9454C86.2984 59.7889 86.3916 62.4064 85.3592 64.6203C84.3269 66.8342 82.2619 68.4453 79.4004 69.4589C76.5386 70.4726 72.8849 70.8866 68.686 70.7087C60.2886 70.3528 49.7234 67.6297 38.9827 62.6212C28.242 57.6127 19.3648 51.2697 13.6944 45.0656C10.8591 41.9635 8.8277 38.8984 7.7647 36.0546C6.70182 33.2111 6.60865 30.5936 7.64102 28.3797C8.67338 26.1658 10.7384 24.5547 13.5998 23.5411C16.4616 22.5275 20.1153 22.1134 24.3142 22.2913C32.7117 22.6472 43.2769 25.3704 54.0176 30.3788Z" stroke="url(#paint34_linear_26_1377)" stroke-width="0.125"/>
<path d="M54.2978 30.5125C64.9495 35.7076 73.7146 42.2046 79.2759 48.5067C82.0566 51.6578 84.0342 54.7579 85.0474 57.6198C86.0605 60.4815 86.108 63.1002 85.0371 65.2957C83.9663 67.4913 81.8735 69.0661 78.9948 70.0296C76.1157 70.9931 72.4554 71.3434 68.2602 71.0922C59.8702 70.5898 49.3542 67.6827 38.7025 62.4875C28.0509 57.2924 19.2857 50.7954 13.7245 44.4933C10.9437 41.3421 8.96617 38.2421 7.95297 35.3802C6.93987 32.5185 6.8924 29.8998 7.96325 27.7043C9.03409 25.5087 11.1269 23.9339 14.0056 22.9704C16.8846 22.0068 20.545 21.6566 24.7401 21.9078C33.1301 22.4102 43.6462 25.3173 54.2978 30.5125Z" stroke="url(#paint35_linear_26_1377)" stroke-width="0.125"/>
<path d="M54.5753 30.651C65.1346 36.0313 73.7851 42.6802 79.2355 49.0784C81.9608 52.2777 83.884 55.4117 84.8471 58.2909C85.8101 61.1698 85.8118 63.7889 84.7028 65.9655C83.5938 68.142 81.4739 69.68 78.5788 70.5931C75.6834 71.5063 72.0174 71.7926 67.8273 71.4682C59.4474 70.8195 48.9837 67.7293 38.4243 62.3491C27.865 56.9688 19.2145 50.3198 13.7641 43.9216C11.0388 40.7224 9.1156 37.5884 8.1525 34.7092C7.1895 31.8303 7.18774 29.2112 8.29674 27.0346C9.40574 24.8581 11.5257 23.32 14.4208 22.4069C17.3162 21.4938 20.9821 21.2075 25.1722 21.5318C33.5522 22.1806 44.0159 25.2708 54.5753 30.651Z" stroke="url(#paint36_linear_26_1377)" stroke-width="0.125"/>
<path d="M54.8508 30.7943C65.3146 36.358 73.8477 43.157 79.1856 49.6493C81.8547 52.8956 83.7229 56.0628 84.6356 58.9583C85.5482 61.8536 85.5042 64.4723 84.3574 66.6292C83.2106 68.786 81.0641 70.2868 78.1535 71.1493C75.2426 72.0118 71.5723 72.2341 67.3884 71.8366C59.0211 71.0417 48.6129 67.7694 38.1491 62.2056C27.6852 56.6419 19.1521 49.843 13.8142 43.3507C11.1451 40.1044 9.27695 36.9372 8.36425 34.0416C7.45164 31.1464 7.49559 28.5276 8.64241 26.3708C9.78922 24.2139 11.9357 22.7131 14.8463 21.8507C17.7572 20.9882 21.4276 20.7659 25.6114 21.1634C33.9787 21.9582 44.3869 25.2306 54.8508 30.7943Z" stroke="url(#paint37_linear_26_1377)" stroke-width="0.125"/>
<path d="M55.1238 30.9425C65.4889 36.688 73.9021 43.6348 79.1259 50.2193C81.7379 53.5117 83.5505 56.7109 84.4125 59.622C85.2745 62.5327 85.1848 65.1503 84.0005 67.2868C82.8162 69.4233 80.6439 70.8864 77.7187 71.6979C74.7932 72.5095 71.1195 72.6677 66.9433 72.1973C58.5911 71.2565 48.2416 67.803 37.8764 62.0575C27.5113 56.312 19.0981 49.3652 13.8743 42.7807C11.2623 39.4883 9.4497 36.289 8.58767 33.378C7.72572 30.4672 7.81537 27.8497 8.99966 25.7132C10.1839 23.5766 12.3563 22.1135 15.2815 21.302C18.207 20.4904 21.8807 20.3323 26.0569 20.8027C34.4091 21.7435 44.7586 25.197 55.1238 30.9425Z" stroke="url(#paint38_linear_26_1377)" stroke-width="0.125"/>
<path d="M55.3937 31.0953C65.6571 37.0209 73.9477 44.1134 79.0558 50.7881C81.6099 54.1256 83.3664 57.356 84.1775 60.2816C84.9885 63.207 84.8532 65.8226 83.6318 67.9381C82.4104 70.0536 80.2129 71.4786 77.274 72.2389C74.3347 72.9993 70.6588 73.0934 66.4914 72.5502C58.1569 71.4638 47.8693 67.8302 37.606 61.9046C27.3427 55.9791 19.0521 48.8865 13.944 42.2119C11.3898 38.8744 9.63333 35.644 8.82223 32.7183C8.01122 29.793 8.14654 27.1774 9.36793 25.0619C10.5893 22.9463 12.7868 21.5213 15.7258 20.761C18.665 20.0006 22.3409 19.9066 26.5083 20.4498C34.8428 21.5362 45.1304 25.1698 55.3937 31.0953Z" stroke="url(#paint39_linear_26_1377)" stroke-width="0.125"/>
<path d="M55.6611 31.2529C65.8195 37.3566 73.985 44.5928 78.9759 51.3556C81.4714 54.7372 83.1712 57.9978 83.9311 60.9371C84.691 63.8762 84.51 66.489 83.2519 68.5829C81.9938 70.6768 79.7717 72.0632 76.82 72.7721C73.8679 73.4811 70.1909 73.511 66.0337 72.8951C57.7194 71.6634 47.4967 67.8508 37.3384 61.7471C27.1801 55.6433 19.0145 48.4072 14.0237 41.6443C11.5281 38.2628 9.8283 35.0022 9.06839 32.0629C8.30855 29.1238 8.4895 26.5109 9.74763 24.4171C11.0058 22.3232 13.2278 20.9368 16.1796 20.2279C19.1316 19.5189 22.8086 19.489 26.9659 20.1049C35.2801 21.3366 45.5028 25.1492 55.6611 31.2529Z" stroke="url(#paint40_linear_26_1377)" stroke-width="0.125"/>
<path d="M55.9264 31.4151C65.9766 37.6952 74.0147 45.0728 78.8867 51.9217C81.3228 55.3463 82.9655 58.636 83.674 61.5882C84.3824 64.5401 84.1559 67.1494 82.8614 69.221C81.567 71.2925 79.321 72.64 76.3574 73.2973C73.3934 73.9546 69.7165 73.9203 65.5706 73.232C57.279 71.8554 47.1245 67.865 37.0742 61.5849C27.024 55.3048 18.9859 47.9272 14.1139 41.0783C11.6778 37.6537 10.0351 34.364 9.32658 31.4118C8.61816 28.4599 8.84468 25.8506 10.1392 23.779C11.4336 21.7074 13.6796 20.36 16.6432 19.7027C19.6072 19.0454 23.2841 19.0797 27.43 19.768C35.7215 21.1446 45.8761 25.135 55.9264 31.4151Z" stroke="url(#paint41_linear_26_1377)" stroke-width="0.125"/>
<path d="M56.1879 31.5819C66.1271 38.0365 74.0351 45.5532 78.7869 52.4861C81.1629 55.9526 82.7479 59.2706 83.4048 62.2347C84.0616 65.1984 83.7895 67.8034 82.4591 69.8521C81.1287 71.9008 78.8596 73.2088 75.8849 73.8143C72.9099 74.4198 69.2341 74.3213 65.1009 73.5608C56.8346 72.0396 46.7512 67.8726 36.8121 61.4181C26.873 54.9635 18.9649 47.4468 14.2132 40.5139C11.8372 37.0473 10.2522 33.7294 9.59531 30.7653C8.93851 27.8015 9.21053 25.1966 10.541 23.1479C11.8714 21.0992 14.1405 19.7912 17.1152 19.1857C20.0902 18.5802 23.766 18.6787 27.8992 19.4392C36.1654 20.9603 46.2488 25.1274 56.1879 31.5819Z" stroke="url(#paint42_linear_26_1377)" stroke-width="0.125"/>
<path d="M56.4468 31.7533C66.2718 38.3803 74.0474 46.0339 78.6775 53.0487C80.9926 56.5562 82.5195 59.9012 83.1245 62.8763C83.7295 65.8511 83.412 68.4509 82.046 70.4761C80.6801 72.5013 78.3885 73.7695 75.4037 74.323C72.4186 74.8765 68.7451 74.7139 64.6257 73.8813C56.3873 72.2161 46.3782 67.8737 36.5532 61.2467C26.7283 54.6197 18.9526 46.9661 14.3225 39.9513C12.0074 36.4438 10.4805 33.0987 9.87551 30.1236C9.27053 27.1488 9.58798 24.549 10.954 22.5239C12.32 20.4987 14.6115 19.2305 17.5963 18.677C20.5815 18.1235 24.2549 18.2861 28.3743 19.1187C36.6127 20.7839 46.6218 25.1263 56.4468 31.7533Z" stroke="url(#paint43_linear_26_1377)" stroke-width="0.125"/>
<path d="M56.7024 31.9291C66.4102 38.7265 74.0511 46.5147 78.5581 53.6092C80.8116 57.1565 82.2799 60.5278 82.8329 63.513C83.3858 66.4979 83.0231 69.0917 81.6219 71.0928C80.2208 73.0938 77.9075 74.3218 74.9134 74.8231C71.9191 75.3244 68.249 75.0977 64.1448 74.1934C55.9367 72.3847 46.0049 67.8683 36.2971 61.0708C26.5893 54.2733 18.9484 46.4852 14.4415 39.3907C12.1879 35.8433 10.7197 32.4721 10.1667 29.4869C9.61369 26.502 9.97645 23.9081 11.3776 21.9071C12.7787 19.9061 15.0921 18.6781 18.0861 18.1768C21.0804 17.6755 24.7505 17.9021 28.8547 18.8065C37.0628 20.6152 46.9946 25.1316 56.7024 31.9291Z" stroke="url(#paint44_linear_26_1377)" stroke-width="0.125"/>
<path d="M56.9552 32.1094C66.5429 39.0753 74.0468 46.9956 78.4292 54.1677C80.6205 57.7538 82.0297 61.1501 82.5305 64.1445C83.0313 67.1386 82.6233 69.7258 81.1875 71.702C79.7516 73.6783 77.4172 74.8658 74.4149 75.3147C71.4123 75.7637 67.7467 75.473 63.6589 74.4972C55.4836 72.5455 45.6322 67.8565 36.0445 60.8906C26.4568 53.9247 18.9529 46.0044 14.5705 38.8324C12.3792 35.2462 10.97 31.8499 10.4692 28.8555C9.9684 25.8614 10.3764 23.2742 11.8122 21.298C13.248 19.3217 15.5825 18.1342 18.5848 17.6853C21.5874 17.2363 25.253 17.527 29.3408 18.5028C37.5161 20.4545 47.3675 25.1435 56.9552 32.1094Z" stroke="url(#paint45_linear_26_1377)" stroke-width="0.125"/>
<path d="M57.2048 32.2941C66.6694 39.4262 74.0339 47.4763 78.2905 54.7237C80.4188 58.3476 81.7686 61.768 82.2171 64.7707C82.6655 67.7731 82.2124 70.3527 80.7423 72.3036C79.2722 74.2545 76.9174 75.4011 73.9077 75.7975C70.8977 76.1941 67.2378 75.8394 63.1677 74.7924C55.0277 72.6984 45.2595 67.8381 35.7949 60.706C26.3302 53.5738 18.9658 45.5237 14.7092 38.2763C12.5808 34.6524 11.2311 31.232 10.7826 28.2293C10.3341 25.227 10.7872 22.6473 12.2573 20.6964C13.7274 18.7455 16.0822 17.599 19.0919 17.2025C22.1019 16.806 25.7618 17.1606 29.832 18.2077C37.972 20.3017 47.7401 25.1619 57.2048 32.2941Z" stroke="url(#paint46_linear_26_1377)" stroke-width="0.125"/>
<path d="M57.451 32.483C66.7897 39.7793 74.0126 47.9566 78.142 55.2773C80.2068 58.9377 81.4967 62.3812 81.8927 65.3912C82.2887 68.401 81.7907 70.9723 80.2867 72.8973C78.7828 74.8222 76.4083 75.9275 73.3922 76.2714C70.3757 76.6153 66.7225 76.1969 62.6713 75.0789C54.5691 72.8432 44.8873 67.8132 35.5485 60.5169C26.2098 53.2207 18.9869 45.0433 14.8575 37.7227C12.7927 34.0622 11.5029 30.6188 11.1068 27.6087C10.7108 24.599 11.2089 22.0277 12.7128 20.1027C14.2167 18.1778 16.5912 17.0725 19.6073 16.7286C22.6238 16.3847 26.277 16.8031 30.3282 17.921C38.4304 20.1568 48.1123 25.1868 57.451 32.483Z" stroke="url(#paint47_linear_26_1377)" stroke-width="0.125"/>
<path d="M57.6944 32.6763C66.9044 40.1344 73.9834 48.4366 77.9845 55.8282C79.9851 59.5241 81.2146 62.9895 81.558 66.006C81.9014 69.0222 81.3586 71.5845 79.8213 73.4829C78.284 75.3813 75.8906 76.4449 72.8689 76.7362C69.8469 77.0274 66.2016 76.5453 62.1705 75.3568C54.1086 72.98 44.516 67.7817 35.306 60.3236C26.096 52.8655 19.017 44.5634 15.0159 37.1718C13.0153 33.4758 11.7858 30.0104 11.4424 26.9939C11.099 23.9777 11.6418 21.4154 13.1791 19.517C14.7164 17.6187 17.1098 16.555 20.1315 16.2638C23.1535 15.9725 26.7988 16.4547 30.8299 17.6431C38.8918 20.02 48.4844 25.2182 57.6944 32.6763Z" stroke="url(#paint48_linear_26_1377)" stroke-width="0.125"/>
<path d="M57.934 32.8738C67.0124 40.4915 73.9455 48.916 77.8169 56.3763C79.7527 60.1066 80.9216 63.5929 81.2123 66.615C81.503 69.6367 80.9156 72.1891 79.3454 74.0604C77.7752 75.9316 75.3636 76.9534 72.3373 77.1918C69.3106 77.4303 65.6743 76.8846 61.6645 75.6259C53.6453 73.1088 44.1449 67.7439 35.0665 60.1262C25.9881 52.5085 19.055 44.0841 15.1836 36.6238C13.2478 32.8935 12.0789 29.4071 11.7882 26.3851C11.4975 23.3633 12.0849 20.811 13.6551 18.9397C15.2253 17.0684 17.6369 16.0467 20.6632 15.8082C23.6898 15.5698 27.3262 16.1155 31.3359 17.3741C39.3552 19.8913 48.8556 25.2561 57.934 32.8738Z" stroke="url(#paint49_linear_26_1377)" stroke-width="0.125"/>
<path d="M58.1698 33.0754C67.1139 40.8504 73.8988 49.3946 77.6395 56.9213C79.5099 60.6848 80.6177 64.191 80.8557 67.2177C81.0936 70.244 80.4617 72.7858 78.8591 74.6294C77.2565 76.473 74.8274 77.4525 71.7974 77.638C68.7671 77.8236 65.1408 77.2146 61.1536 75.8861C53.1795 73.2294 43.7742 67.6996 34.8301 59.9246C25.886 52.1496 19.1011 43.6054 15.3604 36.0787C13.49 32.3152 12.3822 28.809 12.1442 25.7823C11.9063 22.756 12.5382 20.2142 14.1408 18.3706C15.7434 16.527 18.1725 15.5475 21.2025 15.362C24.2328 15.1764 27.8591 15.7854 31.8463 17.1139C39.8203 19.7706 49.2257 25.3004 58.1698 33.0754Z" stroke="url(#paint50_linear_26_1377)" stroke-width="0.125"/>
<path d="M58.4022 33.2811C67.2093 41.211 73.8441 49.8723 77.4528 57.4632C79.2572 61.2587 80.3037 64.7838 80.4888 67.8141C80.6739 70.8442 79.9977 73.3745 78.3632 75.1898C76.7286 77.0052 74.2828 77.9421 71.25 78.0748C68.2169 78.2075 64.6018 77.5352 60.6385 76.1374C52.712 73.3419 43.4046 67.6488 34.5975 59.7189C25.7905 51.789 19.1557 43.1277 15.5469 35.5368C13.7425 31.7413 12.6961 28.2162 12.511 25.1859C12.3259 22.1558 13.0021 19.6255 14.6366 17.8102C16.2711 15.9948 18.7169 15.0579 21.7497 14.9252C24.7828 14.7925 28.3979 15.4648 32.3613 16.8626C40.2878 19.6581 49.5952 25.3512 58.4022 33.2811Z" stroke="url(#paint51_linear_26_1377)" stroke-width="0.125"/>
<path d="M58.6314 33.4909C67.2987 41.5733 73.7813 50.349 77.257 58.0017C78.9949 61.8282 79.9797 65.3709 80.1119 68.4041C80.2441 71.4369 79.5238 73.955 77.8578 75.7416C76.1919 77.5281 73.7301 78.4222 70.6955 78.5019C67.6605 78.5817 64.0577 77.8464 60.1193 76.3797C52.2428 73.4462 43.0362 67.5915 34.3689 59.5092C25.7016 51.4268 19.219 42.651 15.7432 34.9983C14.0053 31.1718 13.0205 27.6291 12.8884 24.5959C12.7562 21.5631 13.4764 19.045 15.1424 17.2585C16.8084 15.4719 19.2701 14.5778 22.3048 14.4981C25.3397 14.4183 28.9426 15.1536 32.881 16.6204C40.7574 19.5538 49.9641 25.4085 58.6314 33.4909Z" stroke="url(#paint52_linear_26_1377)" stroke-width="0.125"/>
<path d="M58.8562 33.7045C67.3811 41.9369 73.7097 50.8245 77.0513 58.5367C78.7221 62.3929 79.6449 65.9523 79.7242 68.9873C79.8034 72.0219 79.0393 74.5271 77.3424 76.2843C75.6455 78.0415 73.1685 78.8925 70.1329 78.9193C67.0971 78.946 63.5076 78.148 59.5954 76.6127C51.7713 73.5423 42.6683 67.5278 34.1434 59.2954C25.6185 51.063 19.29 42.1754 15.9483 34.4632C14.2775 30.607 13.3547 27.0476 13.2754 24.0126C13.1962 20.978 13.9603 18.4728 15.6572 16.7156C17.3541 14.9584 19.8311 14.1074 22.8667 14.0806C25.9025 14.0539 29.492 14.8519 33.4042 16.3872C41.2283 19.4576 50.3313 25.4721 58.8562 33.7045Z" stroke="url(#paint53_linear_26_1377)" stroke-width="0.125"/>
<path d="M59.0778 33.9222C67.4578 42.3021 73.6302 51.2988 76.8367 59.0681C78.44 62.9529 79.3006 66.5279 79.3268 69.5638C79.3531 72.5993 78.5454 75.0908 76.8181 76.8181C75.0908 78.5454 72.5993 79.3531 69.5637 79.3269C66.5278 79.3006 62.9529 78.4401 59.0681 76.8368C51.2987 73.6303 42.3021 67.4578 33.9221 59.0779C25.5422 50.6979 19.3697 41.7012 16.1632 33.9319C14.5599 30.0471 13.6994 26.4722 13.6731 23.4363C13.6469 20.4007 14.4546 17.9092 16.1819 16.1819C17.9092 14.4546 20.4006 13.6469 23.4362 13.6732C26.4721 13.6994 30.0471 14.56 33.9319 16.1633C41.7012 19.3698 50.6979 25.5422 59.0778 33.9222Z" stroke="url(#paint54_linear_26_1377)" stroke-width="0.125"/>
<path d="M59.2957 34.1436C67.5281 42.6686 73.5426 51.7716 76.613 59.5957C78.1483 63.5079 78.9463 67.0973 78.9195 70.1332C78.8928 73.1688 78.0418 75.6458 76.2846 77.3427C74.5274 79.0396 72.0222 79.8036 68.9875 79.7244C65.9526 79.6452 62.3932 78.7224 58.5369 77.0515C50.8248 73.7099 41.9372 67.3814 33.7048 58.8565C25.4723 50.3316 19.4579 41.2285 16.3874 33.4044C14.8522 29.4922 14.0541 25.9028 14.0809 22.8669C14.1076 19.8313 14.9587 17.3544 16.7159 15.6575C18.473 13.9606 20.9782 13.1965 24.0129 13.2757C27.0478 13.3549 30.6072 14.2777 34.4635 15.9486C42.1757 19.2902 51.0632 25.6187 59.2957 34.1436Z" stroke="url(#paint55_linear_26_1377)" stroke-width="0.125"/>
<path d="M59.5093 34.3688C67.5917 43.0361 73.4464 52.2427 76.3798 60.1192C77.8466 64.0576 78.5818 67.6604 78.5021 70.6954C78.4224 73.73 77.5282 76.1918 75.7417 77.8577C73.9552 79.5237 71.437 80.244 68.4042 80.1118C65.3711 79.9796 61.8283 78.9948 58.0019 77.2569C50.3492 73.7812 41.5734 67.2986 33.491 58.6313C25.4086 49.9639 19.5539 40.7573 16.6205 32.8808C15.1538 28.9425 14.4185 25.3396 14.4982 22.3047C14.5779 19.27 15.4721 16.8083 17.2586 15.1423C19.0451 13.4763 21.5633 12.7561 24.5961 12.8883C27.6292 13.0204 31.172 14.0052 34.9985 15.7431C42.6511 19.2188 51.4269 25.7015 59.5093 34.3688Z" stroke="url(#paint56_linear_26_1377)" stroke-width="0.125"/>
<path d="M59.7188 34.5977C67.6487 43.4047 73.3418 52.7121 76.1373 60.6386C77.5351 64.602 78.2074 68.2171 78.0747 71.2502C77.942 74.2829 77.0051 76.7287 75.1897 78.3633C73.3744 79.9978 70.8441 80.674 67.814 80.4889C64.7837 80.3038 61.2586 79.2574 57.4631 77.4529C49.8722 73.8442 41.2109 67.2094 33.281 58.4023C25.3511 49.5953 19.658 40.2879 16.8625 32.3614C15.4647 28.398 14.7924 24.7829 14.9251 21.7498C15.0578 18.717 15.9947 16.2713 17.8101 14.6367C19.6254 13.0022 22.1557 12.326 25.1858 12.5111C28.2161 12.6962 31.7412 13.7426 35.5367 15.5471C43.1276 19.1558 51.7889 25.7906 59.7188 34.5977Z" stroke="url(#paint57_linear_26_1377)" stroke-width="0.125"/>
<path d="M59.9246 34.8302C67.6996 43.7743 73.2294 53.1796 75.8862 61.1537C77.2146 65.1409 77.8237 68.7672 77.6381 71.7975C77.4525 74.8275 76.473 77.2566 74.6294 78.8592C72.7858 80.4618 70.2441 81.0937 67.2177 80.8558C64.1911 80.6178 60.6848 79.51 56.9213 77.6396C49.3946 73.8989 40.8504 67.114 33.0754 58.1699C25.3005 49.2258 19.7706 39.8204 17.1139 31.8464C15.7855 27.8592 15.1764 24.2329 15.362 21.2026C15.5476 18.1726 16.5271 15.7435 18.3707 14.1409C20.2143 12.5383 22.756 11.9064 25.7824 12.1443C28.809 12.3823 32.3152 13.4901 36.0787 15.3605C43.6055 19.1012 52.1497 25.8861 59.9246 34.8302Z" stroke="url(#paint58_linear_26_1377)" stroke-width="0.125"/>
<path d="M60.1264 35.0663C67.7441 44.1447 73.1089 53.6451 75.6261 61.6643C76.8847 65.6741 77.4304 69.3104 77.192 72.337C76.9536 75.3634 75.9318 77.7749 74.0605 79.3451C72.1892 80.9153 69.6369 81.5028 66.6151 81.2121C63.5931 80.9213 60.1067 79.7525 56.3764 77.8167C48.9161 73.9452 40.4917 67.0122 32.874 57.9338C25.2563 48.8553 19.8914 39.3549 17.3743 31.3357C16.1156 27.326 15.5699 23.6896 15.8084 20.663C16.0468 17.6367 17.0686 15.2251 18.9399 13.6549C20.8111 12.0847 23.3635 11.4972 26.3853 11.7879C29.4073 12.0787 32.8937 13.2475 36.6239 15.1833C44.0842 19.0548 52.5087 25.9878 60.1264 35.0663Z" stroke="url(#paint59_linear_26_1377)" stroke-width="0.125"/>
<path d="M60.3237 35.3058C67.7818 44.5158 72.98 54.1084 75.3568 62.1704C76.5453 66.2015 77.0274 69.8468 76.7362 72.8688C76.445 75.8905 75.3813 78.2839 73.4829 79.8212C71.5845 81.3585 69.0222 81.9013 66.006 81.5579C62.9895 81.2144 59.5241 79.9849 55.8282 77.9843C48.4366 73.9833 40.1344 66.9042 32.6763 57.6943C25.2182 48.4843 20.02 38.8917 17.6431 30.8297C16.4547 26.7986 15.9725 23.1533 16.2638 20.1313C16.555 17.1096 17.6187 14.7162 19.5171 13.1789C21.4155 11.6416 23.9777 11.0988 26.9939 11.4422C30.0104 11.7857 33.4758 13.0152 37.1718 15.0158C44.5634 19.0168 52.8656 26.0959 60.3237 35.3058Z" stroke="url(#paint60_linear_26_1377)" stroke-width="0.125"/>
<path d="M60.5169 35.5488C67.8132 44.8876 72.8432 54.5694 75.0789 62.6716C76.1969 66.7228 76.6153 70.376 76.2714 73.3925C75.9275 76.4086 74.8222 78.7831 72.8973 80.287C70.9723 81.7909 68.401 82.289 65.3912 81.893C62.3812 81.497 58.9377 80.2071 55.2773 78.1423C47.9567 74.0129 39.7793 66.79 32.483 57.4513C25.1868 48.1126 20.1568 38.4307 17.921 30.3285C16.8031 26.2773 16.3847 22.6241 16.7286 19.6076C17.0725 16.5915 18.1778 14.217 20.1027 12.7131C22.0277 11.2092 24.599 10.7111 27.6087 11.1071C30.6188 11.5032 34.0622 12.793 37.7227 14.8578C45.0433 18.9872 53.2207 26.2101 60.5169 35.5488Z" stroke="url(#paint61_linear_26_1377)" stroke-width="0.125"/>
<path d="M60.7058 35.7951C67.838 45.2597 72.6982 55.0279 74.7923 63.1678C75.8393 67.238 76.1939 70.8979 75.7974 73.9079C75.4009 76.9176 74.2544 79.2724 72.3035 80.7425C70.3526 82.2126 67.7729 82.6657 64.7706 82.2172C61.7679 81.7687 58.3475 80.419 54.7236 78.2907C47.4762 74.0341 39.4261 66.6696 32.2939 57.2049C25.1618 47.7403 20.3015 37.9721 18.2075 29.8322C17.1605 25.762 16.8058 22.1021 17.2024 19.0921C17.5988 16.0824 18.7454 13.7276 20.6963 12.2575C22.6472 10.7874 25.2268 10.3343 28.2292 10.7828C31.2319 11.2313 34.6523 12.581 38.2762 14.7094C45.5236 18.9659 53.5737 26.3304 60.7058 35.7951Z" stroke="url(#paint62_linear_26_1377)" stroke-width="0.125"/>
<path d="M60.8909 36.0447C67.8567 45.6324 72.5458 55.4838 74.4974 63.6591C75.4733 67.7469 75.764 71.4125 75.315 74.4151C74.866 77.4174 73.6785 79.7518 71.7023 81.1877C69.726 82.6235 67.1389 83.0315 64.1448 82.5307C61.1504 82.0299 57.7541 80.6207 54.1679 78.4294C46.9958 74.0469 39.0755 66.5431 32.1097 56.9554C25.1438 47.3677 20.4547 37.5162 18.5031 29.341C17.5272 25.2532 17.2365 21.5876 17.6855 18.585C18.1345 15.5827 19.322 13.2482 21.2982 11.8124C23.2745 10.3766 25.8616 9.9686 28.8557 10.4694C31.8501 10.9702 35.2464 12.3794 38.8326 14.5707C46.0047 18.9531 53.925 26.457 60.8909 36.0447Z" stroke="url(#paint63_linear_26_1377)" stroke-width="0.125"/>
<path d="M61.0707 36.2974C67.8681 46.0052 72.3845 55.937 74.1932 64.1451C75.0976 68.2493 75.3243 71.9194 74.8229 74.9137C74.3216 77.9077 73.0936 80.2211 71.0926 81.6222C69.0916 83.0233 66.4977 83.3861 63.5128 82.8331C60.5276 82.2801 57.1564 80.8119 53.609 78.5583C46.5145 74.0514 38.7264 66.4105 31.9289 56.7027C25.1314 46.9949 20.615 37.063 18.8063 28.8549C17.902 24.7507 17.6753 21.0807 18.1766 18.0863C18.6779 15.0923 19.9059 12.779 21.907 11.3778C23.908 9.97671 26.5018 9.61394 29.4867 10.1669C32.4719 10.7199 35.8432 12.1882 39.3905 14.4417C46.485 18.9487 54.2732 26.5896 61.0707 36.2974Z" stroke="url(#paint64_linear_26_1377)" stroke-width="0.125"/>
<path d="M61.2467 36.5532C67.8738 46.3782 72.2161 56.3873 73.8813 64.6257C74.7139 68.7451 74.8765 72.4186 74.323 75.4037C73.7695 78.3885 72.5013 80.6801 70.4761 82.0461C68.451 83.4121 65.8512 83.7295 62.8764 83.1245C59.9013 82.5195 56.5562 80.9926 53.0487 78.6775C46.0339 74.0474 38.3803 66.2718 31.7533 56.4468C25.1263 46.6219 20.7839 36.6127 19.1188 28.3743C18.2862 24.255 18.1236 20.5815 18.6771 17.5964C19.2305 14.6115 20.4988 12.32 22.5239 10.954C24.5491 9.588 27.1489 9.27055 30.1237 9.87553C33.0988 10.4806 36.4439 12.0074 39.9514 14.3225C46.9661 18.9526 54.6197 26.7283 61.2467 36.5532Z" stroke="url(#paint65_linear_26_1377)" stroke-width="0.125"/>
<path d="M61.4178 36.8121C67.8723 46.7512 72.0393 56.8346 73.5604 65.1008C74.321 69.2341 74.4195 72.9098 73.814 75.8848C73.2085 78.8595 71.9005 81.1286 69.8518 82.459C67.8031 83.7895 65.1981 84.0615 62.2344 83.4047C59.2703 82.7478 55.9523 81.1628 52.4858 78.7869C45.5529 74.0351 38.0362 66.127 31.5816 56.1879C25.1271 46.2488 20.96 36.1654 19.4389 27.8992C18.6783 23.7659 18.5799 20.0901 19.1854 17.1151C19.7909 14.1404 21.0989 11.8714 23.1476 10.5409C25.1963 9.21048 27.8012 8.93846 30.765 9.59526C33.7291 10.2521 37.047 11.8371 40.5136 14.2131C47.4465 18.9649 54.9632 26.873 61.4178 36.8121Z" stroke="url(#paint66_linear_26_1377)" stroke-width="0.125"/>
<path d="M61.5847 37.0739C67.8648 47.1242 71.8553 57.2787 73.2319 65.5703C73.9202 69.7162 73.9545 73.3931 73.2972 76.357C72.6399 79.3207 71.2924 81.5667 69.2208 82.8611C67.1492 84.1556 64.5399 84.3821 61.5881 83.6737C58.6359 82.9652 55.3461 81.3225 51.9216 78.8864C45.0727 74.0144 37.6951 65.9763 31.415 55.9261C25.1349 45.8758 21.1445 35.7212 19.7679 27.4297C19.0795 23.2838 19.0452 19.6069 19.7026 16.6429C20.3599 13.6792 21.7073 11.4333 23.7789 10.1388C25.8505 8.84437 28.4598 8.61785 31.4117 9.32628C34.3638 10.0348 37.6536 11.6775 41.0782 14.1136C47.9271 18.9856 55.3047 27.0237 61.5847 37.0739Z" stroke="url(#paint67_linear_26_1377)" stroke-width="0.125"/>
<path d="M61.7473 37.3386C67.8511 47.497 71.6637 57.7196 72.8953 66.0339C73.5112 70.1912 73.4813 73.8682 72.7724 76.8202C72.0634 79.772 70.677 81.994 68.5831 83.2522C66.4893 84.5103 63.8764 84.6912 60.9374 83.9314C57.998 83.1715 54.7374 81.4716 51.3559 78.9761C44.5931 73.9853 37.3569 65.8197 31.2531 55.6614C25.1494 45.5031 21.3368 35.2804 20.1051 26.9661C19.4893 22.8088 19.5191 19.1319 20.2281 16.1798C20.937 13.2281 22.3235 11.006 24.4173 9.74789C26.5112 8.48976 29.124 8.30881 32.0631 9.06865C35.0025 9.82856 38.2631 11.5284 41.6446 14.0239C48.4074 19.0147 55.6436 27.1803 61.7473 37.3386Z" stroke="url(#paint68_linear_26_1377)" stroke-width="0.125"/>
<path d="M61.9046 37.6061C67.8301 47.8694 71.4637 58.1571 72.5501 66.4916C73.0933 70.659 72.9993 74.3349 72.2389 77.2741C71.4786 80.213 70.0536 82.4106 67.9381 83.6319C65.8226 84.8533 63.207 84.9887 60.2816 84.1776C57.356 83.3665 54.1255 81.6101 50.7881 79.0559C44.1134 73.9478 37.0208 65.6572 31.0953 55.3939C25.1698 45.1306 21.5362 34.8429 20.4498 26.5084C19.9065 22.341 20.0006 18.6652 20.761 15.7259C21.5213 12.787 22.9463 10.5895 25.0618 9.36807C27.1773 8.14668 29.7929 8.01136 32.7183 8.82237C35.6439 9.63347 38.8744 11.39 42.2118 13.9441C48.8865 19.0522 55.9791 27.3428 61.9046 37.6061Z" stroke="url(#paint69_linear_26_1377)" stroke-width="0.125"/>
<path d="M62.0576 37.8763C67.8031 48.2415 71.2567 58.591 72.1974 66.9432C72.6678 71.1194 72.5097 74.7931 71.6981 77.7186C70.8866 80.6438 69.4235 82.8161 67.2869 84.0004C65.1504 85.1847 62.5329 85.2744 59.6221 84.4124C56.7111 83.5504 53.5118 81.7378 50.2194 79.1258C43.6349 73.902 36.6881 65.4888 30.9426 55.1237C25.1971 44.7585 21.7436 34.409 20.8028 26.0568C20.3324 21.8806 20.4906 18.2069 21.3022 15.2814C22.1137 12.3562 23.5768 10.1838 25.7133 8.99956C27.8498 7.81528 30.4674 7.72563 33.3781 8.58757C36.2892 9.4496 39.4885 11.2622 42.7808 13.8742C49.3653 19.098 56.3121 27.5112 62.0576 37.8763Z" stroke="url(#paint70_linear_26_1377)" stroke-width="0.125"/>
<path d="M62.2056 38.1491C67.7693 48.613 71.0417 59.0212 71.8366 67.3885C72.234 71.5723 72.0117 75.2427 71.1492 78.1536C70.2868 81.0642 68.786 83.2106 66.6291 84.3575C64.4723 85.5043 61.8535 85.5482 58.9583 84.6356C56.0627 83.7229 52.8956 81.8548 49.6493 79.1857C43.1569 73.8478 36.358 65.3147 30.7943 54.8508C25.2306 44.387 21.9582 33.9788 21.1633 25.6114C20.7659 21.4276 20.9882 17.7573 21.8507 14.8463C22.7131 11.9357 24.2139 9.78928 26.3708 8.64246C28.5276 7.49564 31.1463 7.45169 34.0416 8.3643C36.9372 9.27701 40.1043 11.1452 43.3506 13.8142C49.843 19.1522 56.6419 27.6853 62.2056 38.1491Z" stroke="url(#paint71_linear_26_1377)" stroke-width="0.125"/>
<path d="M62.3491 38.4246C67.7293 48.9839 70.8195 59.4476 71.4683 67.8276C71.7926 72.0177 71.5063 75.6836 70.5932 78.579C69.6801 81.4741 68.142 83.5941 65.9655 84.7031C63.7889 85.8121 61.1698 85.8103 58.2909 84.8473C55.4117 83.8842 52.2777 81.9611 49.0785 79.2357C42.6803 73.7853 36.0313 65.1349 30.651 54.5755C25.2708 44.0162 22.1806 33.5524 21.5319 25.1725C21.2075 20.9824 21.4938 17.3165 22.407 14.421C23.32 11.5259 24.8581 9.40599 27.0346 8.29699C29.2112 7.18799 31.8303 7.18975 34.7092 8.15275C37.5884 9.11585 40.7224 11.039 43.9217 13.7643C50.3199 19.2147 56.9688 27.8652 62.3491 38.4246Z" stroke="url(#paint72_linear_26_1377)" stroke-width="0.125"/>
<path d="M62.4877 38.7023C67.6828 49.3539 70.5899 59.87 71.0923 68.26C71.3435 72.4551 70.9933 76.1155 70.0297 78.9945C69.0662 81.8733 67.4914 83.966 65.2958 85.0369C63.1003 86.1077 60.4816 86.0603 57.62 85.0472C54.758 84.034 51.658 82.0564 48.5068 79.2757C42.2047 73.7144 35.7077 64.9492 30.5126 54.2976C25.3174 43.6459 22.4103 33.1299 21.9079 24.7399C21.6568 20.5448 22.007 16.8844 22.9706 14.0054C23.934 11.1266 25.5088 9.03385 27.7044 7.96301C29.9 6.89216 32.5186 6.93963 35.3803 7.95273C38.2422 8.96593 41.3423 10.9435 44.4934 13.7242C50.7955 19.2855 57.2925 28.0507 62.4877 38.7023Z" stroke="url(#paint73_linear_26_1377)" stroke-width="0.125"/>
<path d="M62.621 38.9825C67.6295 49.7232 70.3526 60.2884 70.7085 68.6859C70.8864 72.8848 70.4724 76.5385 69.4587 79.4002C68.4451 82.2617 66.834 84.3267 64.6201 85.359C62.4062 86.3914 59.7888 86.2982 56.9452 85.2354C54.1014 84.1724 51.0364 82.141 47.9342 79.3057C41.7301 73.6353 35.3871 64.7581 30.3786 54.0174C25.3702 43.2767 22.647 32.7115 22.2912 24.314C22.1132 20.1151 22.5273 16.4614 23.541 13.5997C24.5545 10.7382 26.1656 8.67321 28.3795 7.64085C30.5935 6.60849 33.2109 6.70165 36.0544 7.76454C38.8983 8.82753 41.9633 10.8589 45.0655 13.6942C51.2695 19.3646 57.6126 28.2418 62.621 38.9825Z" stroke="url(#paint74_linear_26_1377)" stroke-width="0.125"/>
<path d="M62.7498 39.2651C67.57 50.0916 70.1083 60.7027 70.3176 69.1051C70.4222 73.3064 69.9445 76.9523 68.881 79.796C67.8177 82.6393 66.1708 84.6759 63.9392 85.6695C61.7076 86.663 59.0922 86.5242 56.2676 85.4118C53.4428 84.2994 50.4136 82.2148 47.3614 79.3258C41.2573 73.548 35.0701 64.5614 30.2499 53.735C25.4296 42.9085 22.8913 32.2974 22.682 23.895C22.5774 19.6936 23.0552 16.0477 24.1186 13.2041C25.182 10.3607 26.8289 8.32418 29.0605 7.33062C31.2921 6.33705 33.9075 6.47588 36.732 7.58823C39.5569 8.70069 42.586 10.7852 45.6382 13.6742C51.7424 19.4521 57.9295 28.4386 62.7498 39.2651Z" stroke="url(#paint75_linear_26_1377)" stroke-width="0.125"/>
<path d="M62.8735 39.5498C67.5041 50.4587 69.8568 61.1125 69.9194 69.5173C69.9507 73.7199 69.4094 77.3569 68.2965 80.1815C67.1837 83.0059 65.5015 85.0134 63.2529 85.9679C61.0043 86.9223 58.3917 86.7379 55.587 85.5764C52.782 84.4148 49.7897 82.2777 46.7884 79.3359C40.786 73.4524 34.7566 64.3592 30.1261 53.4503C25.4955 42.5413 23.1427 31.8875 23.0801 23.4828C23.0488 19.2802 23.5902 15.6432 24.7031 12.8185C25.8159 9.99418 27.4981 7.98669 29.7467 7.03222C31.9953 6.07775 34.6079 6.2622 37.4126 7.42368C40.2176 8.58528 43.2099 10.7224 46.2112 13.6642C52.2136 19.5477 58.2429 28.6409 62.8735 39.5498Z" stroke="url(#paint76_linear_26_1377)" stroke-width="0.125"/>
<path d="M62.9924 39.8367C67.4319 50.8247 69.5984 61.518 69.5143 69.9226C69.4722 74.125 68.8675 77.752 67.7054 80.5568C66.5435 83.3613 64.8265 85.3392 62.5616 86.2543C60.2967 87.1693 57.6877 86.9393 54.9037 85.7291C52.1194 84.5187 49.1649 82.3297 46.2154 79.3359C40.3165 73.3486 34.4468 64.1516 30.0074 53.1635C25.5679 42.1754 23.4014 31.4821 23.4855 23.0776C23.5276 18.8751 24.1323 15.2481 25.2943 12.4433C26.4563 9.63878 28.1732 7.66096 30.4381 6.74588C32.7031 5.8308 35.312 6.06082 38.0961 7.27107C40.8803 8.48144 43.8349 10.6704 46.7844 13.6642C52.6832 19.6515 58.5529 28.8486 62.9924 39.8367Z" stroke="url(#paint77_linear_26_1377)" stroke-width="0.125"/>
<path d="M63.1061 40.1255C67.3531 51.1894 69.3327 61.9188 69.1019 70.3206C68.9865 74.5217 68.3186 78.1376 67.1077 80.9217C65.897 83.7055 64.1458 85.653 61.8653 86.5285C59.5847 87.4039 56.9802 87.1284 54.2177 85.8697C51.455 84.6109 48.5391 82.3707 45.6423 79.3259C39.8488 73.2366 34.1405 63.9385 29.8935 52.8746C25.6465 41.8107 23.6669 31.0813 23.8977 22.6794C24.0131 18.4784 24.681 14.8624 25.8919 12.0784C27.1026 9.29454 28.8538 7.34698 31.1343 6.47157C33.4149 5.59615 36.0194 5.87167 38.7819 7.13033C41.5446 8.38911 44.4605 10.6293 47.3573 13.6741C53.1508 19.7635 58.8591 29.0616 63.1061 40.1255Z" stroke="url(#paint78_linear_26_1377)" stroke-width="0.125"/>
<path d="M63.2152 40.4162C67.2685 51.5526 69.0605 62.3149 68.6831 70.7114C68.4944 74.9099 67.7635 78.5136 66.5043 81.2761C65.2452 84.0384 63.4602 85.9551 61.1648 86.7905C58.8693 87.626 56.2699 87.3051 53.5298 85.9984C50.7895 84.6916 47.9132 82.4008 45.0699 79.306C39.3836 73.1164 33.8385 63.7201 29.7852 52.5838C25.7319 41.4475 23.9399 30.6851 24.3173 22.2886C24.506 18.0902 25.2369 14.4865 26.4961 11.7239C27.7553 8.96168 29.5402 7.04498 31.8357 6.2095C34.1311 5.37402 36.7305 5.69495 39.4706 7.00163C42.2109 8.30843 45.0873 10.5992 47.9305 13.6941C53.6168 19.8836 59.1619 29.2799 63.2152 40.4162Z" stroke="url(#paint79_linear_26_1377)" stroke-width="0.125"/>
<path d="M63.319 40.7088C67.1773 51.9142 68.7812 62.7062 68.2573 71.0948C67.9954 75.2893 67.2017 78.8797 65.8944 81.6199C64.5873 84.3597 62.7692 86.245 60.4595 87.0403C58.1498 87.8356 55.5564 87.4693 52.8395 86.115C50.1224 84.7606 47.2865 82.42 44.4977 79.2759C38.9203 72.9881 33.54 63.4965 29.6817 52.2911C25.8233 41.0857 24.2195 30.2937 24.7433 21.9051C25.0053 17.7106 25.799 14.1202 27.1062 11.3801C28.4133 8.6402 30.2315 6.75495 32.5412 5.95965C34.8509 5.16436 37.4442 5.53061 40.1611 6.88491C42.8782 8.23934 45.7141 10.58 48.5029 13.724C54.0803 20.0118 59.4607 29.5035 63.319 40.7088Z" stroke="url(#paint80_linear_26_1377)" stroke-width="0.125"/>
<path d="M63.417 41.0033C67.0792 52.2743 68.4944 63.0927 67.8243 71.4709C67.4892 75.6602 66.6329 79.2362 65.278 81.9531C63.9233 84.6697 62.0725 86.523 59.7493 87.2778C57.4261 88.0327 54.8395 87.6212 52.1467 86.2197C49.4536 84.8181 46.659 82.4283 43.9255 79.2361C38.4587 72.8519 33.2448 63.2678 29.5826 51.9968C25.9205 40.7258 24.5052 29.9075 25.1754 21.5292C25.5105 17.3399 26.3667 13.7639 27.7216 11.047C29.0763 8.3304 30.9271 6.47716 33.2503 5.7223C35.5735 4.96744 38.1601 5.37889 40.8529 6.7804C43.546 8.18205 46.3407 10.5718 49.0741 13.764C54.5409 20.1482 59.7548 29.7323 63.417 41.0033Z" stroke="url(#paint81_linear_26_1377)" stroke-width="0.125"/>
<path d="M63.5104 41.2994C66.9753 52.6326 68.2015 63.474 67.3853 71.8393C66.9771 76.0221 66.0586 79.5826 64.6565 82.2754C63.2545 84.968 61.3717 86.7887 59.0357 87.5029C56.6996 88.2171 54.1206 87.7605 51.4527 86.3122C48.7845 84.8638 46.032 82.4256 43.3546 79.1862C38.0001 72.7075 32.9542 63.0339 29.4893 51.7007C26.0244 40.3675 24.7982 29.5261 25.6145 21.1609C26.0226 16.9781 26.9412 13.4176 28.3432 10.7247C29.7452 8.03214 31.628 6.21149 33.9641 5.49729C36.3001 4.78309 38.8791 5.23962 41.5471 6.68791C44.2153 8.13635 46.9678 10.5745 49.6451 13.814C54.9997 20.2926 60.0455 29.9662 63.5104 41.2994Z" stroke="url(#paint82_linear_26_1377)" stroke-width="0.125"/>
<path d="M63.5989 41.5971C66.8654 52.989 67.9023 63.8501 66.9401 72.1999C66.459 76.3749 65.4785 79.9188 64.0296 82.5868C62.5809 85.2545 60.6666 87.042 58.3185 87.7153C55.9703 88.3887 53.3997 87.8872 50.7574 86.3926C48.1149 84.8978 45.4053 82.412 42.7849 79.1263C37.5443 72.5552 32.6681 62.795 29.4015 51.403C26.1349 40.0111 25.098 29.1499 26.0602 20.8002C26.5413 16.6252 27.5218 13.0812 28.9707 10.4133C30.4194 7.74555 32.3337 5.95804 34.6819 5.28472C37.03 4.61139 39.6007 5.11287 42.2429 6.6075C44.8854 8.10228 47.595 10.5881 50.2154 13.8738C55.4561 20.4449 60.3323 30.2051 63.5989 41.5971Z" stroke="url(#paint83_linear_26_1377)" stroke-width="0.125"/>
<path d="M63.6816 41.8962C66.7489 53.3434 67.596 64.2209 66.4883 72.5526C65.9344 76.7186 64.8922 80.2449 63.3969 82.8872C61.9019 85.5292 59.9567 87.283 57.5971 87.9153C55.2376 88.5475 52.6761 88.0012 50.0603 86.4607C47.4443 84.9201 44.7785 82.3873 42.2159 79.0564C37.0907 72.3948 32.3855 62.551 29.3183 51.1038C26.251 39.6566 25.4038 28.779 26.5116 20.4473C27.0655 16.2813 28.1077 12.755 29.6029 10.1128C31.098 7.47074 33.0432 5.71691 35.4027 5.08467C37.7623 4.45243 40.3238 4.99869 42.9396 6.53921C45.5556 8.07988 48.2213 10.6126 50.784 13.9435C55.9092 20.6051 60.6143 30.4489 63.6816 41.8962Z" stroke="url(#paint84_linear_26_1377)" stroke-width="0.125"/>
<path d="M63.7592 42.1968C66.6263 53.6958 67.2834 64.5865 66.0305 72.8976C65.404 77.0533 64.3003 80.5608 62.7592 83.1766C61.2183 85.7921 59.2428 87.5117 56.8726 88.1027C54.5023 88.6937 51.9508 88.1028 49.3623 86.5168C46.7735 84.9307 44.1524 82.3519 41.6482 78.9767C36.6401 72.2267 32.1075 62.3023 29.2405 50.8033C26.3734 39.3043 25.7163 28.4136 26.9692 20.1025C27.5958 15.9468 28.6994 12.4392 30.2405 9.82346C31.7814 7.20794 33.7569 5.48833 36.1271 4.89736C38.4974 4.3064 41.049 4.89729 43.6374 6.48322C46.2262 8.06931 48.8473 10.6482 51.3515 14.0233C56.3596 20.7733 60.8922 30.6978 63.7592 42.1968Z" stroke="url(#paint85_linear_26_1377)" stroke-width="0.125"/>
<path d="M63.832 42.4986C66.4979 54.0459 66.9649 64.9464 65.5671 73.2344C64.8681 77.3785 63.7035 80.8663 62.1169 83.4547C60.5306 86.043 58.5254 87.7278 56.1452 88.2774C53.765 88.8269 51.2241 88.1915 48.6637 86.5607C46.103 84.9296 43.5273 82.3054 41.0825 78.8871C36.1929 72.0507 31.8342 62.0487 29.1683 50.5014C26.5024 38.9541 26.0353 28.0536 27.4332 19.7656C28.1321 15.6215 29.2968 12.1337 30.8833 9.54526C32.4697 6.95703 34.4749 5.27215 36.8551 4.72265C39.2352 4.17314 41.7761 4.80847 44.3365 6.43933C46.8972 8.07036 49.4729 10.6946 51.9178 14.1129C56.8074 20.9493 61.1661 30.9513 63.832 42.4986Z" stroke="url(#paint86_linear_26_1377)" stroke-width="0.125"/>
<path d="M63.899 42.8017C66.363 54.3938 66.6397 65.3008 65.0974 73.5631C64.3263 77.6944 63.1009 81.1613 61.4695 83.7217C59.8382 86.2818 57.8038 87.9314 55.4144 88.4393C53.025 88.9472 50.4956 88.2676 47.9641 86.5923C45.4323 84.9168 42.9027 82.2481 40.5179 78.7876C35.7484 71.8669 31.5649 61.7903 29.1009 50.1983C26.6369 38.6062 26.3602 27.6992 27.9025 19.4369C28.6737 15.3056 29.899 11.8387 31.5305 9.27832C33.1618 6.71818 35.1961 5.06855 37.5855 4.56067C39.9749 4.05279 42.5043 4.73236 45.0359 6.40767C47.5677 8.08314 50.0972 10.7519 52.482 14.2124C57.2516 21.1331 61.4351 31.2096 63.899 42.8017Z" stroke="url(#paint87_linear_26_1377)" stroke-width="0.125"/>
<path d="M63.961 43.106C66.2223 54.7393 66.3086 65.6494 64.6224 73.8836C63.7792 78.0008 62.4936 81.4458 60.8177 83.9773C59.142 86.5086 57.0792 88.1224 54.6813 88.5886C52.2834 89.0547 49.7662 88.331 47.2642 86.6118C44.7621 84.8924 42.2795 82.1799 39.9554 78.6783C35.3074 71.6755 31.3004 61.5274 29.0391 49.8941C26.7778 38.2608 26.6915 27.3506 28.3778 19.1165C29.2209 14.9993 30.5066 11.5543 32.1825 9.02278C33.8582 6.4915 35.921 4.87763 38.3189 4.41153C40.7168 3.94542 43.234 4.66903 45.7359 6.38826C48.2381 8.10767 50.7207 10.8202 53.0447 14.3217C57.6927 21.3246 61.6997 31.4727 63.961 43.106Z" stroke="url(#paint88_linear_26_1377)" stroke-width="0.125"/>
<path d="M64.0177 43.4113C66.0756 55.0822 65.9715 65.9922 64.1418 74.1957C63.2269 78.2976 61.8813 81.7196 60.1615 84.2215C58.4419 86.7231 56.3512 88.3008 53.9455 88.7249C51.5399 89.1491 49.0357 88.3817 46.5642 86.6191C44.0924 84.8563 41.6575 82.1008 39.3949 78.5592C34.8698 71.4763 31.0405 61.2599 28.9826 49.5889C26.9247 37.9179 27.0288 27.0079 28.8585 18.8044C29.7734 14.7026 31.119 11.2805 32.8388 8.77864C34.5584 6.27699 36.6491 4.69936 39.0548 4.27518C41.4604 3.85099 43.9646 4.61843 46.4361 6.38106C48.9079 8.14387 51.3428 10.8993 53.6054 14.4409C58.1305 21.5238 61.9598 31.7403 64.0177 43.4113Z" stroke="url(#paint89_linear_26_1377)" stroke-width="0.125"/>
<path d="M64.0687 43.7174C65.9226 55.4225 65.6281 66.329 63.6555 74.4993C62.6692 78.5846 61.2641 81.9826 59.5009 84.4541C57.7378 86.9253 55.62 88.4662 53.2073 88.8484C50.7946 89.2305 48.3042 88.4195 45.8638 86.614C43.4231 84.8083 41.0367 82.0108 38.8363 78.4303C34.4355 71.2695 30.7851 60.9877 28.9312 49.2826C27.0773 37.5775 27.3718 26.671 29.3443 18.5007C30.3307 14.4154 31.7358 11.0174 33.499 8.54589C35.262 6.07463 37.3799 4.53373 39.7926 4.1516C42.2053 3.76946 44.6957 4.58048 47.1361 6.38598C49.5768 8.19166 51.9632 10.9892 54.1636 14.5697C58.5644 21.7305 62.2148 32.0122 64.0687 43.7174Z" stroke="url(#paint90_linear_26_1377)" stroke-width="0.125"/>
<path d="M64.1148 44.0245C65.7641 55.7602 65.2793 66.6599 63.1645 74.7945C62.107 78.8619 60.6428 82.2349 58.8367 84.6753C57.0308 87.1154 54.8864 88.6191 52.4673 88.9591C50.0483 89.299 47.5725 88.4447 45.164 86.5969C42.7552 84.7489 40.418 81.9101 38.2803 78.2917C34.0052 71.0552 30.5348 60.7113 28.8855 48.9756C27.2361 37.2399 27.7209 26.3402 29.8358 18.2056C30.8933 14.1382 32.3575 10.7652 34.1635 8.32484C35.9694 5.88472 38.1139 4.38102 40.5329 4.04106C42.9519 3.70109 45.4278 4.55545 47.8363 6.40326C50.2451 8.25126 52.5823 11.09 54.7199 14.7084C58.995 21.9449 62.4654 32.2888 64.1148 44.0245Z" stroke="url(#paint91_linear_26_1377)" stroke-width="0.125"/>
<path d="M64.1551 44.3322C65.5994 56.0949 64.9244 66.9845 62.6679 75.081C61.5396 79.1293 60.0168 82.4763 58.1684 84.8847C56.3202 87.2929 54.1498 88.759 51.7252 89.0567C49.3007 89.3544 46.8401 88.4569 44.4642 86.5674C42.088 84.6776 39.8007 81.7985 37.7266 78.1434C33.5784 70.8333 30.289 60.4305 28.8448 48.6678C27.4005 36.9051 28.0754 26.0155 30.3319 17.9191C31.4602 13.8707 32.9831 10.5238 34.8315 8.11531C36.6797 5.70708 38.8501 4.24104 41.2746 3.94334C43.6992 3.64564 46.1598 4.54308 48.5357 6.43264C50.9118 8.3224 53.1991 11.2015 55.2733 14.8566C59.4215 22.1667 62.7108 32.5695 64.1551 44.3322Z" stroke="url(#paint92_linear_26_1377)" stroke-width="0.125"/>
<path d="M64.1904 44.6407C65.4292 56.4268 64.5643 67.3029 62.1668 75.3588C60.968 79.3868 59.387 82.7066 57.4968 85.0825C55.6069 87.4581 53.4113 88.886 50.9819 89.1414C48.5525 89.3967 46.1079 88.4565 43.7654 86.5257C41.4226 84.5948 39.1859 81.6762 37.1758 77.9854C33.1558 70.6041 30.0485 60.1454 28.8098 48.3593C27.571 36.5732 28.4359 25.697 30.8334 17.6412C32.0321 13.6131 33.6132 10.2933 35.5033 7.91748C37.3933 5.54187 39.5889 4.11393 42.0183 3.85859C44.4477 3.60325 46.8922 4.5435 49.2348 6.47424C51.5776 8.40518 53.8143 11.3237 55.8244 15.0145C59.8443 22.3959 62.9516 32.8545 64.1904 44.6407Z" stroke="url(#paint93_linear_26_1377)" stroke-width="0.125"/>
<path d="M64.2204 44.9498C65.2532 56.7557 64.1987 67.6151 61.661 75.6279C60.3921 79.6344 58.7533 82.9261 56.822 85.2686C54.8909 87.6109 52.6707 89.0003 50.2372 89.2132C47.8037 89.4261 45.376 88.4433 43.0674 86.472C40.7587 84.5005 38.5733 81.5433 36.6279 77.818C32.7374 70.3676 29.8131 59.8563 28.7802 48.0504C27.7473 36.2444 28.8019 25.385 31.3396 17.3723C32.6085 13.3658 34.2472 10.074 36.1786 7.73153C38.1097 5.38928 40.3299 3.99987 42.7634 3.78697C45.1969 3.57406 47.6246 4.55683 49.9331 6.52816C52.2419 8.4997 54.4273 11.4569 56.3726 15.1822C60.2632 22.6325 63.1875 33.1438 64.2204 44.9498Z" stroke="url(#paint94_linear_26_1377)" stroke-width="0.125"/>
<path d="M64.2442 45.2593C65.0709 57.0814 63.827 67.9208 61.1498 75.888C59.8112 79.8718 58.1153 83.1344 56.1433 85.4429C54.1716 87.7511 51.9275 89.1015 49.4907 89.2719C47.0539 89.4423 44.6436 88.4173 42.3699 86.406C40.0959 84.3945 37.9624 81.3996 36.0824 77.6409C32.3224 70.1238 29.582 59.5631 28.7554 47.7409C27.9287 35.9187 29.1726 25.0794 31.8498 17.1121C33.1884 13.1284 34.8843 9.86572 36.8562 7.55729C38.828 5.2491 41.0721 3.89865 43.5089 3.72825C45.9457 3.55785 48.3559 4.58283 50.6297 6.59416C52.9037 8.60568 55.0372 11.6005 56.9172 15.3592C60.6771 22.8764 63.4175 33.4371 64.2442 45.2593Z" stroke="url(#paint95_linear_26_1377)" stroke-width="0.125"/>
<path d="M64.2632 45.569C64.8834 57.4038 63.4505 68.2198 60.6347 76.1391C59.2267 80.0989 57.4741 83.3315 55.4622 85.6051C53.4505 87.8786 51.1832 89.1896 48.7438 89.3175C46.3043 89.4453 43.9124 88.3784 41.6741 86.3277C39.4355 84.2768 37.3546 81.2452 35.5405 77.4543C31.9123 69.8727 29.3566 59.2657 28.7364 47.4309C28.1162 35.5961 29.5491 24.7801 32.3649 16.8608C33.7728 12.901 35.5255 9.66848 37.5374 7.39482C39.5491 5.12139 41.8164 3.81031 44.2558 3.68246C46.6953 3.55462 49.0872 4.62151 51.3255 6.67221C53.5641 8.72312 55.645 11.7547 57.4591 15.5457C61.0873 23.1273 63.6429 33.7342 64.2632 45.569Z" stroke="url(#paint96_linear_26_1377)" stroke-width="0.125"/>
<path d="M64.277 45.8793C64.6906 57.7231 63.0691 68.5124 60.1155 76.3814C58.6387 80.316 56.8299 83.5174 54.7786 85.7557C52.7276 87.9936 50.4377 89.2649 47.9964 89.3502C45.5551 89.4354 43.1821 88.327 40.9799 86.2375C38.7775 84.1478 36.7499 81.0804 35.0022 77.2584C31.5069 69.6146 29.1367 58.9646 28.7231 47.1208C28.3095 35.277 29.931 24.4877 32.8846 16.6187C34.3614 12.6841 36.1702 9.48263 38.2214 7.24442C40.2725 5.00644 42.5624 3.73514 45.0037 3.64988C47.445 3.56463 49.818 4.67311 52.0201 6.76256C54.2225 8.85222 56.2502 11.9197 57.9979 15.7417C61.4932 23.3855 63.8634 34.0354 64.277 45.8793Z" stroke="url(#paint97_linear_26_1377)" stroke-width="0.125"/>
<path d="M64.2848 46.1895C64.4916 58.0388 62.6821 68.7982 59.5917 76.6144C58.0464 80.5226 56.182 83.692 54.092 85.8941C52.0022 88.0959 49.6905 89.3271 47.2481 89.3697C44.8056 89.4123 42.4524 88.2626 40.287 86.1351C38.1214 84.0073 36.1476 80.9049 34.4668 77.0529C31.1055 69.3493 28.9215 58.6596 28.7147 46.8104C28.5079 34.9612 30.3174 24.2018 33.4079 16.3856C34.9532 12.4773 36.8175 9.30792 38.9075 7.10586C40.9973 4.90402 43.3091 3.67287 45.7515 3.63023C48.1939 3.5876 50.5471 4.73732 52.7125 6.86489C54.8781 8.99267 56.852 12.0951 58.5327 15.947C61.8941 23.6506 64.078 34.3403 64.2848 46.1895Z" stroke="url(#paint98_linear_26_1377)" stroke-width="0.125"/>
<path d="M64.2879 46.4999C64.2879 58.351 62.2909 69.0771 59.0645 76.8382C57.4512 80.7189 55.5319 83.8553 53.4037 86.0205C51.2758 88.1856 48.9429 89.3762 46.5002 89.3762C44.0574 89.3762 41.7245 88.1856 39.5966 86.0205C37.4685 83.8553 35.5491 80.7189 33.9358 76.8382C30.7094 69.0771 28.7124 58.351 28.7124 46.4999C28.7124 34.6489 30.7094 23.9227 33.9358 16.1616C35.5491 12.2809 37.4685 9.14456 39.5966 6.97931C41.7245 4.81427 44.0574 3.62366 46.5002 3.62366C48.9429 3.62366 51.2758 4.81427 53.4037 6.97931C55.5319 9.14456 57.4512 12.2809 59.0645 16.1616C62.2909 23.9227 64.2879 34.6489 64.2879 46.4999Z" stroke="url(#paint99_linear_26_1377)" stroke-width="0.125"/>
<defs>
<linearGradient id="paint0_linear_26_1377" x1="48.2172" y1="56.7734" x2="44.8957" y2="35.802" gradientUnits="userSpaceOnUse">
<stop stop-color="#ED4BC0" stop-opacity="0.5"/>
<stop offset="1" stop-color="#F489D6"/>
</linearGradient>
<linearGradient id="paint1_linear_26_1377" x1="48.0376" y1="56.8017" x2="45.0825" y2="35.7756" gradientUnits="userSpaceOnUse">
<stop stop-color="#ED4BC0" stop-opacity="0.5"/>
<stop offset="1" stop-color="#F489D6"/>
</linearGradient>
<linearGradient id="paint2_linear_26_1377" x1="47.8575" y1="56.827" x2="45.2699" y2="35.7525" gradientUnits="userSpaceOnUse">
<stop stop-color="#ED4BC0" stop-opacity="0.5"/>
<stop offset="1" stop-color="#F489D6"/>
</linearGradient>
<linearGradient id="paint3_linear_26_1377" x1="47.6769" y1="56.8491" x2="45.4575" y2="35.7327" gradientUnits="userSpaceOnUse">
<stop stop-color="#ED4BC0" stop-opacity="0.5"/>
<stop offset="1" stop-color="#F489D6"/>
</linearGradient>
<linearGradient id="paint4_linear_26_1377" x1="47.4962" y1="56.8681" x2="45.6457" y2="35.7162" gradientUnits="userSpaceOnUse">
<stop stop-color="#ED4BC0" stop-opacity="0.5"/>
<stop offset="1" stop-color="#F489D6"/>
</linearGradient>
<linearGradient id="paint5_linear_26_1377" x1="47.3154" y1="56.8839" x2="45.8342" y2="35.7028" gradientUnits="userSpaceOnUse">
<stop stop-color="#ED4BC0" stop-opacity="0.5"/>
<stop offset="1" stop-color="#F489D6"/>
</linearGradient>
<linearGradient id="paint6_linear_26_1377" x1="47.1338" y1="56.8965" x2="46.0226" y2="35.6929" gradientUnits="userSpaceOnUse">
<stop stop-color="#ED4BC0" stop-opacity="0.5"/>
<stop offset="1" stop-color="#F489D6"/>
</linearGradient>
<linearGradient id="paint7_linear_26_1377" x1="46.9524" y1="56.906" x2="46.2114" y2="35.6861" gradientUnits="userSpaceOnUse">
<stop stop-color="#ED4BC0" stop-opacity="0.5"/>
<stop offset="1" stop-color="#F489D6"/>
</linearGradient>
<linearGradient id="paint8_linear_26_1377" x1="46.7708" y1="56.9123" x2="46.4002" y2="35.6828" gradientUnits="userSpaceOnUse">
<stop stop-color="#ED4BC0" stop-opacity="0.5"/>
<stop offset="1" stop-color="#F489D6"/>
</linearGradient>
<linearGradient id="paint9_linear_26_1377" x1="46.5887" y1="56.9155" x2="46.5887" y2="35.6827" gradientUnits="userSpaceOnUse">
<stop stop-color="#ED4BC0" stop-opacity="0.5"/>
<stop offset="1" stop-color="#F489D6"/>
</linearGradient>
<linearGradient id="paint10_linear_26_1377" x1="46.4072" y1="56.9155" x2="46.7778" y2="35.6859" gradientUnits="userSpaceOnUse">
<stop stop-color="#ED4BC0" stop-opacity="0.5"/>
<stop offset="1" stop-color="#F489D6"/>
</linearGradient>
<linearGradient id="paint11_linear_26_1377" x1="46.2253" y1="56.9122" x2="46.9663" y2="35.6923" gradientUnits="userSpaceOnUse">
<stop stop-color="#ED4BC0" stop-opacity="0.5"/>
<stop offset="1" stop-color="#F489D6"/>
</linearGradient>
<linearGradient id="paint12_linear_26_1377" x1="46.0438" y1="56.9058" x2="47.1551" y2="35.7021" gradientUnits="userSpaceOnUse">
<stop stop-color="#ED4BC0" stop-opacity="0.5"/>
<stop offset="1" stop-color="#F489D6"/>
</linearGradient>
<linearGradient id="paint13_linear_26_1377" x1="45.8624" y1="56.8962" x2="47.3435" y2="35.7152" gradientUnits="userSpaceOnUse">
<stop stop-color="#ED4BC0" stop-opacity="0.5"/>
<stop offset="1" stop-color="#F489D6"/>
</linearGradient>
<linearGradient id="paint14_linear_26_1377" x1="45.6809" y1="56.8836" x2="47.5314" y2="35.7316" gradientUnits="userSpaceOnUse">
<stop stop-color="#ED4BC0" stop-opacity="0.5"/>
<stop offset="1" stop-color="#F489D6"/>
</linearGradient>
<linearGradient id="paint15_linear_26_1377" x1="45.4998" y1="56.8677" x2="47.7192" y2="35.7513" gradientUnits="userSpaceOnUse">
<stop stop-color="#ED4BC0" stop-opacity="0.5"/>
<stop offset="1" stop-color="#F489D6"/>
</linearGradient>
<linearGradient id="paint16_linear_26_1377" x1="45.3191" y1="56.8487" x2="47.9067" y2="35.7742" gradientUnits="userSpaceOnUse">
<stop stop-color="#ED4BC0" stop-opacity="0.5"/>
<stop offset="1" stop-color="#F489D6"/>
</linearGradient>
<linearGradient id="paint17_linear_26_1377" x1="45.1388" y1="56.8265" x2="48.0938" y2="35.8004" gradientUnits="userSpaceOnUse">
<stop stop-color="#ED4BC0" stop-opacity="0.5"/>
<stop offset="1" stop-color="#F489D6"/>
</linearGradient>
<linearGradient id="paint18_linear_26_1377" x1="44.9584" y1="56.8011" x2="48.2799" y2="35.8298" gradientUnits="userSpaceOnUse">
<stop stop-color="#ED4BC0" stop-opacity="0.5"/>
<stop offset="1" stop-color="#F489D6"/>
</linearGradient>
<linearGradient id="paint19_linear_26_1377" x1="44.7788" y1="56.7727" x2="48.4658" y2="35.8625" gradientUnits="userSpaceOnUse">
<stop stop-color="#ED4BC0" stop-opacity="0.5"/>
<stop offset="1" stop-color="#F489D6"/>
</linearGradient>
<linearGradient id="paint20_linear_26_1377" x1="44.5996" y1="56.7411" x2="48.651" y2="35.8985" gradientUnits="userSpaceOnUse">
<stop stop-color="#ED4BC0" stop-opacity="0.5"/>
<stop offset="1" stop-color="#F489D6"/>
</linearGradient>
<linearGradient id="paint21_linear_26_1377" x1="44.4213" y1="56.7063" x2="48.8358" y2="35.9375" gradientUnits="userSpaceOnUse">
<stop stop-color="#ED4BC0" stop-opacity="0.5"/>
<stop offset="1" stop-color="#F489D6"/>
</linearGradient>
<linearGradient id="paint22_linear_26_1377" x1="44.2433" y1="56.6685" x2="49.0197" y2="35.9799" gradientUnits="userSpaceOnUse">
<stop stop-color="#ED4BC0" stop-opacity="0.5"/>
<stop offset="1" stop-color="#F489D6"/>
</linearGradient>
<linearGradient id="paint23_linear_26_1377" x1="44.0668" y1="56.6276" x2="49.2034" y2="36.0255" gradientUnits="userSpaceOnUse">
<stop stop-color="#ED4BC0" stop-opacity="0.5"/>
<stop offset="1" stop-color="#F489D6"/>
</linearGradient>
<linearGradient id="paint24_linear_26_1377" x1="43.8901" y1="56.5836" x2="49.3856" y2="36.0743" gradientUnits="userSpaceOnUse">
<stop stop-color="#ED4BC0" stop-opacity="0.5"/>
<stop offset="1" stop-color="#F489D6"/>
</linearGradient>
<linearGradient id="paint25_linear_26_1377" x1="43.7149" y1="56.5365" x2="49.5674" y2="36.1262" gradientUnits="userSpaceOnUse">
<stop stop-color="#ED4BC0" stop-opacity="0.5"/>
<stop offset="1" stop-color="#F489D6"/>
</linearGradient>
<linearGradient id="paint26_linear_26_1377" x1="43.5396" y1="56.4864" x2="49.7474" y2="36.1814" gradientUnits="userSpaceOnUse">
<stop stop-color="#ED4BC0" stop-opacity="0.5"/>
<stop offset="1" stop-color="#F489D6"/>
</linearGradient>
<linearGradient id="paint27_linear_26_1377" x1="43.3657" y1="56.4331" x2="49.927" y2="36.2395" gradientUnits="userSpaceOnUse">
<stop stop-color="#ED4BC0" stop-opacity="0.5"/>
<stop offset="1" stop-color="#F489D6"/>
</linearGradient>
<linearGradient id="paint28_linear_26_1377" x1="43.1929" y1="56.3769" x2="50.1056" y2="36.301" gradientUnits="userSpaceOnUse">
<stop stop-color="#ED4BC0" stop-opacity="0.5"/>
<stop offset="1" stop-color="#F489D6"/>
</linearGradient>
<linearGradient id="paint29_linear_26_1377" x1="43.0211" y1="56.3178" x2="50.2831" y2="36.3655" gradientUnits="userSpaceOnUse">
<stop stop-color="#ED4BC0" stop-opacity="0.5"/>
<stop offset="1" stop-color="#F489D6"/>
</linearGradient>
<linearGradient id="paint30_linear_26_1377" x1="42.8503" y1="56.2555" x2="50.4594" y2="36.433" gradientUnits="userSpaceOnUse">
<stop stop-color="#ED4BC0" stop-opacity="0.5"/>
<stop offset="1" stop-color="#F489D6"/>
</linearGradient>
<linearGradient id="paint31_linear_26_1377" x1="42.6807" y1="56.1903" x2="50.6346" y2="36.5037" gradientUnits="userSpaceOnUse">
<stop stop-color="#ED4BC0" stop-opacity="0.5"/>
<stop offset="1" stop-color="#F489D6"/>
</linearGradient>
<linearGradient id="paint32_linear_26_1377" x1="42.5122" y1="56.1222" x2="50.8085" y2="36.5773" gradientUnits="userSpaceOnUse">
<stop stop-color="#ED4BC0" stop-opacity="0.5"/>
<stop offset="1" stop-color="#F489D6"/>
</linearGradient>
<linearGradient id="paint33_linear_26_1377" x1="42.3449" y1="56.0511" x2="50.9811" y2="36.654" gradientUnits="userSpaceOnUse">
<stop stop-color="#ED4BC0" stop-opacity="0.5"/>
<stop offset="1" stop-color="#F489D6"/>
</linearGradient>
<linearGradient id="paint34_linear_26_1377" x1="42.1789" y1="55.9772" x2="51.1523" y2="36.7337" gradientUnits="userSpaceOnUse">
<stop stop-color="#ED4BC0" stop-opacity="0.5"/>
<stop offset="1" stop-color="#F489D6"/>
</linearGradient>
<linearGradient id="paint35_linear_26_1377" x1="42.0143" y1="55.9003" x2="51.3221" y2="36.8164" gradientUnits="userSpaceOnUse">
<stop stop-color="#ED4BC0" stop-opacity="0.5"/>
<stop offset="1" stop-color="#F489D6"/>
</linearGradient>
<linearGradient id="paint36_linear_26_1377" x1="41.8505" y1="55.8206" x2="51.49" y2="36.9021" gradientUnits="userSpaceOnUse">
<stop stop-color="#ED4BC0" stop-opacity="0.5"/>
<stop offset="1" stop-color="#F489D6"/>
</linearGradient>
<linearGradient id="paint37_linear_26_1377" x1="41.6886" y1="55.738" x2="51.6568" y2="36.9906" gradientUnits="userSpaceOnUse">
<stop stop-color="#ED4BC0" stop-opacity="0.5"/>
<stop offset="1" stop-color="#F489D6"/>
</linearGradient>
<linearGradient id="paint38_linear_26_1377" x1="41.5283" y1="55.6526" x2="51.8222" y2="37.082" gradientUnits="userSpaceOnUse">
<stop stop-color="#ED4BC0" stop-opacity="0.5"/>
<stop offset="1" stop-color="#F489D6"/>
</linearGradient>
<linearGradient id="paint39_linear_26_1377" x1="41.3691" y1="55.5645" x2="51.9855" y2="37.1764" gradientUnits="userSpaceOnUse">
<stop stop-color="#ED4BC0" stop-opacity="0.5"/>
<stop offset="1" stop-color="#F489D6"/>
</linearGradient>
<linearGradient id="paint40_linear_26_1377" x1="41.2116" y1="55.4736" x2="52.1473" y2="37.2735" gradientUnits="userSpaceOnUse">
<stop stop-color="#ED4BC0" stop-opacity="0.5"/>
<stop offset="1" stop-color="#F489D6"/>
</linearGradient>
<linearGradient id="paint41_linear_26_1377" x1="41.0563" y1="55.3799" x2="52.308" y2="37.3735" gradientUnits="userSpaceOnUse">
<stop stop-color="#ED4BC0" stop-opacity="0.5"/>
<stop offset="1" stop-color="#F489D6"/>
</linearGradient>
<linearGradient id="paint42_linear_26_1377" x1="40.9019" y1="55.2835" x2="52.4661" y2="37.4762" gradientUnits="userSpaceOnUse">
<stop stop-color="#ED4BC0" stop-opacity="0.5"/>
<stop offset="1" stop-color="#F489D6"/>
</linearGradient>
<linearGradient id="paint43_linear_26_1377" x1="40.7495" y1="55.1845" x2="52.6227" y2="37.5817" gradientUnits="userSpaceOnUse">
<stop stop-color="#ED4BC0" stop-opacity="0.5"/>
<stop offset="1" stop-color="#F489D6"/>
</linearGradient>
<linearGradient id="paint44_linear_26_1377" x1="40.5985" y1="55.0828" x2="52.7771" y2="37.6899" gradientUnits="userSpaceOnUse">
<stop stop-color="#ED4BC0" stop-opacity="0.5"/>
<stop offset="1" stop-color="#F489D6"/>
</linearGradient>
<linearGradient id="paint45_linear_26_1377" x1="40.4497" y1="54.9785" x2="52.93" y2="37.8009" gradientUnits="userSpaceOnUse">
<stop stop-color="#ED4BC0" stop-opacity="0.5"/>
<stop offset="1" stop-color="#F489D6"/>
</linearGradient>
<linearGradient id="paint46_linear_26_1377" x1="40.3027" y1="54.8717" x2="53.0809" y2="37.9144" gradientUnits="userSpaceOnUse">
<stop stop-color="#ED4BC0" stop-opacity="0.5"/>
<stop offset="1" stop-color="#F489D6"/>
</linearGradient>
<linearGradient id="paint47_linear_26_1377" x1="40.1574" y1="54.7622" x2="53.2296" y2="38.0305" gradientUnits="userSpaceOnUse">
<stop stop-color="#ED4BC0" stop-opacity="0.5"/>
<stop offset="1" stop-color="#F489D6"/>
</linearGradient>
<linearGradient id="paint48_linear_26_1377" x1="40.0146" y1="54.6502" x2="53.3768" y2="38.1493" gradientUnits="userSpaceOnUse">
<stop stop-color="#ED4BC0" stop-opacity="0.5"/>
<stop offset="1" stop-color="#F489D6"/>
</linearGradient>
<linearGradient id="paint49_linear_26_1377" x1="39.8734" y1="54.5359" x2="53.5216" y2="38.2706" gradientUnits="userSpaceOnUse">
<stop stop-color="#ED4BC0" stop-opacity="0.5"/>
<stop offset="1" stop-color="#F489D6"/>
</linearGradient>
<linearGradient id="paint50_linear_26_1377" x1="39.7339" y1="54.419" x2="53.6638" y2="38.3944" gradientUnits="userSpaceOnUse">
<stop stop-color="#ED4BC0" stop-opacity="0.5"/>
<stop offset="1" stop-color="#F489D6"/>
</linearGradient>
<linearGradient id="paint51_linear_26_1377" x1="39.5966" y1="54.2997" x2="53.8041" y2="38.5207" gradientUnits="userSpaceOnUse">
<stop stop-color="#ED4BC0" stop-opacity="0.5"/>
<stop offset="1" stop-color="#F489D6"/>
</linearGradient>
<linearGradient id="paint52_linear_26_1377" x1="39.4618" y1="54.178" x2="53.9425" y2="38.6493" gradientUnits="userSpaceOnUse">
<stop stop-color="#ED4BC0" stop-opacity="0.5"/>
<stop offset="1" stop-color="#F489D6"/>
</linearGradient>
<linearGradient id="paint53_linear_26_1377" x1="39.3286" y1="54.0539" x2="54.0781" y2="38.7804" gradientUnits="userSpaceOnUse">
<stop stop-color="#ED4BC0" stop-opacity="0.5"/>
<stop offset="1" stop-color="#F489D6"/>
</linearGradient>
<linearGradient id="paint54_linear_26_1377" x1="39.198" y1="53.9277" x2="54.2118" y2="38.9139" gradientUnits="userSpaceOnUse">
<stop stop-color="#ED4BC0" stop-opacity="0.5"/>
<stop offset="1" stop-color="#F489D6"/>
</linearGradient>
<linearGradient id="paint55_linear_26_1377" x1="39.0697" y1="53.7992" x2="54.3433" y2="39.0497" gradientUnits="userSpaceOnUse">
<stop stop-color="#ED4BC0" stop-opacity="0.5"/>
<stop offset="1" stop-color="#F489D6"/>
</linearGradient>
<linearGradient id="paint56_linear_26_1377" x1="38.9434" y1="53.6684" x2="54.4721" y2="39.1876" gradientUnits="userSpaceOnUse">
<stop stop-color="#ED4BC0" stop-opacity="0.5"/>
<stop offset="1" stop-color="#F489D6"/>
</linearGradient>
<linearGradient id="paint57_linear_26_1377" x1="38.8192" y1="53.5353" x2="54.5982" y2="39.3279" gradientUnits="userSpaceOnUse">
<stop stop-color="#ED4BC0" stop-opacity="0.5"/>
<stop offset="1" stop-color="#F489D6"/>
</linearGradient>
<linearGradient id="paint58_linear_26_1377" x1="38.6977" y1="53.4003" x2="54.7223" y2="39.4703" gradientUnits="userSpaceOnUse">
<stop stop-color="#ED4BC0" stop-opacity="0.5"/>
<stop offset="1" stop-color="#F489D6"/>
</linearGradient>
<linearGradient id="paint59_linear_26_1377" x1="38.5786" y1="53.263" x2="54.8439" y2="39.6149" gradientUnits="userSpaceOnUse">
<stop stop-color="#ED4BC0" stop-opacity="0.5"/>
<stop offset="1" stop-color="#F489D6"/>
</linearGradient>
<linearGradient id="paint60_linear_26_1377" x1="38.4616" y1="53.1238" x2="54.9626" y2="39.7616" gradientUnits="userSpaceOnUse">
<stop stop-color="#ED4BC0" stop-opacity="0.5"/>
<stop offset="1" stop-color="#F489D6"/>
</linearGradient>
<linearGradient id="paint61_linear_26_1377" x1="38.3472" y1="52.9825" x2="55.0789" y2="39.9103" gradientUnits="userSpaceOnUse">
<stop stop-color="#ED4BC0" stop-opacity="0.5"/>
<stop offset="1" stop-color="#F489D6"/>
</linearGradient>
<linearGradient id="paint62_linear_26_1377" x1="38.2352" y1="52.8392" x2="55.1925" y2="40.061" gradientUnits="userSpaceOnUse">
<stop stop-color="#ED4BC0" stop-opacity="0.5"/>
<stop offset="1" stop-color="#F489D6"/>
</linearGradient>
<linearGradient id="paint63_linear_26_1377" x1="38.1262" y1="52.694" x2="55.3039" y2="40.2137" gradientUnits="userSpaceOnUse">
<stop stop-color="#ED4BC0" stop-opacity="0.5"/>
<stop offset="1" stop-color="#F489D6"/>
</linearGradient>
<linearGradient id="paint64_linear_26_1377" x1="38.0189" y1="52.5469" x2="55.4118" y2="40.3683" gradientUnits="userSpaceOnUse">
<stop stop-color="#ED4BC0" stop-opacity="0.5"/>
<stop offset="1" stop-color="#F489D6"/>
</linearGradient>
<linearGradient id="paint65_linear_26_1377" x1="37.9149" y1="52.398" x2="55.5177" y2="40.5248" gradientUnits="userSpaceOnUse">
<stop stop-color="#ED4BC0" stop-opacity="0.5"/>
<stop offset="1" stop-color="#F489D6"/>
</linearGradient>
<linearGradient id="paint66_linear_26_1377" x1="37.813" y1="52.2472" x2="55.6203" y2="40.683" gradientUnits="userSpaceOnUse">
<stop stop-color="#ED4BC0" stop-opacity="0.5"/>
<stop offset="1" stop-color="#F489D6"/>
</linearGradient>
<linearGradient id="paint67_linear_26_1377" x1="37.7142" y1="52.0947" x2="55.7206" y2="40.8431" gradientUnits="userSpaceOnUse">
<stop stop-color="#ED4BC0" stop-opacity="0.5"/>
<stop offset="1" stop-color="#F489D6"/>
</linearGradient>
<linearGradient id="paint68_linear_26_1377" x1="37.6182" y1="51.9406" x2="55.8183" y2="41.0049" gradientUnits="userSpaceOnUse">
<stop stop-color="#ED4BC0" stop-opacity="0.5"/>
<stop offset="1" stop-color="#F489D6"/>
</linearGradient>
<linearGradient id="paint69_linear_26_1377" x1="37.5244" y1="51.7847" x2="55.9125" y2="41.1683" gradientUnits="userSpaceOnUse">
<stop stop-color="#ED4BC0" stop-opacity="0.5"/>
<stop offset="1" stop-color="#F489D6"/>
</linearGradient>
<linearGradient id="paint70_linear_26_1377" x1="37.4337" y1="51.6273" x2="56.0043" y2="41.3334" gradientUnits="userSpaceOnUse">
<stop stop-color="#ED4BC0" stop-opacity="0.5"/>
<stop offset="1" stop-color="#F489D6"/>
</linearGradient>
<linearGradient id="paint71_linear_26_1377" x1="37.3454" y1="51.4682" x2="56.0928" y2="41.5" gradientUnits="userSpaceOnUse">
<stop stop-color="#ED4BC0" stop-opacity="0.5"/>
<stop offset="1" stop-color="#F489D6"/>
</linearGradient>
<linearGradient id="paint72_linear_26_1377" x1="37.2602" y1="51.3078" x2="56.1787" y2="41.6683" gradientUnits="userSpaceOnUse">
<stop stop-color="#ED4BC0" stop-opacity="0.5"/>
<stop offset="1" stop-color="#F489D6"/>
</linearGradient>
<linearGradient id="paint73_linear_26_1377" x1="37.1778" y1="51.1457" x2="56.2616" y2="41.8378" gradientUnits="userSpaceOnUse">
<stop stop-color="#ED4BC0" stop-opacity="0.5"/>
<stop offset="1" stop-color="#F489D6"/>
</linearGradient>
<linearGradient id="paint74_linear_26_1377" x1="37.0978" y1="50.9823" x2="56.3412" y2="42.0089" gradientUnits="userSpaceOnUse">
<stop stop-color="#ED4BC0" stop-opacity="0.5"/>
<stop offset="1" stop-color="#F489D6"/>
</linearGradient>
<linearGradient id="paint75_linear_26_1377" x1="37.021" y1="50.8176" x2="56.4181" y2="42.1814" gradientUnits="userSpaceOnUse">
<stop stop-color="#ED4BC0" stop-opacity="0.5"/>
<stop offset="1" stop-color="#F489D6"/>
</linearGradient>
<linearGradient id="paint76_linear_26_1377" x1="36.9471" y1="50.6515" x2="56.4919" y2="42.3552" gradientUnits="userSpaceOnUse">
<stop stop-color="#ED4BC0" stop-opacity="0.5"/>
<stop offset="1" stop-color="#F489D6"/>
</linearGradient>
<linearGradient id="paint77_linear_26_1377" x1="36.8761" y1="50.4842" x2="56.5628" y2="42.5302" gradientUnits="userSpaceOnUse">
<stop stop-color="#ED4BC0" stop-opacity="0.5"/>
<stop offset="1" stop-color="#F489D6"/>
</linearGradient>
<linearGradient id="paint78_linear_26_1377" x1="36.808" y1="50.3156" x2="56.6305" y2="42.7064" gradientUnits="userSpaceOnUse">
<stop stop-color="#ED4BC0" stop-opacity="0.5"/>
<stop offset="1" stop-color="#F489D6"/>
</linearGradient>
<linearGradient id="paint79_linear_26_1377" x1="36.7433" y1="50.1458" x2="56.6956" y2="42.8838" gradientUnits="userSpaceOnUse">
<stop stop-color="#ED4BC0" stop-opacity="0.5"/>
<stop offset="1" stop-color="#F489D6"/>
</linearGradient>
<linearGradient id="paint80_linear_26_1377" x1="36.6813" y1="49.975" x2="56.7572" y2="43.0622" gradientUnits="userSpaceOnUse">
<stop stop-color="#ED4BC0" stop-opacity="0.5"/>
<stop offset="1" stop-color="#F489D6"/>
</linearGradient>
<linearGradient id="paint81_linear_26_1377" x1="36.6216" y1="49.8032" x2="56.8152" y2="43.2419" gradientUnits="userSpaceOnUse">
<stop stop-color="#ED4BC0" stop-opacity="0.5"/>
<stop offset="1" stop-color="#F489D6"/>
</linearGradient>
<linearGradient id="paint82_linear_26_1377" x1="36.5655" y1="49.6303" x2="56.8705" y2="43.4224" gradientUnits="userSpaceOnUse">
<stop stop-color="#ED4BC0" stop-opacity="0.5"/>
<stop offset="1" stop-color="#F489D6"/>
</linearGradient>
<linearGradient id="paint83_linear_26_1377" x1="36.5127" y1="49.4564" x2="56.9229" y2="43.6038" gradientUnits="userSpaceOnUse">
<stop stop-color="#ED4BC0" stop-opacity="0.5"/>
<stop offset="1" stop-color="#F489D6"/>
</linearGradient>
<linearGradient id="paint84_linear_26_1377" x1="36.4624" y1="49.2816" x2="56.9717" y2="43.7861" gradientUnits="userSpaceOnUse">
<stop stop-color="#ED4BC0" stop-opacity="0.5"/>
<stop offset="1" stop-color="#F489D6"/>
</linearGradient>
<linearGradient id="paint85_linear_26_1377" x1="36.4153" y1="49.106" x2="57.0174" y2="43.9693" gradientUnits="userSpaceOnUse">
<stop stop-color="#ED4BC0" stop-opacity="0.5"/>
<stop offset="1" stop-color="#F489D6"/>
</linearGradient>
<linearGradient id="paint86_linear_26_1377" x1="36.3716" y1="48.9296" x2="57.0602" y2="44.1533" gradientUnits="userSpaceOnUse">
<stop stop-color="#ED4BC0" stop-opacity="0.5"/>
<stop offset="1" stop-color="#F489D6"/>
</linearGradient>
<linearGradient id="paint87_linear_26_1377" x1="36.3306" y1="48.7524" x2="57.0994" y2="44.3379" gradientUnits="userSpaceOnUse">
<stop stop-color="#ED4BC0" stop-opacity="0.5"/>
<stop offset="1" stop-color="#F489D6"/>
</linearGradient>
<linearGradient id="paint88_linear_26_1377" x1="36.293" y1="48.5747" x2="57.1356" y2="44.5233" gradientUnits="userSpaceOnUse">
<stop stop-color="#ED4BC0" stop-opacity="0.5"/>
<stop offset="1" stop-color="#F489D6"/>
</linearGradient>
<linearGradient id="paint89_linear_26_1377" x1="36.2584" y1="48.3962" x2="57.1686" y2="44.7092" gradientUnits="userSpaceOnUse">
<stop stop-color="#ED4BC0" stop-opacity="0.5"/>
<stop offset="1" stop-color="#F489D6"/>
</linearGradient>
<linearGradient id="paint90_linear_26_1377" x1="36.2266" y1="48.2171" x2="57.198" y2="44.8956" gradientUnits="userSpaceOnUse">
<stop stop-color="#ED4BC0" stop-opacity="0.5"/>
<stop offset="1" stop-color="#F489D6"/>
</linearGradient>
<linearGradient id="paint91_linear_26_1377" x1="36.1984" y1="48.0376" x2="57.2245" y2="45.0826" gradientUnits="userSpaceOnUse">
<stop stop-color="#ED4BC0" stop-opacity="0.5"/>
<stop offset="1" stop-color="#F489D6"/>
</linearGradient>
<linearGradient id="paint92_linear_26_1377" x1="36.173" y1="47.8576" x2="57.2475" y2="45.2699" gradientUnits="userSpaceOnUse">
<stop stop-color="#ED4BC0" stop-opacity="0.5"/>
<stop offset="1" stop-color="#F489D6"/>
</linearGradient>
<linearGradient id="paint93_linear_26_1377" x1="36.151" y1="47.6771" x2="57.2674" y2="45.4577" gradientUnits="userSpaceOnUse">
<stop stop-color="#ED4BC0" stop-opacity="0.5"/>
<stop offset="1" stop-color="#F489D6"/>
</linearGradient>
<linearGradient id="paint94_linear_26_1377" x1="36.1322" y1="47.4964" x2="57.2842" y2="45.6458" gradientUnits="userSpaceOnUse">
<stop stop-color="#ED4BC0" stop-opacity="0.5"/>
<stop offset="1" stop-color="#F489D6"/>
</linearGradient>
<linearGradient id="paint95_linear_26_1377" x1="36.1159" y1="47.3153" x2="57.297" y2="45.8342" gradientUnits="userSpaceOnUse">
<stop stop-color="#ED4BC0" stop-opacity="0.5"/>
<stop offset="1" stop-color="#F489D6"/>
</linearGradient>
<linearGradient id="paint96_linear_26_1377" x1="36.1033" y1="47.1339" x2="57.307" y2="46.0226" gradientUnits="userSpaceOnUse">
<stop stop-color="#ED4BC0" stop-opacity="0.5"/>
<stop offset="1" stop-color="#F489D6"/>
</linearGradient>
<linearGradient id="paint97_linear_26_1377" x1="36.094" y1="46.9524" x2="57.3139" y2="46.2114" gradientUnits="userSpaceOnUse">
<stop stop-color="#ED4BC0" stop-opacity="0.5"/>
<stop offset="1" stop-color="#F489D6"/>
</linearGradient>
<linearGradient id="paint98_linear_26_1377" x1="36.0875" y1="46.7706" x2="57.317" y2="46.4001" gradientUnits="userSpaceOnUse">
<stop stop-color="#ED4BC0" stop-opacity="0.5"/>
<stop offset="1" stop-color="#F489D6"/>
</linearGradient>
<linearGradient id="paint99_linear_26_1377" x1="36.0847" y1="46.5888" x2="57.3175" y2="46.5888" gradientUnits="userSpaceOnUse">
<stop stop-color="#ED4BC0" stop-opacity="0.5"/>
<stop offset="1" stop-color="#F489D6"/>
</linearGradient>
</defs>
</svg>
