<svg width="371" height="181" viewBox="0 0 371 181" fill="none" xmlns="http://www.w3.org/2000/svg">
<path fill-rule="evenodd" clip-rule="evenodd" d="M18 180.009C8.05888 180.004 0.00418362 171.941 0.00934437 162L0.0840994 17.9998C0.0868179 12.7631 2.32549 8.04988 5.8968 4.76249C4.97482 9.18419 5.23939 14.5076 6.97939 20.8129C10.7153 34.3505 14.4773 42.213 17.2185 47.9418C18.2429 50.0829 19.1248 51.9259 19.8094 53.6558C21.0634 56.8246 21.6792 59.6469 21.3689 63.3277C21.0562 67.0368 19.8007 71.647 17.2445 78.3809C11.9735 92.2668 19.9763 105.684 32.1957 113.235C44.4227 120.792 61.1307 122.658 73.6258 113.258C82.6565 106.465 87.4989 101.034 91.1625 96.9258C92.4768 95.4519 93.6393 94.1482 94.7891 93.0127C96.9606 90.8682 99.1018 89.2971 102.184 88.2167C105.285 87.1293 109.376 86.5261 115.464 86.389C121.794 86.2464 127.386 83.0454 131.752 78.2266C136.116 73.4094 139.288 66.9448 140.796 60.1727C143.804 46.6616 140.217 31.625 125.81 26.1232C118.903 23.4856 115.156 20.2546 113.081 16.8461C111.001 13.4277 110.55 9.7488 110.4 6.09077C110.369 5.33769 110.35 4.57015 110.332 3.80541L110.332 3.80496C110.307 2.74838 110.281 1.6972 110.223 0.697081C110.217 0.596233 110.211 0.495522 110.205 0.394948C110.197 0.282075 110.19 0.1694 110.181 0.0569228L352.093 0.182507C362.035 0.187668 370.089 8.25072 370.084 18.1918L370.009 162.192C370.004 172.133 361.941 180.188 352 180.182L18 180.009ZM8.18377 20.4805C6.26081 13.5123 6.21246 7.8909 7.51429 3.43774C9.55829 1.9525 11.9268 0.886867 14.4933 0.367295C13.5936 1.46447 12.8188 2.68054 12.188 4.02116C9.93233 8.81528 9.56241 15.1087 11.7647 23.0733L11.7648 23.0735C15.1903 35.4488 18.6186 42.7469 21.1254 48.0831C22.0925 50.142 22.9225 51.9088 23.5622 53.5626C24.7085 56.5259 25.2695 59.1639 24.9884 62.5732C24.7051 66.0092 23.5641 70.2585 21.2411 76.4346L21.24 76.4375C16.4396 89.3937 23.8664 101.821 35.1803 108.811C46.5006 115.805 61.963 117.53 73.5785 108.903C82.0084 102.642 86.5022 97.6086 89.9072 93.7945L89.9073 93.7944C91.105 92.4527 92.1681 91.2619 93.2203 90.2217C95.2353 88.2298 97.2248 86.7652 100.094 85.7561C102.983 84.7401 106.8 84.1731 112.487 84.0485C118.448 83.9187 123.678 80.949 127.744 76.4753C131.807 72.0039 134.735 66.0028 136.115 59.7136C138.867 47.1685 135.481 33.1795 122.187 28.0038L122.186 28.0035C115.848 25.544 112.414 22.5575 110.509 19.4201C108.597 16.2725 108.172 12.8927 108.009 9.52313C107.977 8.87417 107.956 8.22136 107.934 7.56912L107.934 7.56835C107.849 4.95998 107.763 2.36101 107.038 0.0552912L108.928 0.0562723C108.946 0.291603 108.962 0.529328 108.976 0.769356C109.034 1.76569 109.057 2.76436 109.082 3.79151C109.1 4.55569 109.118 5.33562 109.152 6.14211C109.304 9.85253 109.763 13.7969 112.014 17.4956C114.271 21.2042 118.278 24.5841 125.364 27.2903C138.943 32.4762 142.517 46.693 139.576 59.9011C138.109 66.4885 135.028 72.75 130.826 77.3878C126.625 82.024 121.337 85.007 115.436 85.1399C109.294 85.2782 105.052 85.887 101.77 87.0377C98.4682 88.1953 96.1745 89.8885 93.9112 92.1237C92.7003 93.3195 91.5026 94.6628 90.1629 96.1652C86.5076 100.265 81.7954 105.549 72.8747 112.26C60.9093 121.261 44.7831 119.546 32.8526 112.173C20.9145 104.795 13.4367 91.933 18.4126 78.8243C20.98 72.0609 22.2862 67.3193 22.6139 63.4327C22.9439 59.5178 22.2788 56.5005 20.9711 53.196C20.2516 51.3779 19.3448 49.4831 18.3014 47.3029C15.5642 41.5835 11.8869 33.8997 8.18377 20.4805ZM13.3185 4.55307C14.1154 2.85944 15.163 1.37361 16.4231 0.0847118C16.9731 0.0343992 17.5303 0.0088248 18.0934 0.00911716L24.6 0.0124949C21.2677 1.81315 18.5903 4.39884 16.9576 7.87607C14.881 12.299 14.5375 18.073 16.5501 25.3339L16.5502 25.3343C19.6638 36.5422 22.7582 43.2725 25.0304 48.2144C25.9413 50.1954 26.72 51.8891 27.3148 53.4686C28.3535 56.2268 28.8599 58.6807 28.6079 61.8189C28.354 64.9821 27.3274 68.8705 25.2375 74.4887L25.2353 74.4949C20.9062 86.5208 27.7562 97.959 38.1649 104.387C48.5787 110.818 62.795 112.402 73.5306 104.549C81.3592 98.8219 85.5041 94.1849 88.6504 90.6649L88.651 90.6642C89.7328 89.454 90.6966 88.3758 91.6515 87.4308C93.51 85.5915 95.3479 84.2333 98.0043 83.2956C100.68 82.351 104.223 81.8202 109.511 81.7081C120.701 81.4737 128.945 70.8031 131.434 59.2542C133.93 47.6749 130.745 34.7344 118.565 29.8847L118.563 29.8841C112.793 27.6029 109.673 24.8609 107.936 21.9943C106.194 19.1172 105.794 16.0361 105.618 12.9546C105.586 12.4051 105.562 11.8521 105.538 11.2989C105.429 8.80275 105.319 6.30199 104.536 4.09489C104.003 2.59165 103.163 1.22808 101.841 0.0525933L105.721 0.0546073C105.745 0.123452 105.769 0.192572 105.792 0.261965C106.51 2.42474 106.592 4.85947 106.681 7.51916C106.704 8.19315 106.727 8.88158 106.761 9.58368C106.927 13.0019 107.361 16.644 109.441 20.0686C111.527 23.5032 115.216 26.639 121.734 29.168C134.211 34.0259 137.58 47.2056 134.894 59.4459C133.555 65.5494 130.717 71.3452 126.819 75.6351C122.923 79.9227 117.997 82.6788 112.46 82.7994C106.718 82.9252 102.749 83.4979 99.6793 84.5775C96.59 85.6641 94.4483 87.251 92.3419 89.3332C91.2307 90.4317 90.1334 91.6608 88.911 93.0301C85.5137 96.8356 81.1496 101.724 72.8335 107.9C61.7451 116.136 46.8597 114.558 35.837 107.748C24.8083 100.935 17.8971 89.0583 22.4111 76.8728C24.7454 70.6665 25.9358 66.2874 26.2336 62.6759C26.5336 59.0373 25.9253 56.2082 24.7275 53.1118C24.0514 51.3641 23.1959 49.5436 22.2094 47.4443C19.7077 42.1206 16.3638 35.0046 12.9689 22.7404C10.819 14.9651 11.2276 8.99698 13.3185 4.55307ZM78.0607 0.0402481L99.7699 0.051518C101.712 1.29519 102.758 2.81789 103.359 4.51263C104.073 6.5262 104.174 8.79262 104.285 11.2779L104.285 11.2784C104.31 11.8496 104.336 12.4323 104.37 13.0261C104.549 16.1517 104.96 19.4914 106.868 22.6416C108.782 25.8021 112.154 28.6938 118.103 31.0457C129.48 35.5758 132.642 47.719 130.213 58.991C127.777 70.2937 119.824 80.2425 109.484 80.459L109.484 80.459C104.141 80.5722 100.446 81.1088 97.5884 82.1174C94.7116 83.1329 92.722 84.6136 90.7726 86.5428C89.7609 87.544 88.7637 88.6596 87.6577 89.8968C84.5184 93.4085 80.503 97.9002 72.7929 103.54C62.5811 111.01 48.9362 109.57 38.8214 103.324C28.7026 97.075 22.3572 86.1839 26.4097 74.9212C28.511 69.2718 29.5855 65.2553 29.8533 61.9189C30.1232 58.557 29.5718 55.9165 28.4841 53.0283C27.8511 51.3475 27.0461 49.5977 26.1155 47.5749L26.1154 47.5747C23.8497 42.6498 20.8394 36.1064 17.754 24.9998C15.795 17.9317 16.1753 12.482 18.0886 8.40708C19.9486 4.4456 23.2979 1.697 27.5614 0.0140323L53.9123 0.0277119C55.9992 0.619341 58.0546 1.33107 60.0415 2.1538L60.0523 2.1583L60.0633 2.16237C66.3896 4.50785 71.7533 2.45423 77.1188 0.399943L77.5422 0.237916L77.9154 0.0955163L78.0607 0.0402481ZM68.6629 40.5051C66.288 39.2065 63.697 40.1186 61.9321 41.6579C61.0402 42.4359 60.3145 43.4059 59.8836 44.42C59.4546 45.4295 59.2978 46.5343 59.6339 47.5395C61.2383 52.3387 61.2074 55.7679 61.1852 58.2249C61.1827 58.4973 61.1804 58.7578 61.1804 59.0069C61.1804 62.523 62.7418 65.0141 65.0374 66.4042C67.3073 67.7787 70.2329 68.0411 72.943 67.2622C74.3052 66.8707 75.2167 66.3472 75.9225 65.7713C76.4094 65.3738 76.8109 64.9347 77.1624 64.5503C77.297 64.403 77.4242 64.2638 77.5462 64.1381C78.0031 63.6667 78.4783 63.2691 79.2197 62.9774C79.9748 62.6803 81.0483 62.477 82.7175 62.477C84.9176 62.477 86.5451 61.8716 87.6453 60.8198C88.7428 59.7706 89.2374 58.3519 89.322 56.8771C89.4892 53.9634 88.0732 50.6278 86.1331 48.7601C85.165 47.828 84.8635 47.1663 84.5456 46.4685C84.3967 46.1416 84.2442 45.8069 84.0179 45.4327C83.3123 44.266 82.0906 43.2787 78.7128 42.0547C77.9896 41.7927 77.1994 41.7039 76.4017 41.6719C75.9268 41.6528 75.4099 41.6537 74.8904 41.6546C74.5588 41.6551 74.2262 41.6557 73.9028 41.6511C72.1867 41.6265 70.4106 41.4607 68.6629 40.5051ZM58.0078 0.029838C58.8519 0.332751 59.6863 0.654687 60.5085 0.994927C65.5658 2.86596 69.9371 1.72202 74.5334 0.0384169L58.0078 0.029838ZM60.8188 47.1434C60.6088 46.5151 60.6819 45.736 61.0334 44.9087C61.383 44.086 61.9886 43.2665 62.7533 42.5995C64.3015 41.2492 66.3249 40.6507 68.0635 41.6014C70.0827 42.7055 72.1078 42.8749 73.8849 42.9003C74.2565 42.9056 74.6055 42.9049 74.9405 42.9041L74.9411 42.9041C75.4321 42.9029 75.8932 42.9019 76.3517 42.9203C77.1036 42.9504 77.7433 43.0323 78.2872 43.2294C81.581 44.4229 82.4679 45.2841 82.9488 46.0793C83.0755 46.2887 83.1883 46.5335 83.3148 46.8082L83.3149 46.8084C83.6649 47.5681 84.1204 48.5567 85.2666 49.6602C86.9557 51.2862 88.2201 54.2716 88.0747 56.8055C88.003 58.0546 87.593 59.1414 86.782 59.9167C85.9738 60.6894 84.689 61.2276 82.7175 61.2276C80.9558 61.2276 79.7127 61.4408 78.7623 61.8148C77.7981 62.1941 77.1789 62.722 76.6491 63.2684C76.4781 63.4448 76.3245 63.613 76.1758 63.776L76.1754 63.7763C75.8488 64.1341 75.5454 64.4663 75.1325 64.8033C74.5636 65.2676 73.8049 65.7145 72.5979 66.0614C70.1699 66.7592 67.6128 66.5031 65.6845 65.3354C63.7819 64.1834 62.4298 62.1087 62.4298 59.0069C62.4298 58.7626 62.4322 58.505 62.4347 58.2338L62.4347 58.2334L62.4347 58.233L62.4347 58.2326C62.4577 55.7563 62.4911 52.1457 60.8188 47.1434ZM77.0555 3.47324C82.3112 1.54921 88.0232 -0.371221 95.2461 2.2398L95.0547 2.76929L95.2462 2.23981C99.174 3.65994 101.121 5.77306 102.094 8.31978C102.882 10.382 103.014 12.7131 103.144 15.0246C103.17 15.4796 103.196 15.934 103.226 16.3853C103.416 19.1792 103.79 21.9619 105.364 24.5688C106.932 27.1649 109.738 29.6624 114.941 31.7653L114.943 31.7662C126.009 36.2901 128.992 48.1809 126.753 58.7947C124.52 69.3823 116.99 79.1591 106.534 79.3679L106.534 79.3679L106.521 78.7433L106.534 79.3679C101.647 79.4675 98.3777 79.9621 95.9148 80.8352C93.471 81.7015 91.7849 82.9533 90.0827 84.6401C89.2243 85.4907 88.3589 86.4575 87.3917 87.538L87.3916 87.5381C84.5039 90.7641 80.7084 95.004 73.4819 100.195C63.6266 107.274 50.6569 105.831 41.1496 99.963C31.6457 94.0967 25.3733 83.6484 29.2302 72.5536L29.2337 72.5435L29.2338 72.5435C31.0904 67.4835 32.0028 63.9556 32.2274 61.0651C32.4503 58.1975 31.9984 55.9272 31.0672 53.3741C30.5172 51.8664 29.789 50.2417 28.9331 48.3324L28.9329 48.3321C26.8955 43.787 24.135 37.6288 21.3356 27.5954L21.3355 27.5948C19.5126 21.0372 19.8297 15.7827 21.7272 11.7313C23.6266 7.67579 27.0681 4.91464 31.3163 3.2674C39.7765 -0.013028 51.5507 1.069 61.4081 5.17874L61.3981 5.17502L61.1778 5.75954L61.4183 5.18301L61.4081 5.17874C66.8407 7.22275 71.4444 5.5328 76.5125 3.67236L76.5465 3.65988L76.8473 3.54954L77.0555 3.47324ZM76.8389 4.8837C71.8526 6.71729 66.8381 8.5612 60.9574 6.34408L60.9472 6.34026L60.9372 6.33608C51.271 2.30344 39.8392 1.30271 31.768 4.43229C27.7491 5.99062 24.5926 8.55899 22.8586 12.2612C21.1227 15.9676 20.771 20.8992 22.5392 27.2602C25.3138 37.2048 27.9896 43.1683 30.0185 47.6898L30.0186 47.6901C30.8948 49.6428 31.6503 51.3266 32.2409 52.9459C33.2184 55.6257 33.7128 58.0772 33.4731 61.1619C33.2352 64.2227 32.2769 67.8763 30.4086 72.9687C26.8168 83.3095 32.5972 93.2158 41.8058 98.8999C51.0125 104.583 63.4176 105.886 72.753 99.1801C79.8556 94.0783 83.5216 89.9837 86.4028 86.7655L86.403 86.7653C87.3932 85.6593 88.2908 84.6569 89.2033 83.7526C90.9956 81.9765 92.8332 80.602 95.4973 79.6576C98.1422 78.72 101.564 78.2195 106.508 78.1188L106.509 78.1188C116.117 77.9269 123.352 68.8671 125.531 58.5368C127.704 48.2332 124.748 37.1253 114.471 32.9232C109.091 30.7482 106.037 28.1007 104.295 25.2146C102.558 22.3392 102.172 19.3025 101.98 16.47C101.947 15.9839 101.919 15.5065 101.892 15.0379C101.759 12.727 101.639 10.6295 100.927 8.76556C100.101 6.60211 98.4542 4.72825 94.8214 3.41478C88.0512 0.967416 82.7177 2.73088 77.485 4.64649L77.3607 4.692C77.1961 4.75235 77.0315 4.81288 76.8669 4.87341L76.8389 4.8837ZM93.1786 6.9879C86.6749 4.63672 81.4553 6.33919 76.6416 8.01824L76.2597 8.15159C71.5689 9.79043 67.3051 11.2801 62.3083 9.36285C53.4075 5.61835 42.7924 4.76333 35.1588 7.82617C31.325 9.36438 28.2162 11.9043 26.4967 15.5867C24.7786 19.2663 24.4876 24.0011 26.1209 29.8558L26.1211 29.8567C27.9245 36.2866 29.6821 40.9514 31.2012 44.6133C31.7815 46.0123 32.3213 47.2523 32.8135 48.3831L32.8145 48.3855L32.815 48.3866L32.8152 48.3869C33.6206 50.2371 34.2987 51.7949 34.8192 53.2784C35.6433 55.6269 36.0407 57.7141 35.8469 60.3117C35.6516 62.9299 34.8533 66.0973 33.2299 70.599L33.2273 70.6063L33.2248 70.6136C29.8412 80.7762 35.5349 90.2342 44.1343 95.5391C52.7353 100.845 64.4578 102.146 73.4324 95.8417C80.0558 91.1892 83.5013 87.3464 86.1305 84.4141L86.1309 84.4137C86.9843 83.4618 87.7518 82.6059 88.5141 81.8493C90.0599 80.315 91.5944 79.1697 93.8255 78.3748C96.0754 77.5732 99.0711 77.1148 103.557 77.0278C113.279 76.8445 120.095 67.9621 122.073 58.3347C124.055 48.6861 121.272 37.8464 111.323 33.6483L111.32 33.647C106.685 31.7225 104.191 29.4696 102.792 27.1436C101.386 24.8062 101.038 22.3215 100.835 19.8145C100.806 19.4595 100.78 19.1021 100.755 18.7437C100.602 16.6191 100.446 14.4591 99.6503 12.5422C98.6913 10.2315 96.8328 8.30926 93.1786 6.9879ZM103.557 77.0278L103.545 76.4032L103.557 77.0278L103.557 77.0278ZM62.3083 9.36285L62.3175 9.36673L62.0751 9.9425L62.2993 9.3594L62.3083 9.36285ZM61.8509 10.5256C67.2864 12.6152 71.9525 10.9825 76.5604 9.37016L76.5892 9.3601C76.7438 9.30597 76.8985 9.25185 77.0531 9.19793C81.8534 7.52356 86.6968 5.97317 92.7538 8.16287C96.1322 9.3845 97.6925 11.0842 98.4963 13.0211C99.2076 14.735 99.3487 16.6629 99.5051 18.7994L99.5051 18.7995C99.5319 19.1653 99.5591 19.5373 99.5897 19.9153C99.7953 22.4541 100.157 25.1875 101.721 27.7876C103.292 30.3986 106.027 32.802 110.839 34.8001C120.018 38.6742 122.767 48.7482 120.849 58.0832C118.927 67.4399 112.411 75.6113 103.533 75.7786L103.533 75.7786C98.9879 75.8668 95.8387 76.3312 93.4062 77.1979C90.9547 78.0712 89.2691 79.3396 87.6339 80.9625C86.8202 81.7702 86.0217 82.6605 85.146 83.6368C82.5228 86.5616 79.2072 90.2585 72.7142 94.8193C64.2545 100.762 53.0888 99.595 44.7903 94.4758C36.4923 89.3569 31.2758 80.4352 34.4078 71.0155C36.0431 66.48 36.8851 63.1895 37.0929 60.4047C37.3023 57.5977 36.8652 55.3358 35.9982 52.8647C35.4644 51.3434 34.7552 49.7133 33.9331 47.8238L33.933 47.8235L33.9325 47.8223C33.4424 46.6958 32.9122 45.4772 32.3552 44.1345C30.8518 40.5105 29.1119 35.8933 27.3242 29.5196C25.7472 23.8665 26.0702 19.4533 27.6288 16.1153C29.1861 12.7801 32.0169 10.433 35.624 8.98572C42.8694 6.07867 53.1362 6.85724 61.8327 10.5183L61.8418 10.5221L61.8509 10.5256ZM63.2091 13.6619C67.7725 15.4538 71.6995 14.1647 76.0136 12.7484L76.2298 12.6775C80.6004 11.2436 85.3274 9.75963 91.1112 11.8507C94.4905 13.0728 96.2591 14.8032 97.2046 16.876C98.0125 18.647 98.1936 20.6339 98.37 22.5693L98.3704 22.5739C98.3943 22.8359 98.4181 23.0969 98.4434 23.3563C98.6597 25.5773 98.9819 27.7647 100.22 29.8332C101.451 31.8898 103.633 33.8983 107.7 35.644L107.704 35.6459C116.535 39.5183 119.117 49.305 117.392 57.9886C115.67 66.6573 109.567 74.6445 100.58 74.8023C96.4953 74.8769 93.7734 75.299 91.7365 76.0291C89.7181 76.7525 88.3352 77.7913 86.9456 79.1732C86.2785 79.8366 85.6079 80.5831 84.8665 81.4085L84.8664 81.4086C82.4956 84.0477 79.4006 87.4931 73.3815 91.6041C65.2885 97.1316 54.8141 95.9735 47.1191 91.23C39.4236 86.4862 34.3101 78.0191 37.2191 68.7901L37.2222 68.7801L37.2257 68.7702C38.6159 64.827 39.3003 62.0198 39.4665 59.6734C39.6314 57.345 39.288 55.4402 38.571 53.296C38.0933 51.8675 37.4605 50.3596 36.7027 48.5535C36.304 47.6033 35.8706 46.5706 35.407 45.4236C34.0717 42.1197 32.5182 37.9408 30.9068 32.2329L30.9065 32.2317C29.4625 27.0794 29.7278 22.8643 31.2663 19.557C32.8054 16.2484 35.5809 13.9298 38.9997 12.5004C45.8066 9.65462 55.2634 10.2818 63.2091 13.6619ZM32.1093 31.8939C30.7237 26.9493 31.0175 23.0541 32.3991 20.084C33.7802 17.1151 36.286 14.9892 39.4817 13.6531C45.9016 10.9691 55.0027 11.5264 62.7279 14.8149L62.7358 14.8183L62.7439 14.8215C67.7344 16.7847 72.0535 15.3652 76.2836 13.9748L76.6193 13.8646C80.9883 12.4312 85.3417 11.0934 90.6863 13.0257C93.8115 14.1559 95.2869 15.6824 96.0679 17.3946C96.7812 18.9581 96.9434 20.7156 97.1247 22.678C97.1489 22.9408 97.1736 23.2073 97.1999 23.4775C97.4185 25.7216 97.757 28.1511 99.1482 30.475C100.546 32.8105 102.963 34.9697 107.205 36.7911C115.288 40.3371 117.829 49.3792 116.167 57.7451C114.502 66.1265 108.705 73.4103 100.558 73.5532L100.557 73.5532C96.4113 73.6288 93.5352 74.0572 91.3149 74.8529C89.0761 75.6553 87.5425 76.8176 86.0646 78.2873C85.3492 78.9987 84.6491 79.7777 83.8868 80.6259C81.5217 83.2576 78.5575 86.5559 72.6768 90.5724C65.0922 95.7527 55.1648 94.722 47.7748 90.1664C40.3881 85.613 35.734 77.6754 38.4076 69.1756C39.8097 65.1969 40.5351 62.27 40.7128 59.7617C40.8918 57.2333 40.5122 55.1616 39.7559 52.8997C39.2638 51.4281 38.6017 49.8498 37.8302 48.0106L37.8301 48.0105L37.8298 48.0096C37.4343 47.067 37.0101 46.0558 36.5654 44.9554C35.2434 41.6844 33.7059 37.5491 32.1093 31.8939ZM75.7766 17.4847C71.8383 18.677 68.2438 19.7652 64.1108 18.0966C57.1178 15.0796 48.818 14.6816 42.8386 17.311C39.8352 18.6317 37.3941 20.7289 36.0358 23.6628C34.6774 26.5971 34.4372 30.2922 35.6922 34.7432L35.6926 34.7447C37.1119 39.73 38.4612 43.4226 39.6125 46.3678C39.9545 47.2428 40.2768 48.0465 40.5771 48.7955L40.5774 48.7962L40.5775 48.7965L40.5776 48.7967C41.2942 50.5838 41.8859 52.0592 42.3223 53.4468C42.9326 55.3874 43.2222 57.1107 43.0861 59.171C42.949 61.2463 42.378 63.6938 41.2212 67.0781L41.2167 67.0912L41.2128 67.1044C38.7803 75.3978 43.3118 82.8731 50.1041 87.0562C56.8932 91.2374 66.1183 92.2522 73.3287 87.503C78.742 83.9374 81.486 80.8895 83.5984 78.5429L83.5986 78.5427C84.2297 77.8417 84.8045 77.2032 85.3772 76.6323C86.6107 75.4027 87.8421 74.4704 89.6477 73.8185C91.4715 73.1602 93.9193 72.7743 97.6025 72.7122L97.5925 72.0898L97.603 72.7122C105.853 72.5801 111.245 65.4891 112.712 57.7768C114.18 50.0576 111.796 41.3266 104.088 37.78L104.082 37.7773C100.583 36.2105 98.7124 34.4466 97.6486 32.6586C96.5771 30.8577 96.2813 28.9668 96.0513 27.0305C96.0312 26.8614 96.0117 26.6914 95.992 26.5208L95.992 26.5205L95.9919 26.5201L95.9919 26.5198L95.9918 26.5195C95.791 24.7761 95.5824 22.965 94.7561 21.341C93.8238 19.5087 92.1467 17.9712 89.0438 16.8488C83.9809 15.0182 79.7469 16.2828 75.8208 17.4713L75.7766 17.4847ZM37.1696 24.1877C35.9646 26.7906 35.7005 30.1679 36.8945 34.4033C38.3001 39.3406 39.6352 42.9943 40.7761 45.9129C41.1052 46.7548 41.4203 47.5407 41.7174 48.2816C42.4439 50.0932 43.0625 51.6361 43.5141 53.072C44.1595 55.1241 44.4813 57.0048 44.3328 59.2534C44.1854 61.4843 43.577 64.0471 42.4079 67.4691C40.1912 75.0507 44.2847 82.0049 50.7592 85.9923C57.2406 89.984 65.9308 90.8796 72.6415 86.4596C77.9062 82.9919 80.5174 80.0932 82.6244 77.7542C83.275 77.032 83.8775 76.3632 84.4952 75.7474C85.8158 74.431 87.1972 73.3748 89.2235 72.6434C91.2316 71.9184 93.8348 71.5261 97.5819 71.463L97.5825 71.463C105.001 71.3444 110.076 64.9474 111.485 57.5433C112.891 50.1469 110.558 42.1342 103.569 38.9163C99.8959 37.2714 97.7998 35.3563 96.5748 33.2974C95.3571 31.2507 95.042 29.1259 94.8106 27.1779C94.7916 27.0176 94.7731 26.8589 94.7548 26.7018L94.754 26.6948C94.546 24.9065 94.3615 23.3206 93.6425 21.9075C92.8844 20.4174 91.4923 19.0631 88.6188 18.0237C83.9856 16.3485 80.1219 17.4746 76.1828 18.6671L76.0096 18.7196C72.1562 19.8869 68.1822 21.0907 63.6358 19.2522L63.6291 19.2495L63.6224 19.2466C56.8707 16.3317 48.9365 15.9944 43.3415 18.4547C40.5568 19.6793 38.3749 21.5842 37.1696 24.1877ZM65.0137 22.5394C68.6733 24.0678 71.9054 23.2236 75.4158 22.2721L75.5275 22.2418C78.9754 21.3069 82.6827 20.3017 86.9766 21.8545C89.8014 22.8765 91.3846 24.22 92.3032 25.808C93.1568 27.2837 93.3958 28.9154 93.6226 30.464L93.6584 30.7078C93.9026 32.3616 94.1716 33.957 95.0773 35.492C95.9747 37.0128 97.5353 38.5324 100.468 39.9199L100.475 39.9234C107.057 43.1441 109.243 50.8157 108.032 57.571C106.821 64.3301 102.139 70.5234 94.6259 70.6297L94.6165 70.0051L94.6253 70.6297C91.3436 70.6793 89.17 71.0288 87.5595 71.6155C85.9665 72.1957 84.8866 73.0215 83.8092 74.0988C83.3297 74.5783 82.8495 75.1103 82.3266 75.6897L82.3259 75.6904L82.3256 75.6908C80.4711 77.7457 78.0789 80.3964 73.2731 83.4111C66.947 87.3795 58.973 86.5092 53.0892 82.89C47.1993 79.2671 43.2524 72.7846 45.2061 65.4297L45.2106 65.4127L45.2161 65.3959C46.1397 62.5708 46.5976 60.4824 46.7058 58.6771C46.8133 56.8832 46.5771 55.3402 46.0731 53.6026C45.6749 52.2295 45.1165 50.755 44.4285 48.9384C44.2348 48.4271 44.0309 47.8886 43.8174 47.3177C42.8504 44.732 41.7056 41.5264 40.4787 37.2645L40.4781 37.2625C39.4118 33.5117 39.6275 30.3368 40.8054 27.7765C41.9821 25.2186 44.0874 23.3432 46.6745 22.1309C51.8256 19.717 58.9702 19.8836 65.0137 22.5394ZM41.6796 36.9199C40.6777 33.3951 40.9114 30.5354 41.9404 28.2986C42.9706 26.0593 44.8299 24.3751 47.2047 23.2622C51.9757 21.0264 58.7414 21.1461 64.5162 23.6856L64.5266 23.69C68.6298 25.4059 72.2619 24.4214 75.7398 23.4787L75.7426 23.478L75.7471 23.4768C79.2568 22.5255 82.6298 21.6112 86.5515 23.0294C89.1749 23.9785 90.4861 25.1618 91.2217 26.4336C91.9522 27.6965 92.1602 29.1093 92.3977 30.7228L92.4224 30.8903C92.666 32.5402 92.9583 34.3592 94.0013 36.1269C95.0522 37.9079 96.8268 39.5786 99.9294 41.0474C105.831 43.9375 107.954 50.9245 106.802 57.3506C105.651 63.7741 101.298 69.2861 94.6077 69.3804L94.607 69.3804C91.2583 69.431 88.9279 69.7873 87.1319 70.4415C85.3182 71.1022 84.0889 72.0523 82.9258 73.2153C82.4052 73.7358 81.8994 74.2957 81.3588 74.8942L81.3581 74.8949L81.3581 74.895L81.3577 74.8954C79.509 76.9421 77.2529 79.4397 72.6092 82.3527C66.7708 86.0151 59.316 85.2533 53.7438 81.8258C48.1823 78.4049 44.647 72.4332 46.4092 65.7672C47.345 62.9018 47.836 60.7039 47.953 58.7518C48.0709 56.7845 47.8072 55.0962 47.2731 53.2546C46.8597 51.829 46.2775 50.2921 45.5855 48.4653L45.5851 48.4644L45.5839 48.4612C45.3931 47.9575 45.1939 47.4316 44.9876 46.88C44.0276 44.3129 42.8945 41.14 41.6796 36.9199ZM75.0166 27.0829C71.9529 27.7885 69.0921 28.3765 65.9186 26.9939C60.819 24.6959 54.8268 24.7649 50.5059 26.9643C48.3364 28.0686 46.569 29.7216 45.5748 31.9015C44.5785 34.0859 44.3859 36.7405 45.2644 39.7933L45.2651 39.7959C46.2992 43.3328 47.2393 46.0506 48.0216 48.2753L48.2249 48.853C48.9136 50.8081 49.457 52.351 49.8235 53.7652C50.6087 56.7955 50.5818 59.2273 49.21 63.7286L49.2036 63.7496L49.1987 63.7709C47.7269 70.183 51.0859 75.6712 56.0746 78.7346C61.0536 81.7921 67.774 82.5161 73.213 79.3324C77.4093 76.8761 79.449 74.6223 81.046 72.8576L81.0463 72.8573L81.0464 72.8571C81.4649 72.3948 81.853 71.9659 82.2415 71.5759C83.1632 70.6506 84.0917 69.9315 85.4719 69.423C86.8691 68.9082 88.7686 68.595 91.6487 68.5579C98.4222 68.4777 102.397 63.1844 103.353 57.3737C104.306 51.5813 102.316 44.9747 96.8673 42.0806L96.8582 42.076C94.4921 40.8683 93.2392 39.5927 92.5067 38.3369C91.7711 37.0755 91.5275 35.7854 91.2704 34.4232L91.2639 34.3888C91.0094 33.0405 90.7347 31.599 89.8436 30.2787C88.9401 28.94 87.4544 27.792 84.9095 26.871C81.4104 25.6054 78.2559 26.3344 75.3096 27.0152L75.0166 27.0829ZM46.7116 32.4199C45.8576 34.2923 45.6557 36.6345 46.4647 39.4466C47.4893 42.951 48.4207 45.6439 49.2002 47.8609L49.4077 48.4501C50.0904 50.3879 50.6523 51.983 51.0329 53.4518C51.8871 56.7482 51.8281 59.4164 50.4116 64.0715C49.1009 69.8257 52.0812 74.8163 56.7284 77.6699C61.391 80.5331 67.6128 81.1627 72.5818 78.2541C76.5971 75.9038 78.4948 73.8096 80.0853 72.0544L80.0854 72.0543L80.0855 72.0543L80.0856 72.0541C80.5198 71.575 80.9311 71.1211 81.3563 70.6942C82.3618 69.6848 83.4388 68.8405 85.04 68.2506C86.6241 67.667 88.6819 67.3467 91.6326 67.3086L91.6333 67.3086C97.5982 67.2383 101.226 62.6091 102.12 57.171C103.017 51.7161 101.105 45.7493 96.2856 43.1864C93.7537 41.8933 92.3029 40.4673 91.4275 38.9663C90.5823 37.5171 90.3044 36.043 90.055 34.7202L90.0362 34.6206C89.7767 33.246 89.5348 32.0545 88.808 30.9776C88.0935 29.919 86.8596 28.9054 84.4845 28.0458C81.3372 26.9075 78.5068 27.5602 75.4947 28.2548L75.297 28.3004C72.2453 29.0032 69.007 29.7037 65.4157 28.1376L65.4087 28.1345C60.6161 25.9736 55.0218 26.0675 51.0726 28.0778C49.1066 29.0785 47.5678 30.5426 46.7116 32.4199ZM54.3301 31.8187C57.8166 29.8327 62.6615 29.5197 66.8264 31.4656C69.518 32.7037 72.0112 32.3692 74.6264 31.909C74.788 31.8806 74.9502 31.8516 75.1132 31.8225C77.5486 31.3873 80.1374 30.9247 82.8427 31.9035L82.8428 31.9035C85.1056 32.7226 86.4884 33.674 87.3731 34.7561C88.2568 35.837 88.5924 36.9897 88.8658 38.0736C88.8949 38.1889 88.9232 38.3031 88.9514 38.4164C89.1923 39.387 89.4165 40.2904 89.9373 41.1993C90.5073 42.194 91.4563 43.2265 93.2577 44.2535L93.2682 44.2595L93.2681 44.2596C97.5729 46.8248 99.3681 52.3577 98.6744 57.1887C98.3252 59.6207 97.3407 61.9332 95.6718 63.6518C93.9931 65.3805 91.652 66.4756 88.6714 66.5022C86.1938 66.5269 84.569 66.8036 83.3854 67.2463C82.2179 67.6829 81.4407 68.2952 80.6746 69.0687C80.375 69.3711 80.0766 69.6998 79.7587 70.0499L79.758 70.0507L79.7574 70.0513C78.4169 71.528 76.7297 73.3866 73.145 75.2735C68.5985 77.6666 63.1357 77.0916 59.0606 74.5954C54.9715 72.0907 52.205 67.5986 53.1909 62.1364L53.1955 62.1107L53.2023 62.0854C54.1118 58.6969 54.1517 56.5794 53.5734 53.9381C53.2793 52.5946 52.8238 51.1115 52.2248 49.2442C52.1116 48.8913 51.9934 48.5251 51.8705 48.1441L51.8696 48.1414C51.3445 46.5145 50.7328 44.619 50.0524 42.3445L50.0514 42.3414C49.3593 39.9828 49.5313 37.8487 50.3443 36.0433C51.1542 34.2447 52.5807 32.8152 54.3301 31.8187ZM51.2498 41.988C50.6352 39.8924 50.8029 38.0676 51.4835 36.5563C52.1673 35.0379 53.3887 33.7928 54.9485 32.9043C58.08 31.1206 62.4979 30.8216 66.2991 32.5983L66.3025 32.5998C69.3766 34.0145 72.2167 33.6017 74.843 33.1395L75.0767 33.0982L75.2635 33.0651C77.7623 32.6214 80.0378 32.2173 82.4175 33.0783L69.8137 36.6813C69.1281 36.5376 68.438 36.3094 67.7394 35.964C64.4911 34.3579 60.7837 34.9361 58.1421 36.7075C56.5893 37.7487 55.3674 39.233 54.831 40.9643C54.4537 42.1822 54.4156 43.5223 54.84 44.9165L54.8411 44.9199C57.4296 53.2527 58.0886 55.9482 57.1916 60.4872L57.1864 60.5134L57.1834 60.54C56.6885 65.0404 58.8561 68.5336 62.0476 70.4807C65.2199 72.4161 69.4189 72.8378 73.0616 71.2448C76.0341 69.9448 77.3701 68.4775 78.4559 67.285C78.6802 67.0387 78.8937 66.8041 79.1089 66.5851C79.72 65.963 80.3461 65.4578 81.3006 65.0934C82.2702 64.7232 83.6197 64.4831 85.6936 64.4708C88.2893 64.4575 90.2724 63.6048 91.6598 62.2149C93.0381 60.8341 93.7788 58.9737 93.997 57.0212C94.4298 53.1496 92.8257 48.7044 89.6848 46.4748L89.675 46.4681C88.4341 45.6224 87.7824 44.8302 87.3701 44.0888C87.0555 43.523 86.8784 42.9947 86.6862 42.4211C86.6148 42.2081 86.5414 41.9889 86.458 41.7592C86.1572 40.9305 85.7543 40.075 84.8847 39.2468C84.027 38.4299 82.7551 37.6767 80.7768 36.9603C78.8625 36.2673 76.8612 36.4817 74.9515 36.6862L74.9465 36.6868C74.7133 36.7117 74.4814 36.7366 74.2512 36.7595C72.7686 36.9076 71.3022 36.9935 69.8137 36.6813L82.4177 33.0783C84.5468 33.8491 85.7087 34.6943 86.4059 35.5469C87.1039 36.4007 87.3873 37.3208 87.6544 38.3792C87.6825 38.4907 87.7105 38.6039 87.7388 38.7189C87.9753 39.6769 88.2405 40.7511 88.8533 41.8205C89.5506 43.0375 90.6741 44.2177 92.6336 45.3359C96.383 47.5737 98.0813 52.529 97.4377 57.0112C97.1181 59.2368 96.2255 61.2881 94.7754 62.7814C93.3353 64.2644 91.3155 65.2293 88.6596 65.2529L88.659 65.2529C86.1057 65.2783 84.3201 65.5628 82.9477 66.0761C81.559 66.5954 80.6344 67.3338 79.7869 68.1894C79.4553 68.5242 79.1364 68.8749 78.8049 69.2393L78.8047 69.2396C77.4729 70.7039 75.9382 72.3914 72.563 74.1679C68.4581 76.3286 63.4652 75.8283 59.7132 73.53C55.9817 71.2443 53.5516 67.2328 54.4159 62.3836C55.3629 58.8451 55.4194 56.5276 54.7939 53.6709C54.4854 52.262 54.0123 50.7264 53.4145 48.8626C53.3002 48.5064 53.1812 48.1377 53.0577 47.7549L53.0573 47.7536C52.5325 46.1276 51.9258 44.2477 51.2498 41.988ZM85.6936 64.4708L85.6941 64.4708L85.6904 63.8473L85.6936 64.4708ZM58.4225 60.7027C59.3804 55.8311 58.6115 52.8461 56.0348 44.551C55.6009 43.1244 55.7573 41.7456 56.3409 40.5327C56.8665 39.4403 57.7385 38.4824 58.838 37.7451C61.1621 36.1867 64.3939 35.7036 67.1856 37.084C67.3412 37.1609 67.4963 37.2326 67.651 37.2996C70.0329 38.3299 72.3075 38.2093 74.3754 38.0028C74.6125 37.9791 74.8458 37.9546 75.0755 37.9304C77.0275 37.7252 78.726 37.5467 80.3514 38.135C82.2371 38.8179 83.3351 39.4963 84.023 40.1515C84.6991 40.7954 85.0175 41.4526 85.2836 42.1855C85.3464 42.3585 85.408 42.5428 85.4725 42.7354L85.4725 42.7356C85.6739 43.3372 85.9024 44.0204 86.2782 44.696C86.7928 45.6214 87.5826 46.5532 88.9663 47.4971C91.6657 49.4166 93.1475 53.3747 92.7554 56.8824C92.5611 58.6207 91.9109 60.1948 90.7756 61.3322C89.6492 62.4606 87.9957 63.2096 85.6872 63.2214L85.6867 63.2214C83.53 63.2342 82.0161 63.4829 80.855 63.9262C79.6787 64.3753 78.9066 65.0082 78.2176 65.7095C77.9768 65.9546 77.7469 66.2065 77.5126 66.463L77.512 66.4636C76.4395 67.6384 75.276 68.9127 72.561 70.1C69.3088 71.5223 65.5387 71.147 62.6983 69.4142C59.8833 67.6967 57.997 64.6599 58.4225 60.7027Z" fill="#32568F"/>
</svg>
