<svg width="371" height="181" viewBox="0 0 371 181" fill="none" xmlns="http://www.w3.org/2000/svg">
<path fill-rule="evenodd" clip-rule="evenodd" d="M18 180.009C8.05888 180.004 0.00418362 171.941 0.00934437 162L0.0840994 18C0.0892601 8.0589 8.15232 0.00420055 18.0934 0.0093613L146.7 0.0761249C146.148 1.00844 145.635 1.97541 145.162 2.97764C140.66 12.5297 139.897 25.1894 144.37 41.3981C151.376 66.7868 158.409 81.4837 163.559 92.2463L163.559 92.2468C165.493 96.2878 167.161 99.7741 168.463 103.064C170.843 109.078 172.022 114.468 171.43 121.488C170.836 128.537 168.454 137.258 163.645 149.926C159.697 160.328 159.759 170.602 162.741 180.084L18 180.009ZM335.75 0.174267L330.383 0.171481C330.712 0.881567 330.997 1.61038 331.245 2.35627C332.685 6.69254 332.847 11.6053 333.013 16.6331C333.054 17.8688 333.095 19.1114 333.156 20.3542C333.464 26.7079 334.267 33.1749 337.933 39.2119C341.593 45.2388 348.158 50.917 360.149 55.5696L360.149 55.5699C363.861 57.0148 367.157 58.8311 370.062 60.9543L370.065 54.7223C368.924 54.1791 367.741 53.6723 366.516 53.2042C353.277 48.1485 345.861 41.8621 341.7 35.0246C337.545 28.1969 336.686 20.901 336.4 13.9511C336.339 12.4591 336.304 10.9985 336.27 9.5619L336.27 9.55897C336.224 7.61661 336.179 5.71805 336.07 3.84489C335.998 2.59192 335.897 1.36715 335.75 0.174267ZM330.059 2.75002C329.765 1.86507 329.415 1.00422 328.996 0.170761L317.756 0.164926C322.631 2.83109 325.241 6.30762 326.661 10.31C328.102 14.3725 328.304 18.9687 328.51 23.6562C328.556 24.7038 328.602 25.756 328.662 26.8078C328.995 32.6182 329.751 38.5222 333.098 44.0491C336.44 49.5655 342.414 54.7844 353.337 59.1026L353.338 59.1031C360.536 61.9689 366.044 66.364 370.056 71.7238L370.061 62.5214C367.062 60.2158 363.616 58.2603 359.697 56.7344C347.526 52.0121 340.705 46.1846 336.865 39.8605C333.03 33.5464 332.218 26.8171 331.908 20.4147C331.845 19.1196 331.802 17.842 331.76 16.5851L331.76 16.5847L331.76 16.5839C331.593 11.5756 331.436 6.89735 330.059 2.75002ZM370.025 132.542L370.019 144.316C369.834 144.526 369.648 144.734 369.46 144.94C362.064 153.08 352.673 158.353 342.081 158.584C331.314 158.82 323.922 159.894 318.233 161.895C312.524 163.903 308.566 166.831 304.648 170.704C302.586 172.743 300.538 175.036 298.252 177.597C297.516 178.422 296.755 179.274 295.962 180.154L289.814 180.15C292.539 177.344 294.824 174.787 296.887 172.479L296.888 172.479C298.932 170.192 300.758 168.149 302.578 166.348C306.11 162.852 309.631 160.246 314.72 158.449C319.828 156.646 326.554 155.646 336.515 155.435C350.825 155.135 362.596 145.571 370.025 132.542ZM370.026 129.943C362.84 143.705 350.92 153.884 336.489 154.186C326.472 154.398 319.594 155.404 314.304 157.271C308.995 159.145 305.322 161.874 301.699 165.46C299.822 167.317 297.963 169.397 295.895 171.711C293.634 174.24 291.123 177.049 288.068 180.15L281.212 180.146C287.083 174.913 291.127 170.395 294.524 166.601C296.352 164.559 297.992 162.726 299.629 161.104C302.868 157.895 306.103 155.488 310.792 153.826C315.501 152.157 321.713 151.225 330.921 151.037C350.199 150.652 364.22 132.594 368.393 112.81C372.572 92.9995 366.977 70.9973 346.528 62.6372L346.525 62.6363C336.67 58.6526 331.287 53.893 328.264 48.8867C325.234 43.8695 324.526 38.5283 324.169 33.2608C324.11 32.4001 324.061 31.5388 324.012 30.68L324.012 30.6724L324.012 30.6719C323.765 26.3276 323.522 22.05 322.075 18.2621C320.312 13.6446 316.785 9.77862 309.533 7.15664C296.158 2.32173 285.59 5.86179 275.723 9.47389C275.365 9.60485 275.008 9.73584 274.652 9.8665C265.167 13.3499 256.333 16.5937 245.925 12.6739C227.484 4.98287 205.505 2.98431 189.775 9.08337C181.892 12.1399 175.55 17.2442 172.053 24.7104C168.559 32.1724 167.947 41.9052 171.349 54.1423L171.349 54.1429C176.599 72.9593 181.749 84.4458 185.575 92.9779C187.192 96.5859 188.573 99.6657 189.625 102.548C191.395 107.402 192.263 111.748 191.837 117.232C191.409 122.74 189.674 129.426 186.179 138.95L186.175 138.96C180.832 154.331 185.984 169.072 196.358 180.102L185.242 180.096C177.872 169.322 175.056 156.333 179.84 143.041C183.784 132.437 185.782 124.945 186.28 118.75C186.779 112.531 185.763 107.651 183.74 102.28C182.567 99.166 181.066 95.902 179.325 92.1183C175.064 82.8549 169.371 70.4767 163.56 49.5602C159.855 36.1921 160.553 25.8078 164.221 17.9968C167.886 10.1909 174.559 4.8636 182.988 1.68829C184.605 1.07911 186.285 0.549678 188.02 0.0975755L224.685 0.11661C231.194 1.46232 237.656 3.43952 243.77 5.971L243.781 5.97548L243.792 5.97956C255.482 10.3137 265.379 6.52597 275.496 2.65434C275.981 2.46847 276.468 2.28239 276.954 2.09701C278.716 1.42637 280.49 0.763164 282.288 0.146513L314.901 0.163444C321.032 2.81671 323.976 6.48082 325.483 10.7277C326.856 14.5967 327.049 18.9586 327.257 23.6352C327.304 24.7009 327.352 25.783 327.415 26.8793C327.75 32.7339 328.516 38.8963 332.03 44.6963C335.549 50.5067 341.775 55.8753 352.877 60.2642C360.441 63.2761 366.093 68.0465 370.055 73.8853L370.026 129.943ZM293.535 165.828C289.947 169.836 285.688 174.593 279.328 180.145L271.129 180.141C281.765 172.316 287.591 165.818 292.156 160.728L292.156 160.727C293.77 158.927 295.226 157.304 296.681 155.86C299.625 152.937 302.575 150.731 306.865 149.202C311.174 147.667 316.871 146.803 325.327 146.639C343.226 146.302 355.904 129.922 359.596 111.948C363.293 93.9533 358.078 73.9187 339.719 66.1719L339.715 66.1706C330.927 62.5216 326.135 58.2214 323.43 53.7246C320.718 49.2165 320.058 44.4377 319.675 39.7124C319.62 39.035 319.571 38.3569 319.522 37.68C319.233 33.6816 318.947 29.7247 317.489 26.2118C315.755 22.0337 312.393 18.5191 305.647 16.0797C293.621 11.7322 283.977 14.8648 274.937 18.0181C274.679 18.108 274.422 18.1979 274.165 18.2876C265.39 21.3545 257.199 24.217 247.615 20.5361C230.977 13.5343 211.179 11.9604 197.002 17.6483C189.897 20.4991 184.177 25.1876 181.017 31.9552C177.858 38.7201 177.297 47.4769 180.342 58.391L180.342 58.3919C183.725 70.451 187.02 79.1966 189.868 86.0617C190.948 88.6657 191.958 90.9866 192.882 93.1098L192.884 93.1143L192.884 93.1151L192.885 93.1164L192.885 93.1169L192.886 93.1176L192.886 93.1181L192.886 93.1186L192.886 93.1194L192.887 93.1197L192.887 93.1209C194.407 96.6136 195.694 99.5713 196.678 102.375C198.246 106.842 199.01 110.841 198.639 115.815C198.266 120.809 196.746 126.817 193.69 135.293L193.687 135.301L193.685 135.308C187.719 153.225 197.003 170.019 211.798 180.11L198.087 180.103C187.407 169.245 182.07 154.579 187.354 139.375C190.86 129.818 192.641 123.007 193.082 117.329C193.525 111.628 192.615 107.1 190.798 102.12C189.706 99.1259 188.298 95.9871 186.66 92.3356C182.843 83.8271 177.778 72.5353 172.553 53.8077C169.206 41.7671 169.852 32.3573 173.185 25.2403C176.516 18.1274 182.573 13.2159 190.227 10.2483C205.567 4.30006 227.204 6.21728 245.454 13.8312L245.464 13.8354L245.475 13.8392C256.331 17.9321 265.575 14.5344 274.979 11.0777L275.012 11.0656C275.392 10.926 275.772 10.7864 276.152 10.6471C285.996 7.04346 296.186 3.66037 309.108 8.33163C316.065 10.8469 319.291 14.4736 320.908 18.7079C322.279 22.2977 322.511 26.3419 322.76 30.6858C322.81 31.5606 322.861 32.4476 322.922 33.3455C323.282 38.6516 324.003 44.2468 327.194 49.5325C330.392 54.8286 336.022 59.738 346.055 63.7937C365.716 71.8317 371.284 93.0514 367.17 112.552C363.051 132.079 349.325 149.42 330.896 149.788L330.896 149.788C321.63 149.977 315.265 150.915 310.375 152.648C305.465 154.389 302.078 156.918 298.75 160.216C297.059 161.892 295.386 163.761 293.535 165.828ZM214.074 180.111C198.656 170.356 188.937 153.534 194.867 135.71C197.936 127.199 199.5 121.069 199.885 115.908C200.271 110.725 199.467 106.551 197.857 101.961C196.86 99.1186 195.541 96.0872 194.003 92.5533C193.08 90.4332 192.079 88.1323 191.022 85.5829C188.19 78.7557 184.912 70.0577 181.545 58.0549C178.557 47.3424 179.15 38.9071 182.149 32.4838C185.147 26.0633 190.589 21.5677 197.468 18.8079C211.256 13.2757 230.705 14.7732 247.139 21.6915L247.148 21.6953L247.157 21.6988C257.181 25.5522 265.774 22.5466 274.466 19.506C274.76 19.4033 275.054 19.3004 275.348 19.1978C284.376 16.0491 293.643 13.0686 305.222 17.2547C311.693 19.5944 314.756 22.8864 316.335 26.6907C317.708 30.0006 317.98 33.7255 318.273 37.7356C318.322 38.4201 318.373 39.1128 318.43 39.8132C318.815 44.5703 319.489 49.5979 322.359 54.3686C325.235 59.1505 330.27 63.6014 339.235 67.3241C356.824 74.7471 362.005 94.0157 358.372 111.697C354.735 129.4 342.358 145.069 325.303 145.39L325.303 145.39C316.788 145.555 310.937 146.425 306.446 148.025C301.936 149.632 298.834 151.962 295.801 154.973C294.295 156.468 292.808 158.126 291.172 159.949L291.171 159.95C286.418 165.251 280.406 171.954 269.006 180.14L254.008 180.132C259.005 179.126 263.86 177.174 268.32 174.128C279.57 166.444 285.329 160.034 289.782 155.077C291.185 153.516 292.458 152.098 293.733 150.831C296.383 148.195 299.048 146.189 302.938 144.794C306.847 143.394 312.03 142.598 319.733 142.457C336.253 142.167 347.588 127.466 350.8 111.301C354.014 95.1215 349.178 77.0565 332.911 69.9229L332.907 69.921C325.186 66.6069 320.983 62.766 318.596 58.7783C316.201 54.7786 315.589 50.5614 315.181 46.3774C315.133 45.8824 315.088 45.3867 315.042 44.8913C314.709 41.2431 314.377 37.6104 312.9 34.3737C311.196 30.6369 308.001 27.4746 301.762 25.2183C291.085 21.3584 282.366 24.0829 274.153 26.7773L273.689 26.9298C265.622 29.5785 258.069 32.0587 249.305 28.614C234.468 22.3006 216.851 21.1521 204.228 26.4295C197.901 29.0746 192.804 33.3473 189.981 39.4158C187.158 45.483 186.647 53.2637 189.335 62.8554L189.336 62.8565C192.358 73.5603 195.27 81.3946 197.774 87.5891C198.637 89.7241 199.447 91.6556 200.195 93.4382C201.625 96.8471 202.827 99.7118 203.731 102.415C205.096 106.497 205.757 110.15 205.441 114.613C205.124 119.095 203.819 124.424 201.2 131.853L201.197 131.863L201.194 131.873C195.827 148.898 205.235 164.579 219.563 173.411C224.79 176.633 230.697 178.961 236.821 180.123L214.074 180.111ZM278.593 0.144595L230.198 0.119472C234.993 1.36404 239.712 2.93932 244.237 4.81212C255.471 8.97244 264.95 5.34827 275.147 1.44971C275.6 1.27657 276.054 1.10292 276.51 0.929372C277.201 0.66644 277.895 0.404029 278.593 0.144595ZM183.718 0.0953422L163.477 0.0848344C160.038 2.99412 157.242 6.53422 155.257 10.7535C151.255 19.2589 150.504 30.6177 154.567 45.313C160.96 68.4095 167.281 81.8618 171.985 91.8728L171.985 91.8729L171.986 91.8731L171.986 91.8746L171.987 91.8767L171.987 91.877L171.988 91.8772C173.832 95.8032 175.428 99.1998 176.682 102.441C178.91 108.202 180.033 113.435 179.477 120.172C178.924 126.882 176.709 135.055 172.327 146.705C167.999 158.386 169.185 169.895 174.084 180.09L183.74 180.095C176.532 169.189 173.816 156.086 178.665 142.614L178.668 142.608C182.601 132.036 184.551 124.671 185.034 118.651C185.516 112.655 184.544 107.961 182.571 102.72C181.436 99.7081 179.962 96.5007 178.241 92.7594L178.241 92.7585L178.24 92.758C173.973 83.4775 168.195 70.9123 162.356 49.8943L162.356 49.8939C158.597 36.3332 159.259 25.6247 163.09 17.4657C166.923 9.30156 173.887 3.7816 182.547 0.519097C182.934 0.373378 183.324 0.232147 183.718 0.0953422ZM148.161 0.0768835L161.589 0.0838546C158.516 2.90997 155.983 6.27571 154.126 10.2216C149.959 19.0772 149.247 30.7614 153.363 45.6459L153.363 45.6461C159.787 68.8537 166.192 82.4883 170.901 92.5118L170.902 92.512C172.728 96.3993 174.299 99.7434 175.517 102.892C177.694 108.52 178.769 113.561 178.232 120.069C177.693 126.604 175.527 134.647 171.157 146.267L171.156 146.27C166.761 158.13 167.888 169.771 172.701 180.09L164.056 180.085C161.034 170.728 160.932 160.596 164.813 150.37C169.633 137.672 172.066 128.819 172.675 121.593C173.287 114.339 172.058 108.754 169.624 102.604C168.288 99.2268 166.595 95.6896 164.643 91.6106L164.643 91.609L164.642 91.6085L164.642 91.608L164.642 91.6074C159.496 80.8542 152.548 66.336 145.574 41.0658C141.153 25.0436 141.956 12.7102 146.293 3.51033C146.856 2.31488 147.48 1.17074 148.161 0.0768835ZM303.594 180.158L297.645 180.155C298.191 179.546 298.722 178.951 299.239 178.372L299.248 178.362L299.248 178.362C301.51 175.828 303.523 173.573 305.526 171.593C309.353 167.81 313.159 165.004 318.647 163.073C324.156 161.136 331.396 160.068 342.109 159.833C352.947 159.597 362.507 154.282 370.018 146.181L370.013 154.696C363.434 159.734 355.873 162.798 347.674 162.982C336.155 163.242 328.25 164.384 322.162 166.518C316.053 168.66 311.81 171.788 307.597 175.949C306.277 177.252 304.962 178.654 303.594 180.158ZM352 180.183L305.289 180.158C306.374 178.98 307.426 177.874 308.475 176.838C312.596 172.768 316.687 169.762 322.575 167.697C328.483 165.626 336.237 164.49 347.702 164.232C355.895 164.047 363.436 161.092 370.012 156.258L370.009 162.192C370.004 172.133 361.941 180.188 352 180.183ZM370.084 18.1921L370.066 53.3422C369.062 52.8798 368.028 52.4443 366.961 52.037C353.903 47.05 346.746 40.9125 342.767 34.375C338.782 27.8276 337.932 20.7972 337.649 13.8997C337.59 12.4611 337.555 11.0129 337.52 9.57576C337.473 7.60282 337.426 5.65065 337.317 3.77263C337.247 2.55612 337.15 1.35491 337.009 0.174921L352.093 0.182751C362.035 0.187912 370.089 8.25096 370.084 18.1921ZM259.498 79.0336C255.315 76.7461 250.695 78.3224 247.474 81.1321C245.853 82.5452 244.542 84.302 243.768 86.1237C242.996 87.9407 242.738 89.8738 243.315 91.5971C246.36 100.705 246.3 107.23 246.258 111.856L246.258 111.856L246.258 111.856C246.254 112.367 246.249 112.856 246.249 113.322C246.249 119.747 249.092 124.246 253.233 126.754C257.348 129.246 262.684 129.736 267.654 128.308C270.145 127.592 271.791 126.642 273.057 125.608C273.939 124.889 274.649 124.113 275.301 123.399C275.561 123.114 275.812 122.84 276.062 122.582C276.952 121.664 277.909 120.859 279.4 120.272C280.905 119.68 282.997 119.294 286.174 119.294C290.209 119.294 293.116 118.186 295.056 116.332C296.992 114.48 297.884 111.96 298.038 109.288C298.342 103.979 295.748 97.8645 292.212 94.4608C290.318 92.6373 289.689 91.2618 289.071 89.9114C288.797 89.3137 288.526 88.7209 288.148 88.0963C286.921 86.067 284.772 84.267 278.461 81.9803C277.181 81.5164 275.762 81.3525 274.283 81.2932C273.399 81.2577 272.454 81.2594 271.491 81.2612L271.491 81.2612L271.49 81.2612L271.49 81.2612L271.49 81.2612L271.489 81.2612L271.489 81.2612L271.489 81.2612L271.489 81.2612L271.488 81.2612L271.488 81.2612L271.488 81.2612C270.863 81.2623 270.23 81.2634 269.601 81.2545C266.349 81.208 262.902 80.8948 259.498 79.0336ZM244.499 91.201C244.049 89.8545 244.224 88.2472 244.918 86.6123C245.611 84.9822 246.802 83.3758 248.295 82.0737C251.3 79.4529 255.352 78.1903 258.899 80.1299C262.574 82.1395 266.27 82.4564 269.583 82.5037C270.26 82.5134 270.909 82.512 271.538 82.5107L271.538 82.5107C272.474 82.5086 273.364 82.5067 274.233 82.5416C275.666 82.5991 276.935 82.756 278.036 83.1549C284.263 85.4112 286.077 87.0851 287.079 88.7428C287.357 89.2028 287.589 89.7056 287.84 90.2513C288.491 91.6646 289.274 93.3664 291.346 95.3609C294.63 98.523 297.073 104.287 296.79 109.216C296.65 111.663 295.842 113.851 294.192 115.429C292.545 117.003 289.98 118.044 286.174 118.044C282.904 118.044 280.643 118.441 278.942 119.11C277.229 119.784 276.128 120.719 275.165 121.713C274.866 122.021 274.588 122.325 274.314 122.625C273.687 123.312 273.075 123.981 272.267 124.641C271.138 125.562 269.645 126.436 267.309 127.107C262.621 128.454 257.654 127.97 253.88 125.685C250.132 123.415 247.499 119.333 247.499 113.322C247.499 112.863 247.503 112.379 247.508 111.872L247.508 111.871L247.508 111.87L247.508 111.87L247.508 111.869L247.508 111.868L247.508 111.867L247.508 111.866L247.508 111.865L247.508 111.864L247.508 111.863C247.551 107.218 247.612 100.513 244.499 91.201ZM190.538 62.5176C187.909 53.1337 188.448 45.6727 191.114 39.9427C193.779 34.214 198.606 30.134 204.71 27.5822C216.946 22.4666 234.208 23.5452 248.823 29.767L248.831 29.7704L248.839 29.7735C258.031 33.3896 265.976 30.779 273.959 28.1561L274.543 27.9645C282.754 25.2706 291.1 22.6921 301.337 26.3932C307.322 28.5577 310.223 31.516 311.763 34.8923C313.145 37.9214 313.459 41.3245 313.797 44.9994L313.797 44.9999C313.843 45.4946 313.889 45.9942 313.938 46.4985C314.348 50.7057 314.977 55.165 317.524 59.42C320.078 63.6867 324.516 67.6784 332.412 71.0682C347.931 77.8754 352.725 95.1957 349.574 111.058C346.42 126.935 335.392 140.933 319.711 141.208L319.71 141.208C311.946 141.349 306.609 142.152 302.517 143.618C298.406 145.091 295.59 147.221 292.852 149.945C291.529 151.26 290.227 152.709 288.804 154.293L288.803 154.294C284.355 159.244 278.727 165.507 267.615 173.096C253.138 182.984 234.241 180.991 220.219 172.347C206.2 163.706 197.251 148.554 202.382 132.258C205.013 124.794 206.359 119.345 206.687 114.702C207.018 110.038 206.32 106.218 204.916 102.019C203.998 99.2724 202.766 96.3372 201.322 92.8952L201.322 92.8944L201.32 92.8894C200.576 91.1157 199.775 89.2074 198.932 87.1209C196.442 80.9592 193.545 73.1687 190.538 62.5176ZM273.226 35.8345C265.868 38.0625 258.945 40.1584 250.995 36.9466C237.959 31.3204 222.521 30.5986 211.452 35.466C205.903 37.9058 201.43 41.7624 198.945 47.1308C196.459 52.4996 195.997 59.3042 198.329 67.5742L198.329 67.5758C200.991 76.9236 203.52 83.8461 205.679 89.3694C206.316 90.9996 206.919 92.5026 207.482 93.9071L207.482 93.9074L207.483 93.9089C208.834 97.2779 209.957 100.08 210.784 102.708C211.946 106.404 212.505 109.712 212.244 113.667C211.981 117.636 210.891 122.288 208.711 128.668L208.706 128.681L208.702 128.694C204.222 143.969 212.546 157.791 225.172 165.567C237.796 173.341 254.897 175.196 268.228 166.416C278.336 159.758 283.434 154.096 287.402 149.689C288.597 148.362 289.689 147.149 290.785 146.056C293.141 143.707 295.521 141.901 299.012 140.641C302.52 139.374 307.189 138.646 314.139 138.529C329.279 138.287 339.272 125.266 342.003 110.907C344.735 96.5424 340.278 80.4496 326.106 73.9294L326.1 73.9267C319.447 70.9478 315.832 67.5662 313.762 64.0866C311.684 60.5941 311.12 56.9378 310.687 53.2938L310.665 53.1042C310.635 52.8561 310.607 52.6079 310.578 52.3596L310.576 52.3423C310.196 49.0489 309.814 45.7447 308.309 42.7858C306.633 39.4928 303.607 36.684 297.877 34.6112C288.551 31.2392 280.757 33.5549 273.373 35.7902L273.226 35.8345ZM200.078 47.6557C197.746 52.6931 197.26 59.18 199.531 67.2344C202.179 76.5342 204.694 83.4178 206.843 88.9145C207.467 90.5112 208.062 91.9961 208.622 93.3922L208.622 93.3923C209.983 96.7864 211.134 99.656 211.976 102.333C213.173 106.141 213.764 109.606 213.49 113.749C213.218 117.874 212.09 122.642 209.897 129.059C205.633 143.622 213.519 156.922 225.828 164.503C238.143 172.088 254.71 173.823 267.541 165.372C277.5 158.813 282.465 153.3 286.428 148.9C287.642 147.552 288.762 146.308 289.903 145.171C292.346 142.735 294.877 140.805 298.588 139.465C302.28 138.132 307.104 137.398 314.118 137.28L314.119 137.28C328.426 137.051 338.104 124.724 340.776 110.674C343.447 96.6317 339.04 81.2573 325.587 75.0658C318.76 72.0087 314.92 68.4759 312.688 64.7254C310.464 60.9872 309.881 57.0969 309.446 53.4411C309.425 53.2605 309.404 53.0805 309.383 52.9013L309.338 52.5172C308.951 49.1793 308.593 46.1003 307.195 43.3523C305.694 40.4015 302.953 37.7759 297.452 35.7861C288.556 32.5695 281.132 34.7467 273.735 36.986L273.46 37.0693C266.185 39.2724 258.883 41.4839 250.52 38.1021L250.514 38.0994L250.507 38.0965C237.712 32.5725 222.639 31.9114 211.954 36.6097C206.625 38.9533 202.411 42.6177 200.078 47.6557ZM252.688 45.2939C259.761 48.25 266.012 46.6013 272.596 44.8167L272.764 44.7713C279.266 43.0084 286.086 41.1595 293.992 44.0183C299.212 45.9069 302.067 48.3612 303.713 51.2066C305.263 53.886 305.699 56.8553 306.129 59.7888L306.192 60.22C306.651 63.3262 307.167 66.4227 308.929 69.4096C310.683 72.3825 313.711 75.3049 319.297 77.9484L319.305 77.9519C331.376 83.8587 335.457 97.9755 333.207 110.527C330.957 123.081 322.303 134.421 308.546 134.615C302.348 134.709 298.194 135.369 295.086 136.501C291.995 137.627 289.9 139.233 287.838 141.296C286.919 142.214 286.006 143.226 285.016 144.322L285.015 144.324L285.013 144.325L285.012 144.326C281.529 148.185 277.094 153.099 268.134 158.719C256.46 166.042 241.702 164.454 230.782 157.737C219.856 151.016 212.619 139.055 216.21 125.533L216.215 125.516L216.22 125.499C217.963 120.169 218.839 116.194 219.046 112.735C219.253 109.287 218.797 106.324 217.837 103.013C217.082 100.409 216.022 97.6107 214.727 94.1921L214.723 94.1822L214.721 94.1758C214.36 93.2225 213.98 92.221 213.584 91.1621C211.77 86.3109 209.624 80.3009 207.323 72.3097L207.323 72.3077C205.347 65.358 205.76 59.5298 207.908 54.8604C210.055 50.1935 213.904 46.7532 218.672 44.5186C228.186 40.0601 241.448 40.3529 252.688 45.2939ZM208.524 71.9651C206.613 65.2414 207.044 59.7285 209.043 55.3826C211.044 51.0341 214.646 47.785 219.202 45.6499C228.336 41.3696 241.219 41.6154 252.19 46.44L252.2 46.4444C259.719 49.5886 266.371 47.7986 272.923 46.0226L272.983 46.0062C279.548 44.227 286.033 42.469 293.567 45.1932C298.585 47.0089 301.169 49.3031 302.632 51.8322C304.058 54.2987 304.463 57.0492 304.904 60.0467L304.956 60.4024C305.414 63.5048 305.953 66.8249 307.853 70.0446C309.761 73.2776 313.002 76.3511 318.759 79.0758C330.15 84.6519 334.168 98.0842 331.978 110.306C329.788 122.525 321.463 133.184 308.527 133.366L308.527 133.366C302.263 133.461 297.952 134.127 294.658 135.327C291.347 136.533 289.102 138.264 286.954 140.412C285.994 141.372 285.054 142.413 284.046 143.53L284.045 143.53L284.045 143.531C280.567 147.381 276.268 152.142 267.47 157.661C256.283 164.678 242.046 163.199 231.437 156.673C220.839 150.154 214.013 138.704 217.414 125.871C219.168 120.5 220.077 116.415 220.294 112.81C220.51 109.189 220.027 106.08 219.037 102.665C218.266 100.009 217.183 97.1479 215.884 93.7191L215.88 93.7092C215.521 92.7604 215.145 91.768 214.755 90.7244C212.947 85.8918 210.813 79.9145 208.524 71.9651ZM254.382 53.6623C244.933 49.4033 233.846 49.5437 225.889 53.5941C221.901 55.6239 218.68 58.6473 216.872 62.6109C215.063 66.5791 214.696 71.4306 216.317 77.0621L216.318 77.0647C218.257 83.6976 220.02 88.7943 221.489 92.972C221.619 93.3431 221.747 93.7066 221.873 94.0631C223.164 97.7294 224.194 100.652 224.889 103.334C226.395 109.147 226.33 113.823 223.73 122.355L223.723 122.376L223.718 122.398C221.018 134.163 227.165 144.262 236.392 149.928C245.61 155.588 258.02 156.908 268.035 151.045C275.841 146.476 279.612 142.311 282.611 138.998C283.405 138.121 284.145 137.304 284.891 136.555C286.66 134.779 288.47 133.373 291.161 132.381C293.869 131.384 297.508 130.792 302.952 130.722C315.326 130.576 322.643 120.92 324.412 110.164C326.178 99.4256 322.473 87.2904 312.508 81.9977L312.499 81.993C307.978 79.6856 305.536 77.222 304.097 74.7538C302.666 72.301 302.193 69.7959 301.714 67.2575L301.696 67.1593C301.215 64.6138 300.714 62.0148 299.111 59.6405C297.496 57.248 294.815 55.1495 290.107 53.4457C283.686 51.1234 277.901 52.4597 272.339 53.7441L271.825 53.8627C266.073 55.1876 260.53 56.3422 254.382 53.6623ZM218.009 63.1293C216.342 66.7854 215.966 71.3246 217.517 76.7153C219.447 83.3158 221.201 88.3876 222.668 92.5576L222.747 92.7828L223.047 93.6349L223.056 93.6603L223.056 93.6607L223.056 93.6612C224.341 97.3098 225.389 100.284 226.098 103.02C227.674 109.1 227.576 114.012 224.931 122.699C222.392 133.805 228.16 143.407 237.046 148.863C245.947 154.329 257.859 155.554 267.404 149.967C275.029 145.504 278.658 141.498 281.65 138.195C282.46 137.301 283.223 136.459 284.006 135.673C285.858 133.813 287.817 132.282 290.729 131.209C293.624 130.142 297.421 129.544 302.936 129.473L302.936 129.473C314.502 129.336 321.472 120.345 323.179 109.961C324.89 99.5605 321.262 88.065 311.927 83.1035C307.24 80.7106 304.6 78.0966 303.018 75.3832C301.477 72.7425 300.97 70.0535 300.499 67.5541L300.468 67.3911C299.983 64.8193 299.514 62.4703 298.075 60.3395C296.65 58.2269 294.22 56.2629 289.682 54.6206C283.613 52.4256 278.152 53.6855 272.525 54.9836L272.106 55.0802C266.365 56.4024 260.445 57.6694 253.879 54.8061L253.872 54.803C244.73 50.681 234.041 50.8463 226.455 54.7076C222.671 56.6339 219.679 59.4683 218.009 63.1293ZM233.098 62.7047C239.494 59.0613 248.412 58.4793 256.079 62.0622C261.306 64.4669 266.144 63.8039 271.064 62.9381C271.357 62.8866 271.65 62.8343 271.944 62.7818L271.955 62.7799C276.555 61.9592 281.282 61.1158 286.223 62.9033C290.417 64.4214 292.918 66.1627 294.498 68.0953C296.078 70.0268 296.685 72.0908 297.196 74.1165L297.252 74.3378C297.28 74.45 297.308 74.5621 297.335 74.674L297.357 74.7608C297.808 76.5785 298.247 78.351 299.266 80.1294C300.393 82.0969 302.254 84.1026 305.711 86.0733L305.721 86.0792C313.568 90.7556 316.9 100.901 315.618 109.827C314.975 114.307 313.165 118.538 310.125 121.668C307.075 124.809 302.816 126.81 297.357 126.859L297.358 126.859L297.352 126.234L297.357 126.859C292.668 126.905 289.544 127.429 287.237 128.292C284.946 129.149 283.421 130.355 281.945 131.844C281.367 132.427 280.797 133.055 280.193 133.721C277.677 136.491 274.573 139.908 267.929 143.406C259.579 147.801 249.519 146.753 242.003 142.149C234.473 137.536 229.421 129.301 231.226 119.301L231.231 119.275L231.237 119.25C232.966 112.809 233.049 108.74 231.941 103.679C231.382 101.125 230.518 98.3148 229.393 94.8073C229.179 94.1411 228.956 93.4503 228.724 92.732L228.724 92.7306L228.723 92.7288C227.737 89.6723 226.59 86.1178 225.313 81.851L225.312 81.8479C224.046 77.5308 224.367 73.6559 225.837 70.3923C227.303 67.1353 229.894 64.53 233.098 62.7047ZM226.511 81.4945C225.321 77.4404 225.638 73.8748 226.976 70.9053C228.316 67.9286 230.702 65.5076 233.717 63.7904C239.758 60.3491 248.248 59.7812 255.552 63.1948L255.555 63.1964C261.165 65.7778 266.35 65.0363 271.281 64.1686C271.557 64.1201 271.832 64.0712 272.106 64.0224C276.769 63.1932 281.183 62.4084 285.798 64.0781C289.858 65.5479 292.139 67.1829 293.531 68.8861C294.925 70.5905 295.48 72.4219 295.985 74.4222C296.038 74.6337 296.091 74.8475 296.144 75.0633C296.591 76.8684 297.071 78.8117 298.182 80.7506C299.437 82.9405 301.472 85.0939 305.086 87.1556C312.378 91.5045 315.613 101.072 314.382 109.649C313.768 113.923 312.05 117.893 309.229 120.798C306.417 123.693 302.48 125.564 297.346 125.609L297.346 125.609C292.581 125.657 289.296 126.188 286.799 127.121C284.287 128.061 282.614 129.393 281.057 130.965C280.448 131.58 279.858 132.23 279.24 132.909C276.732 135.667 273.782 138.913 267.347 142.3C259.439 146.463 249.849 145.49 242.656 141.083C235.483 136.69 230.768 128.936 232.451 119.548C234.217 112.958 234.317 108.688 233.161 103.412C232.588 100.793 231.707 97.9298 230.583 94.4256C230.368 93.7582 230.145 93.067 229.914 92.3492L229.912 92.3442L229.912 92.3434C228.926 89.2873 227.783 85.7476 226.511 81.4945ZM257.783 70.51C251.879 67.591 245.121 68.6357 240.296 71.871C235.468 75.1087 232.467 80.6292 234.31 86.6821L234.311 86.6855C239.173 102.336 240.459 107.527 238.743 116.21L238.737 116.237L238.735 116.263C237.83 124.487 241.781 130.856 247.616 134.416C253.431 137.964 261.134 138.736 267.808 135.817C273.281 133.424 275.715 130.752 277.751 128.517C278.177 128.05 278.586 127.601 279.001 127.179C280.184 125.975 281.424 124.969 283.316 124.247C285.222 123.519 287.831 123.064 291.765 123.041C296.517 123.016 300.098 121.46 302.591 118.963C305.074 116.475 306.426 113.104 306.826 109.529C307.622 102.412 304.66 94.2717 298.95 90.2186L298.94 90.2119C296.544 88.5788 295.258 87.0281 294.438 85.5535C293.82 84.4426 293.465 83.3834 293.099 82.2896L293.098 82.2867C292.967 81.8956 292.834 81.5 292.688 81.096C292.138 79.5807 291.417 78.0601 289.868 76.5847C288.331 75.1206 286.017 73.738 282.34 72.4064C278.87 71.1504 275.243 71.5371 271.638 71.9216L271.637 71.9217C271.197 71.9686 270.757 72.0154 270.318 72.0593C266.233 72.4674 262.094 72.6415 257.783 70.51ZM298.237 91.2443L298.588 90.7281L298.227 91.2375L298.232 91.2409C295.693 89.5096 294.268 87.8194 293.346 86.1607C292.667 84.9399 292.261 83.7259 291.885 82.604C291.761 82.2323 291.64 81.8707 291.513 81.5223C290.998 80.1027 290.362 78.7805 289.007 77.4894C287.639 76.187 285.499 74.8793 281.915 73.5812L282.128 72.9938L281.915 73.5811C278.734 72.4297 275.409 72.7807 271.762 73.1657C271.327 73.2117 270.887 73.2581 270.443 73.3025C266.32 73.7143 261.876 73.9273 257.229 71.63C251.782 68.9367 245.499 69.8863 240.992 72.9087C236.489 75.9285 233.865 80.9285 235.505 86.3166L235.504 86.3148L234.908 86.5002L235.505 86.3182L235.505 86.3166C240.355 101.929 241.751 107.41 239.974 116.426L239.976 116.4L239.355 116.331L239.968 116.453L239.974 116.426C239.139 124.107 242.808 130.019 248.266 133.349C253.75 136.695 261.024 137.42 267.307 134.672C272.523 132.392 274.784 129.913 276.807 127.696L276.808 127.696C277.244 127.218 277.669 126.752 278.11 126.303C279.37 125.02 280.757 123.887 282.87 123.08C284.968 122.279 287.741 121.815 291.758 121.791L291.758 121.791C296.223 121.769 299.475 120.315 301.707 118.08C303.947 115.835 305.209 112.751 305.584 109.39C306.339 102.638 303.5 94.9839 298.232 91.2409L298.237 91.2443Z" fill="#B41919"/>
</svg>
