<svg width="181" height="371" viewBox="0 0 181 371" fill="none" xmlns="http://www.w3.org/2000/svg">
<path fill-rule="evenodd" clip-rule="evenodd" d="M0.046875 18.096C0.046875 8.15489 8.10575 0.0960083 18.0469 0.0960083L162.047 0.0960083C171.988 0.0960083 180.047 8.15488 180.047 18.096L180.047 146.702C179.114 146.151 178.147 145.638 177.145 145.166C167.59 140.669 154.93 139.913 138.724 144.394C113.339 151.414 98.6454 158.454 87.8855 163.609L87.8849 163.609C83.845 165.545 80.3595 167.215 77.0708 168.519C71.0573 170.902 65.6683 172.084 58.6477 171.496C51.5989 170.905 42.8761 168.528 30.2057 163.726C19.8018 159.783 9.52787 159.85 0.046875 162.837L0.046875 18.096ZM180.047 335.753L180.047 330.386C179.337 330.715 178.608 331.001 177.863 331.249C173.527 332.691 168.614 332.856 163.587 333.024C162.351 333.066 161.108 333.108 159.866 333.169C153.512 333.48 147.045 334.286 141.01 337.956C134.985 341.619 129.311 348.187 124.664 360.18L124.664 360.181C123.221 363.893 121.406 367.19 119.285 370.096H125.517C126.059 368.955 126.565 367.772 127.033 366.546C132.082 353.305 138.364 345.886 145.2 341.721C152.025 337.562 159.321 336.7 166.27 336.41C167.762 336.348 169.223 336.313 170.66 336.278L170.662 336.278C172.605 336.23 174.503 336.184 176.376 336.075C177.629 336.001 178.854 335.9 180.047 335.753ZM177.468 330.063C178.353 329.769 179.214 329.418 180.047 328.999L180.047 317.759C177.383 322.635 173.908 325.246 169.906 326.668C165.845 328.112 161.249 328.316 156.561 328.524C155.514 328.571 154.461 328.618 153.41 328.679C147.599 329.015 141.696 329.773 136.171 333.124C130.656 336.468 125.44 342.444 121.128 353.37L121.127 353.371C118.265 360.57 113.873 366.081 108.515 370.096H117.718C120.022 367.095 121.975 363.649 123.499 359.729C128.215 347.556 134.039 340.732 140.361 336.888C146.673 333.05 153.402 332.235 159.804 331.921C161.1 331.857 162.377 331.814 163.634 331.771L163.634 331.771H163.635C168.643 331.601 173.322 331.443 177.468 330.063ZM47.6965 370.096H35.9225C35.7126 369.911 35.5045 369.725 35.2982 369.538C27.1548 362.146 21.8766 352.758 21.6404 342.166C21.3989 331.399 20.3213 324.008 18.3174 318.319C16.3066 312.612 13.376 308.655 9.50059 304.739C7.46102 302.678 5.16685 300.632 2.60422 298.346C1.77972 297.611 0.927422 296.851 0.046875 296.058L0.046875 289.91C2.85473 292.633 5.41247 294.917 7.72172 296.979L7.7221 296.98C10.01 299.023 12.054 300.848 13.8557 302.666C17.3536 306.197 19.9618 309.717 21.7608 314.805C23.5668 319.912 24.5703 326.637 24.7867 336.598C25.0937 350.908 34.6639 362.674 47.6965 370.096ZM50.2959 370.096C36.5303 362.917 26.3454 351.003 26.0358 336.571C25.8182 326.554 24.8088 319.677 22.9388 314.388C21.0619 309.08 18.3311 305.409 14.7433 301.787C12.8855 299.912 10.8043 298.053 8.48977 295.986C5.95894 293.726 3.14904 291.217 0.046875 288.164L0.046875 281.308C5.28291 287.176 9.80275 291.218 13.5991 294.613C15.6422 296.44 17.4757 298.079 19.0985 299.715C22.3094 302.952 24.7176 306.186 26.3824 310.875C28.054 315.582 28.9893 321.794 29.1817 331.002C29.5768 350.28 47.6422 364.291 67.4283 368.454C87.2408 372.622 109.24 367.016 117.59 346.563L117.59 346.56C121.569 336.703 126.326 331.317 131.331 328.292C136.346 325.26 141.687 324.549 146.954 324.188C147.815 324.129 148.676 324.08 149.535 324.031L149.543 324.03H149.543C153.887 323.781 158.165 323.536 161.952 322.087C166.569 320.321 170.433 316.792 173.051 309.539C177.879 296.161 174.333 285.595 170.716 275.73C170.585 275.372 170.454 275.016 170.323 274.66C166.835 265.176 163.586 256.345 167.501 245.935C175.182 227.489 177.169 205.509 171.062 189.783C168.001 181.901 162.894 175.562 155.426 172.069C147.962 168.578 138.229 167.972 125.993 171.38L125.993 171.38C107.179 176.639 95.6954 181.796 87.1653 185.625C83.5581 187.245 80.4791 188.627 77.5974 189.68C72.7445 191.453 68.3987 192.323 62.914 191.9C57.4063 191.475 50.7197 189.743 41.1932 186.253L41.1831 186.25C25.8101 180.915 11.0718 186.074 0.046875 196.454L0.046875 185.338C10.8171 177.962 23.8048 175.14 37.0996 179.917C47.7055 183.855 55.1987 185.85 61.3931 186.344C67.613 186.84 72.4927 185.821 77.8622 183.796C80.9756 182.621 84.2389 181.118 88.0216 179.376C97.2829 175.11 109.658 169.41 130.572 163.588C143.938 159.876 154.322 160.569 162.135 164.233C169.943 167.894 175.274 174.564 178.454 182.991C179.064 184.608 179.594 186.288 180.047 188.022V224.688C178.705 231.197 176.731 237.661 174.202 243.775L174.198 243.786L174.194 243.797C169.866 255.49 173.659 265.385 177.536 275.5C177.722 275.985 177.908 276.471 178.094 276.958C178.765 278.719 179.429 280.493 180.047 282.291V314.904C177.397 321.036 173.734 323.982 169.488 325.491C165.62 326.866 161.258 327.062 156.582 327.271C155.516 327.319 154.434 327.368 153.337 327.431C147.483 327.77 141.321 328.539 135.523 332.055C129.714 335.578 124.349 341.806 119.966 352.91C116.958 360.476 112.19 366.131 106.354 370.096H50.2959ZM14.3711 293.623C10.3612 290.037 5.60235 285.781 0.046875 279.424L0.046875 271.225C7.87731 281.857 14.3785 287.68 19.4708 292.242L19.4714 292.242C21.2721 293.855 22.8965 295.31 24.3413 296.764C27.2652 299.707 29.4733 302.656 31.0038 306.945C32.5411 311.253 33.4081 316.95 33.5766 325.406C33.9235 343.305 50.31 355.974 68.2855 359.657C86.2822 363.344 106.314 358.119 114.051 339.756L114.053 339.752C117.697 330.962 121.995 326.167 126.49 323.46C130.997 320.746 135.775 320.083 140.5 319.698C141.178 319.643 141.856 319.594 142.533 319.544C146.531 319.253 150.488 318.965 154 317.505C158.177 315.769 161.69 312.405 164.126 305.658C168.467 293.63 165.33 283.988 162.171 274.949C162.081 274.691 161.991 274.434 161.902 274.178C158.83 265.404 155.963 257.214 159.639 247.628C166.632 230.986 168.196 211.187 162.501 197.014C159.646 189.91 154.955 184.193 148.186 181.036C141.419 177.881 132.662 177.325 121.749 180.375L121.749 180.375C109.691 183.764 100.947 187.063 94.0838 189.915C91.4803 190.997 89.1599 192.008 87.0372 192.933L87.0327 192.935L87.0319 192.935L87.0306 192.936L87.0301 192.936L87.0294 192.936L87.0289 192.937L87.0284 192.937L87.0276 192.937L87.0273 192.937L87.026 192.938C83.5342 194.46 80.5772 195.749 77.7744 196.734C73.3079 198.304 69.309 199.07 64.3351 198.701C59.3406 198.331 53.3323 196.815 44.8542 193.762L44.8469 193.76L44.8396 193.757C26.9191 187.801 10.1298 197.094 0.046875 211.894L0.046875 198.183C10.8993 187.497 25.5621 182.153 40.7687 187.428C50.3275 190.93 57.1399 192.707 62.8178 193.146C68.5197 193.586 73.0466 192.673 78.0261 190.854C81.0195 189.76 84.1575 188.351 87.8081 186.711C96.3147 182.889 107.604 177.818 126.329 172.583C138.368 169.23 147.778 169.871 154.896 173.2C162.011 176.528 166.926 182.583 169.897 190.235C175.854 205.572 173.948 227.21 166.343 245.464L166.339 245.474L166.335 245.484C162.248 256.343 165.65 265.585 169.112 274.987L169.124 275.02C169.264 275.4 169.404 275.78 169.543 276.16C173.152 286.002 176.54 296.19 171.876 309.115C169.364 316.073 165.739 319.301 161.506 320.92C157.916 322.293 153.872 322.527 149.529 322.779C148.654 322.829 147.767 322.88 146.869 322.942C141.563 323.305 135.968 324.028 130.684 327.223C125.39 330.423 120.483 336.056 116.433 346.091C108.405 365.756 87.1882 371.335 67.6856 367.231C48.1568 363.122 30.8084 349.405 30.4308 330.976L30.4308 330.976C30.2372 321.71 29.2959 315.346 27.5597 310.457C25.8167 305.548 23.2858 302.162 19.9855 298.835C18.309 297.145 16.4397 295.474 14.3711 293.623ZM0.046875 214.17C9.7943 198.747 26.6106 189.019 44.4382 194.94C52.9502 198.005 59.0816 199.565 64.2428 199.947C69.426 200.332 73.5996 199.525 78.1887 197.912C81.0304 196.914 84.0612 195.593 87.5943 194.054C89.7139 193.13 92.0143 192.128 94.5631 191.069C101.389 188.233 110.085 184.951 122.086 181.578C132.797 178.584 141.233 179.173 147.658 182.169C154.08 185.163 158.578 190.603 161.341 197.48C166.881 211.265 165.393 230.715 158.484 247.153L158.48 247.162L158.476 247.171C154.628 257.196 157.638 265.788 160.683 274.479C160.786 274.773 160.889 275.067 160.992 275.361C164.145 284.386 167.131 293.652 162.951 305.234C160.614 311.705 157.324 314.77 153.52 316.351C150.211 317.726 146.486 318 142.476 318.295C141.792 318.345 141.099 318.396 140.399 318.453C135.642 318.84 130.615 319.518 125.846 322.39C121.065 325.269 116.617 330.306 112.899 339.273C105.485 356.865 86.2191 362.056 68.5363 358.433C50.8315 354.805 35.1561 342.436 34.8257 325.381L34.8257 325.381C34.656 316.866 33.7829 311.016 32.1805 306.525C30.5713 302.016 28.2402 298.916 25.2276 295.884C23.7319 294.378 22.0734 292.892 20.2486 291.258L20.2476 291.257C14.9448 286.506 8.23863 280.498 0.046875 269.102L0.046875 254.104C1.05562 259.1 3.00986 263.954 6.05827 268.412C13.7482 279.659 20.1609 285.414 25.1203 289.865C26.6824 291.267 28.1004 292.54 29.3686 293.814C32.0056 296.463 34.0135 299.127 35.4097 303.016C36.8126 306.924 37.6113 312.107 37.7559 319.81C38.0545 336.329 52.7614 347.657 68.9278 350.86C85.1092 354.066 103.172 349.221 110.297 332.95L110.299 332.946C113.609 325.223 117.447 321.018 121.434 318.629C125.432 316.232 129.649 315.618 133.833 315.208C134.328 315.159 134.824 315.114 135.319 315.068C138.967 314.733 142.6 314.399 145.836 312.921C149.572 311.214 152.732 308.018 154.985 301.777C158.84 291.099 156.111 282.381 153.412 274.17L153.259 273.705C150.606 265.64 148.122 258.089 151.562 249.322C157.868 234.483 159.007 216.864 153.723 204.244C151.075 197.919 146.8 192.824 140.73 190.004C134.661 187.185 126.88 186.678 117.29 189.371L117.289 189.371C106.586 192.398 98.7537 195.315 92.5605 197.822C90.4259 198.686 88.4948 199.497 86.7126 200.246C83.3044 201.678 80.4404 202.882 77.7374 203.787C73.6568 205.154 70.0041 205.817 65.5402 205.503C61.0585 205.188 55.7283 203.886 48.2987 201.271L48.2888 201.268L48.2787 201.265C31.251 195.907 15.5746 205.323 6.75002 219.656C3.53087 224.884 1.20522 230.793 0.046875 236.917L0.046875 214.17ZM180.047 278.595V230.201C178.805 234.996 177.232 239.717 175.362 244.242C171.207 255.478 174.836 264.955 178.74 275.15C178.913 275.603 179.087 276.057 179.261 276.513C179.524 277.203 179.787 277.897 180.047 278.595ZM180.047 183.72L180.047 163.479C177.136 160.042 173.594 157.248 169.374 155.265C160.866 151.267 149.507 150.522 134.814 154.593C111.721 160.999 98.2719 167.326 88.2634 172.036L88.2632 172.036L88.263 172.036L88.2615 172.037L88.2595 172.037L88.2591 172.038L88.2589 172.038C84.3339 173.884 80.9381 175.482 77.6971 176.738C71.9377 178.969 66.7057 180.094 59.9682 179.542C53.2578 178.992 45.084 176.781 33.4312 172.405C21.7484 168.084 10.2396 169.276 0.046875 174.18L0.046875 183.836C10.9496 176.623 24.0507 173.899 37.5252 178.742L37.5314 178.744C48.106 182.672 55.4713 184.618 61.4924 185.098C67.4886 185.577 72.1818 184.603 77.4213 182.627C80.433 181.491 83.6396 180.014 87.38 178.292L87.3809 178.291L87.3814 178.291C96.6596 174.019 109.222 168.234 130.237 162.385L130.237 162.384C143.796 158.619 154.505 159.275 162.666 163.101C170.832 166.93 176.356 173.891 179.623 182.55C179.768 182.937 179.91 183.327 180.047 183.72ZM180.047 148.163V161.592C177.219 158.52 173.852 155.989 169.905 154.134C161.048 149.972 149.363 149.266 134.481 153.389L134.48 153.389C111.276 159.825 97.6449 166.238 87.6238 170.952L87.6236 170.952C83.7373 172.78 80.3939 174.353 77.2458 175.573C71.6194 177.753 66.5784 178.83 60.0702 178.297C53.5354 177.762 45.4914 175.6 33.8688 171.235L33.8659 171.234C22.0036 166.846 10.363 167.979 0.046875 172.797L0.046875 164.152C9.40284 161.125 19.5347 161.018 29.7629 164.894C42.4628 169.707 51.3171 172.135 58.5434 172.741C65.798 173.348 71.3821 172.117 77.5312 169.68C80.9074 168.342 84.4438 166.647 88.5217 164.693L88.5233 164.693L88.5238 164.692L88.5243 164.692L88.5249 164.692C99.2754 159.54 113.79 152.585 139.057 145.598C155.076 141.168 167.41 141.965 176.612 146.297C177.808 146.86 178.953 147.483 180.047 148.163ZM0.046875 303.69L0.046875 297.741C0.656104 298.287 1.25067 298.817 1.83063 299.334L1.84028 299.343L1.84046 299.343C4.37546 301.604 6.63126 303.615 8.61251 305.618C12.3976 309.443 15.2058 313.247 17.139 318.735C19.0792 324.242 20.151 331.481 20.3913 342.194C20.633 353.032 25.9533 362.589 34.0579 370.096H25.5425C20.5015 363.52 17.4338 355.96 17.2449 347.761C16.9795 336.243 15.8337 328.338 13.6959 322.251C11.5511 316.143 8.42071 311.901 4.25776 307.69C2.95396 306.372 1.55153 305.057 0.046875 303.69ZM0.046875 352.096L0.046875 305.385C1.22558 306.469 2.33275 307.52 3.36925 308.569C7.44144 312.688 10.4497 316.777 12.5171 322.665C14.5915 328.572 15.7316 336.325 15.9958 347.79C16.1846 355.983 19.1433 363.522 23.9805 370.096L18.0469 370.096C8.10576 370.096 0.046875 362.037 0.046875 352.096ZM162.047 370.096L126.897 370.096C127.359 369.092 127.794 368.058 128.2 366.991C133.181 353.929 139.314 346.77 145.85 342.788C152.395 338.799 159.425 337.946 166.322 337.658C167.761 337.599 169.209 337.563 170.646 337.528C172.619 337.48 174.571 337.432 176.449 337.322C177.666 337.251 178.867 337.153 180.047 337.012L180.047 352.096C180.047 362.037 171.988 370.096 162.047 370.096ZM101.148 259.542C103.433 255.357 101.855 250.738 99.0432 247.518C97.6293 245.899 95.8718 244.589 94.0497 243.816C92.2323 243.044 90.2991 242.788 88.5761 243.365C79.4693 246.414 72.945 246.358 68.3191 246.319H68.3189H68.3188C67.8072 246.314 67.3189 246.31 66.8528 246.311C60.4272 246.314 55.9302 249.159 53.4247 253.301C50.9347 257.418 50.4472 262.754 51.8779 267.723C52.5953 270.214 53.5462 271.859 54.5801 273.125C55.3003 274.006 56.0769 274.716 56.7906 275.367C57.0755 275.628 57.3504 275.879 57.6077 276.128C58.527 277.018 59.332 277.974 59.9195 279.465C60.5123 280.969 60.8999 283.061 60.9016 286.239C60.9037 290.273 62.0133 293.18 63.8683 295.119C65.7206 297.054 68.2413 297.945 70.9136 298.097C76.2225 298.399 82.3359 295.801 85.7377 292.264C87.5603 290.369 88.9354 289.739 90.2855 289.12C90.8831 288.846 91.4758 288.575 92.1002 288.197C94.1288 286.968 95.9277 284.818 98.2112 278.506C98.6744 277.226 98.8375 275.807 98.8961 274.328C98.9311 273.444 98.9289 272.499 98.9266 271.536V271.535V271.535V271.535V271.534L98.9266 271.534L98.9266 271.534V271.534L98.9266 271.533L98.9266 271.533V271.533V271.532C98.9252 270.907 98.9237 270.274 98.9324 269.646C98.9771 266.394 99.2886 262.946 101.148 259.542ZM88.9728 244.549C90.319 244.099 91.9265 244.272 93.5617 244.966C95.1922 245.658 96.7991 246.848 98.1021 248.34C100.724 251.343 101.989 255.395 100.051 258.943C98.0437 262.619 97.7287 266.316 97.6831 269.629C97.6738 270.305 97.6755 270.955 97.6772 271.583L97.6772 271.584C97.6797 272.519 97.6821 273.41 97.6477 274.279C97.5909 275.712 97.4346 276.98 97.0363 278.081C94.7832 284.309 93.1103 286.124 91.4531 287.128C90.9932 287.406 90.4906 287.638 89.945 287.889C88.532 288.541 86.8307 289.325 84.8372 291.398C81.6769 294.684 75.9137 297.13 70.9846 296.85C68.5379 296.711 66.3492 295.904 64.7709 294.255C63.1953 292.608 62.153 290.044 62.151 286.238C62.1493 282.968 61.7517 280.707 61.0819 279.007C60.4066 277.293 59.4713 276.193 58.4769 275.23C58.1689 274.932 57.8648 274.654 57.5641 274.38C56.877 273.753 56.2074 273.142 55.5477 272.334C54.6255 271.206 53.7512 269.713 53.0785 267.377C51.729 262.691 52.2105 257.723 54.4938 253.948C56.7616 250.198 60.8421 247.563 66.8535 247.56C67.3127 247.56 67.7959 247.564 68.3037 247.568L68.3043 247.568L68.3049 247.568L68.3056 247.568H68.3064H68.3073L68.3081 247.568H68.309L68.3099 247.568L68.3109 247.568H68.312C72.9573 247.609 79.6629 247.667 88.9728 244.549ZM117.628 190.573C127.011 187.939 134.472 188.474 140.203 191.137C145.933 193.799 150.016 198.624 152.571 204.727C157.693 216.96 156.623 234.222 150.409 248.841L150.406 248.849L150.402 248.857C146.791 258.051 149.406 265.995 152.033 273.976L152.225 274.56C154.923 282.77 157.506 291.114 153.81 301.353C151.649 307.339 148.692 310.242 145.316 311.784C142.288 313.167 138.885 313.483 135.21 313.823H135.21C134.715 313.869 134.216 313.915 133.711 313.964C129.504 314.376 125.045 315.008 120.792 317.557C116.526 320.114 112.537 324.554 109.151 332.451C102.352 347.974 85.0343 352.777 69.1707 349.634C53.2915 346.488 39.2883 335.467 39.0051 319.787L39.0051 319.786C38.8593 312.022 38.0543 306.685 36.5857 302.594C35.1103 298.484 32.9789 295.669 30.2541 292.932C28.9381 291.61 27.4882 290.309 25.9037 288.886L25.9025 288.885C20.9506 284.44 14.6849 278.815 7.08963 267.707C-2.80584 253.235 -0.822578 234.337 7.81391 220.311C16.4483 206.287 31.5955 197.331 47.8939 202.453C55.359 205.08 60.8089 206.423 65.4526 206.75C70.1164 207.077 73.936 206.378 78.1343 204.972C80.8804 204.052 83.8149 202.819 87.2562 201.373L87.2569 201.373L87.262 201.371C89.0353 200.626 90.9432 199.824 93.0292 198.98C99.1896 196.486 106.979 193.586 117.628 190.573ZM144.354 273.248C142.122 265.89 140.023 258.968 143.231 251.017C148.85 237.978 149.564 222.539 144.691 211.472C142.248 205.926 138.389 201.454 133.019 198.972C127.649 196.489 120.844 196.031 112.576 198.367L112.574 198.367C103.228 201.033 96.3064 203.566 90.7842 205.728C89.1544 206.366 87.6516 206.97 86.2475 207.534L86.2472 207.534L86.2456 207.534C82.8774 208.887 80.0763 210.012 77.4482 210.84C73.7528 212.004 70.4454 212.564 66.4905 212.305C62.5207 212.045 57.8682 210.957 51.4875 208.78L51.4744 208.775L51.4612 208.772C36.1839 204.299 22.3666 212.63 14.5969 225.261C6.82907 237.888 4.98317 254.991 13.7706 268.317C20.4333 278.421 26.0979 283.516 30.5071 287.482C31.8348 288.676 33.0487 289.768 34.1418 290.863C36.4918 293.219 38.2997 295.598 39.5615 299.087C40.8299 302.595 41.5603 307.264 41.681 314.214C41.9311 329.353 54.9573 339.34 69.317 342.063C83.6834 344.788 99.7739 340.322 106.287 326.147L106.289 326.141C109.265 319.486 112.645 315.87 116.123 313.798C119.615 311.718 123.271 311.152 126.914 310.717L127.104 310.695C127.352 310.665 127.6 310.637 127.848 310.608L127.866 310.606C131.159 310.224 134.463 309.841 137.421 308.334C140.713 306.656 143.521 303.629 145.59 297.897C148.957 288.57 146.638 280.777 144.399 273.394L144.354 273.248ZM132.495 200.106C127.456 197.776 120.969 197.294 112.916 199.569C103.618 202.221 96.7353 204.74 91.2397 206.892C89.6433 207.516 88.1588 208.113 86.763 208.673L86.7629 208.673C83.3695 210.036 80.5005 211.188 77.8236 212.032C74.0168 213.231 70.552 213.823 66.4088 213.552C62.2833 213.282 57.5154 212.156 51.0971 209.967C36.5317 205.71 23.2353 213.603 15.6611 225.915C8.08266 238.235 6.35565 254.803 14.8136 267.629C21.3784 277.585 26.8937 282.547 31.2953 286.508C32.6441 287.721 33.8883 288.841 35.0262 289.981C37.4632 292.423 39.3949 294.952 40.7365 298.663C42.0715 302.355 42.8084 307.178 42.9302 314.192L42.9302 314.193C43.1663 328.5 55.4984 338.171 69.5498 340.836C83.5934 343.499 98.9655 339.084 105.15 325.628C108.204 318.8 111.734 314.958 115.484 312.725C119.221 310.499 123.111 309.913 126.766 309.477C126.947 309.455 127.127 309.434 127.306 309.413L127.69 309.368C131.028 308.979 134.107 308.62 136.854 307.22C139.804 305.717 142.428 302.975 144.415 297.473C147.627 288.575 145.446 281.152 143.203 273.756L143.12 273.482C140.913 266.208 138.697 258.907 142.075 250.543L142.077 250.536L142.08 250.529C147.598 237.731 148.251 222.658 143.547 211.976C141.201 206.648 137.534 202.435 132.495 200.106ZM134.884 252.714C131.932 259.789 133.584 266.039 135.372 272.622L135.417 272.789C137.183 279.291 139.036 286.11 136.181 294.017C134.295 299.238 131.842 302.095 128.998 303.742C126.319 305.294 123.35 305.731 120.417 306.162L119.986 306.226C116.88 306.686 113.784 307.204 110.798 308.968C107.826 310.723 104.905 313.752 102.264 319.34L102.261 319.348C96.3602 331.422 82.2455 335.51 69.6933 333.267C57.1373 331.024 45.7933 322.376 45.5918 308.618C45.495 302.421 44.8329 298.267 43.6991 295.159C42.5717 292.069 40.9641 289.975 38.9008 287.914C37.9819 286.996 36.9698 286.083 35.8724 285.093L35.8712 285.092L35.8695 285.091L35.8687 285.09C32.008 281.609 27.0922 277.176 21.467 268.219C14.1377 256.548 15.7179 241.79 22.4294 230.866C29.1447 219.936 41.102 212.693 54.6259 216.278L54.6429 216.283L54.6597 216.288C59.9912 218.028 63.9667 218.902 67.4256 219.107C70.8732 219.312 73.8366 218.855 77.1473 217.893C79.7504 217.136 82.5483 216.075 85.9662 214.778L85.9761 214.775L85.9826 214.772C86.9356 214.411 87.937 214.031 88.9957 213.634C93.8459 211.817 99.8548 209.668 107.845 207.363L107.847 207.363C114.795 205.383 120.624 205.794 125.294 207.939C129.962 210.084 133.405 213.93 135.642 218.698C140.105 228.21 139.819 241.471 134.884 252.714ZM108.19 208.564C114.913 206.649 120.426 207.078 124.773 209.075C129.122 211.073 132.373 214.674 134.511 219.229C138.796 228.36 138.557 241.243 133.738 252.217L133.733 252.227C130.593 259.747 132.387 266.398 134.166 272.949L134.182 273.01C135.965 279.573 137.726 286.058 135.006 293.593C133.193 298.612 130.9 301.197 128.372 302.661C125.906 304.089 123.156 304.495 120.158 304.938L119.803 304.99C116.701 305.45 113.381 305.99 110.162 307.892C106.93 309.801 103.858 313.044 101.137 318.802C95.5663 330.196 82.1361 334.221 69.9131 332.037C57.6927 329.854 47.0302 321.534 46.841 308.599L46.841 308.598C46.7432 302.335 46.0743 298.024 44.8728 294.731C43.6649 291.42 41.9329 289.177 39.7838 287.03C38.8232 286.07 37.7823 285.131 36.6648 284.123L36.664 284.122L36.6637 284.122C32.8112 280.646 28.0484 276.349 22.525 267.554C15.5019 256.371 16.9739 242.133 23.494 231.521C30.0074 220.919 41.4541 214.088 54.2889 217.481C59.6607 219.234 63.7457 220.14 67.3515 220.355C70.9725 220.57 74.0812 220.085 77.4959 219.092C80.1515 218.321 83.0117 217.236 86.4399 215.935L86.4497 215.931C87.3984 215.571 88.3906 215.195 89.4339 214.804C94.2656 212.994 100.242 210.857 108.19 208.564ZM126.517 254.412C130.771 244.961 130.625 233.874 126.57 225.919C124.538 221.932 121.513 218.713 117.549 216.907C113.579 215.1 108.728 214.736 103.097 216.36L103.094 216.36C96.4625 218.303 91.3667 220.068 87.1898 221.54C86.8189 221.67 86.4554 221.799 86.099 221.924C82.4333 223.218 79.5115 224.249 76.8301 224.945C71.017 226.454 66.3416 226.392 57.8076 223.796L57.7866 223.789L57.7652 223.784C45.9989 221.09 35.9032 227.242 30.2416 236.473C24.586 245.693 23.2733 258.104 29.1406 268.116C33.714 275.92 37.8809 279.688 41.1954 282.686C42.0727 283.479 42.8902 284.218 43.6397 284.964C45.4165 286.732 46.8238 288.542 47.8166 291.232C48.8157 293.94 49.4093 297.578 49.4823 303.022C49.635 315.396 59.2945 322.709 70.0517 324.472C80.7906 326.232 92.9239 322.521 98.2114 312.553L98.2161 312.544C100.521 308.022 102.983 305.579 105.451 304.138C107.903 302.706 110.408 302.232 112.946 301.752L113.044 301.733C115.589 301.251 118.188 300.748 120.562 299.145C122.953 297.528 125.05 294.846 126.752 290.137C129.071 283.715 127.731 277.93 126.444 272.37L126.325 271.856C124.997 266.104 123.84 260.562 126.517 254.412ZM117.031 218.044C113.374 216.379 108.834 216.006 103.444 217.56C96.845 219.493 91.7741 221.25 87.6049 222.718L87.3797 222.797L86.5278 223.098L86.5023 223.107L86.502 223.107L86.5014 223.107C82.8536 224.394 79.8799 225.444 77.1441 226.154C71.0647 227.733 66.153 227.638 57.4651 224.997C46.3569 222.464 36.7587 228.237 31.3066 237.126C25.8452 246.03 24.6266 257.942 30.2186 267.484C34.6858 275.107 38.6931 278.734 41.9981 281.725C42.892 282.533 43.7346 283.296 44.521 284.079C46.3819 285.93 47.9145 287.888 48.9888 290.8C50.0568 293.694 50.6577 297.491 50.7316 303.005L50.7316 303.006C50.874 314.571 59.8692 321.537 70.2538 323.239C80.6551 324.944 92.1487 321.311 97.1053 311.972C99.4957 307.285 102.108 304.643 104.821 303.059C107.461 301.518 110.15 301.009 112.649 300.537L112.812 300.506C115.383 300.019 117.732 299.549 119.862 298.109C121.974 296.682 123.937 294.252 125.577 289.713C127.769 283.643 126.506 278.182 125.205 272.556L125.108 272.137C123.783 266.397 122.513 260.477 125.373 253.91L125.376 253.903C129.493 244.759 129.322 234.07 125.457 226.486C123.529 222.703 120.693 219.712 117.031 218.044ZM117.463 233.133C121.11 239.528 121.697 248.445 118.118 256.114C115.716 261.342 116.381 266.18 117.249 271.099C117.301 271.392 117.354 271.686 117.406 271.979L117.408 271.99C118.231 276.59 119.077 281.317 117.292 286.258C115.776 290.453 114.036 292.955 112.104 294.536C110.174 296.116 108.11 296.725 106.085 297.237L105.863 297.293C105.751 297.321 105.639 297.349 105.527 297.377L105.44 297.398C103.623 297.85 101.851 298.29 100.073 299.31C98.1059 300.438 96.1011 302.3 94.1323 305.758L94.1264 305.768C89.454 313.618 79.3108 316.955 70.3837 315.678C65.9037 315.037 61.6718 313.229 58.5395 310.191C55.3971 307.142 53.394 302.885 53.3427 297.426L53.3427 297.426L53.9674 297.42L53.3427 297.426C53.2935 292.737 52.7684 289.613 51.9043 287.306C51.0463 285.015 49.8394 283.491 48.3489 282.016C47.7657 281.439 47.1374 280.869 46.4718 280.265C43.6998 277.75 40.2812 274.648 36.7804 268.006C32.381 259.658 33.4235 249.598 38.0236 242.079C42.6323 234.547 50.8646 229.491 60.8662 231.29L60.8919 231.295L60.9171 231.302C67.3583 233.027 71.4277 233.108 76.4885 231.997C79.0418 231.437 81.8517 230.572 85.3587 229.445C86.0247 229.231 86.7154 229.007 87.4336 228.775L87.435 228.775L87.4368 228.774C90.4928 227.786 94.0467 226.637 98.3128 225.358L98.316 225.357C102.632 224.088 106.507 224.408 109.772 225.876C113.03 227.341 115.636 229.93 117.463 233.133ZM98.6699 226.556C102.723 225.364 106.289 225.679 109.259 227.015C112.237 228.354 114.659 230.738 116.378 233.752C119.822 239.792 120.395 248.282 116.985 255.587L116.983 255.591C114.405 261.201 115.149 266.386 116.019 271.317C116.068 271.592 116.117 271.867 116.166 272.141C116.997 276.804 117.784 281.218 116.117 285.834C114.649 289.894 113.016 292.176 111.313 293.569C109.609 294.964 107.778 295.52 105.778 296.026C105.567 296.079 105.353 296.132 105.137 296.186C103.332 296.633 101.389 297.114 99.4511 298.226C97.2618 299.482 95.1094 301.519 93.0496 305.134C88.7045 312.428 79.1388 315.668 70.5606 314.441C66.287 313.83 62.3163 312.114 59.4095 309.294C56.5129 306.484 54.6403 302.548 54.592 297.414L54.592 297.413C54.5421 292.648 54.0092 289.364 53.0743 286.868C52.1334 284.356 50.8003 282.684 49.2277 281.128C48.6125 280.519 47.9626 279.929 47.2831 279.312C44.5234 276.805 41.276 273.856 37.8857 267.423C33.7189 259.517 34.687 249.927 39.0893 242.732C43.4792 235.557 51.2311 230.837 60.6194 232.515C67.2106 234.278 71.48 234.376 76.7564 233.218C79.375 232.643 82.2374 231.76 85.7409 230.634C86.4083 230.42 87.0993 230.196 87.8171 229.964L87.822 229.963L87.8228 229.962C90.8784 228.974 94.4175 227.83 98.6699 226.556ZM109.671 257.822C112.587 251.917 111.538 245.159 108.301 240.336C105.06 235.509 99.5384 232.512 93.4864 234.358L93.483 234.359C77.8352 239.228 72.6447 240.517 63.9605 238.805L63.9342 238.8L63.9077 238.797C55.6829 237.897 49.3165 241.851 45.7597 247.688C42.2146 253.506 41.4466 261.209 44.3687 267.881C46.7648 273.352 49.4381 275.785 51.6737 277.82C52.1415 278.246 52.5901 278.654 53.0131 279.069C54.2176 280.252 55.2238 281.492 55.9468 283.383C56.6757 285.289 57.1322 287.897 57.1575 291.831C57.1843 296.583 58.7431 300.164 61.2413 302.655C63.7305 305.137 67.1017 306.488 70.6769 306.885C77.7942 307.677 85.9334 304.711 89.9835 298.999L89.9902 298.99C91.622 296.593 93.172 295.306 94.6463 294.485C95.7568 293.866 96.8158 293.511 97.9094 293.144L97.9123 293.143C98.3034 293.012 98.6989 292.879 99.1028 292.732C100.618 292.181 102.138 291.461 103.613 289.911C105.076 288.373 106.457 286.058 107.787 282.38C109.041 278.91 108.653 275.283 108.266 271.678L108.266 271.677C108.219 271.237 108.172 270.797 108.128 270.358C107.718 266.273 107.541 262.134 109.671 257.822ZM88.9574 298.286L89.4738 298.638L88.9642 298.277L88.9608 298.281C90.6907 295.742 92.3803 294.317 94.0385 293.393C95.2589 292.714 96.4727 292.307 97.5944 291.93C97.9661 291.806 98.3276 291.685 98.6759 291.558C100.095 291.042 101.417 290.406 102.707 289.049C104.009 287.681 105.316 285.541 106.612 281.956L107.2 282.168L106.612 281.956C107.762 278.774 107.409 275.45 107.022 271.803C106.976 271.367 106.929 270.928 106.885 270.483C106.471 266.361 106.255 261.916 108.55 257.269C111.241 251.82 110.288 245.538 107.263 241.032C104.241 236.53 99.2398 233.91 93.8526 235.552L93.8543 235.552L93.6686 234.955L93.8509 235.553L93.8526 235.552C78.2425 240.41 72.7623 241.809 63.7454 240.037L63.7717 240.039L63.8397 239.418L63.7189 240.031L63.7454 240.037C56.0639 239.206 50.1539 242.878 46.8266 248.338C43.4839 253.824 42.7621 261.098 45.5132 267.38C47.7965 272.594 50.2767 274.854 52.4945 276.876L52.4949 276.876C52.9731 277.312 53.439 277.737 53.8882 278.178C55.172 279.438 56.306 280.824 57.1138 282.937C57.9159 285.034 58.381 287.807 58.4069 291.823L58.4069 291.824C58.432 296.288 59.8869 299.54 62.1235 301.77C64.3692 304.01 67.454 305.27 70.8151 305.644C77.5684 306.395 85.2206 303.552 88.9608 298.281L88.9574 298.286Z" fill="#B41919"/>
</svg>
