<svg width="17" height="17" viewBox="0 0 17 17" fill="none" xmlns="http://www.w3.org/2000/svg">
<path d="M8.49948 1.41702C8.74386 1.41702 8.94219 1.61536 8.94219 1.85973V2.74515C8.94219 2.86256 8.89555 2.97517 8.81252 3.05819C8.7295 3.14121 8.6169 3.18786 8.49948 3.18786C8.38207 3.18786 8.26946 3.14121 8.18644 3.05819C8.10342 2.97517 8.05677 2.86256 8.05677 2.74515V1.85973C8.05677 1.61536 8.25511 1.41702 8.49948 1.41702ZM12.0493 8.51665C12.0493 10.4678 10.4676 12.0495 8.51648 12.0495C6.56502 12.0495 4.98332 10.4678 4.98332 8.51665C4.98332 6.56519 6.56502 4.98348 8.51648 4.98348C10.4676 4.98348 12.0493 6.56519 12.0493 8.51665ZM15.1405 8.94271C15.2579 8.94271 15.3705 8.89607 15.4535 8.81305C15.5365 8.73002 15.5832 8.61742 15.5832 8.5C15.5832 8.38259 15.5365 8.26998 15.4535 8.18696C15.3705 8.10394 15.2579 8.05729 15.1405 8.05729H14.255C14.1376 8.05729 14.025 8.10394 13.942 8.18696C13.859 8.26998 13.8123 8.38259 13.8123 8.5C13.8123 8.61742 13.859 8.73002 13.942 8.81305C14.025 8.89607 14.1376 8.94271 14.255 8.94271H15.1405ZM8.49948 13.8125C8.74386 13.8125 8.94219 14.0108 8.94219 14.2552V15.1406C8.94219 15.258 8.89555 15.3706 8.81252 15.4537C8.7295 15.5367 8.6169 15.5833 8.49948 15.5833C8.38207 15.5833 8.26946 15.5367 8.18644 15.4537C8.10342 15.3706 8.05677 15.258 8.05677 15.1406V14.2552C8.05677 14.0108 8.25511 13.8125 8.49948 13.8125ZM2.74463 8.94271C2.86204 8.94271 2.97465 8.89607 3.05767 8.81305C3.14069 8.73002 3.18734 8.61742 3.18734 8.5C3.18734 8.38259 3.14069 8.26998 3.05767 8.18696C2.97465 8.10394 2.86204 8.05729 2.74463 8.05729H1.85921C1.7418 8.05729 1.62919 8.10394 1.54617 8.18696C1.46315 8.26998 1.4165 8.38259 1.4165 8.5C1.4165 8.61742 1.46315 8.73002 1.54617 8.81305C1.62919 8.89607 1.7418 8.94271 1.85921 8.94271H2.74463ZM3.31696 3.31713C3.35807 3.27601 3.40688 3.24339 3.4606 3.22113C3.51432 3.19887 3.5719 3.18742 3.63005 3.18742C3.68819 3.18742 3.74577 3.19887 3.79949 3.22113C3.85321 3.24339 3.90202 3.27601 3.94313 3.31713L4.82855 4.20254C4.86966 4.24366 4.90227 4.29247 4.92453 4.34619C4.94678 4.39991 4.95823 4.45748 4.95823 4.51563C4.95823 4.57377 4.94678 4.63135 4.92453 4.68507C4.90227 4.73879 4.86966 4.7876 4.82855 4.82871C4.78743 4.86983 4.73862 4.90244 4.6849 4.92469C4.63118 4.94694 4.57361 4.95839 4.51546 4.95839C4.45732 4.95839 4.39974 4.94694 4.34602 4.92469C4.2923 4.90244 4.24349 4.86983 4.20238 4.82871L3.31696 3.94329C3.27584 3.90218 3.24322 3.85337 3.22096 3.79965C3.19871 3.74594 3.18725 3.68836 3.18725 3.63021C3.18725 3.57206 3.19871 3.51449 3.22096 3.46077C3.24322 3.40705 3.27584 3.35824 3.31696 3.31713ZM3.94313 13.6832C3.86009 13.7663 3.74747 13.8129 3.63005 13.8129C3.51262 13.8129 3.4 13.7663 3.31696 13.6832C3.23393 13.6002 3.18728 13.4876 3.18728 13.3701C3.18728 13.2527 3.23393 13.1401 3.31696 13.0571L4.20238 12.1716C4.24349 12.1305 4.2923 12.0979 4.34602 12.0757C4.39974 12.0534 4.45732 12.042 4.51546 12.042C4.57361 12.042 4.63118 12.0534 4.6849 12.0757C4.73862 12.0979 4.78743 12.1305 4.82855 12.1716C4.86966 12.2128 4.90227 12.2616 4.92453 12.3153C4.94678 12.369 4.95823 12.4266 4.95823 12.4847C4.95823 12.5429 4.94678 12.6005 4.92453 12.6542C4.90227 12.7079 4.86966 12.7567 4.82855 12.7978L3.94313 13.6832ZM13.6827 3.31713C13.5997 3.23419 13.4872 3.1876 13.3698 3.1876C13.2525 3.1876 13.1399 3.23419 13.0569 3.31713L12.1715 4.20254C12.0884 4.28558 12.0418 4.3982 12.0418 4.51563C12.0418 4.63306 12.0884 4.74568 12.1715 4.82871C12.2545 4.91175 12.3671 4.95839 12.4846 4.95839C12.602 4.95839 12.7146 4.91175 12.7976 4.82871L13.6831 3.94329C13.7242 3.90218 13.7568 3.85337 13.7791 3.79965C13.8013 3.74594 13.8128 3.68836 13.8128 3.63021C13.8128 3.57206 13.8013 3.51449 13.7791 3.46077C13.7568 3.40705 13.7238 3.35824 13.6827 3.31713ZM13.0569 13.6832C13.1399 13.7663 13.2526 13.8129 13.37 13.8129C13.4874 13.8129 13.6 13.7663 13.6831 13.6832C13.7661 13.6002 13.8127 13.4876 13.8127 13.3701C13.8127 13.2527 13.7661 13.1401 13.6831 13.0571L12.7976 12.1716C12.7565 12.1305 12.7077 12.0979 12.654 12.0757C12.6003 12.0534 12.5427 12.042 12.4846 12.042C12.4264 12.042 12.3688 12.0534 12.3151 12.0757C12.2614 12.0979 12.2126 12.1305 12.1715 12.1716C12.1304 12.2128 12.0978 12.2616 12.0755 12.3153C12.0533 12.369 12.0418 12.4266 12.0418 12.4847C12.0418 12.5429 12.0533 12.6005 12.0755 12.6542C12.0978 12.7079 12.1304 12.7567 12.1715 12.7978L13.0569 13.6832Z" fill="#1E1E1E"/>
</svg>
